<?xml version="1.0" encoding="UTF-8"?>
<svg width="71px" height="71px" viewBox="0 0 71 71" version="1.1" xmlns="http://www.w3.org/2000/svg" xmlns:xlink="http://www.w3.org/1999/xlink">
    <!-- Generator: Sketch 55.1 (78136) - https://sketchapp.com -->
    <title>Group 9</title>
    <desc>Created with Sketch.</desc>
    <g id="SCALEWORK-WEBSITE-WIP" stroke="none" stroke-width="1" fill="none" fill-rule="evenodd">
        <g id="SCALEWORK-Solution-finder-step-04" transform="translate(-195.000000, -600.000000)" fill="#FFFFFF">
            <g id="Solution-03" transform="translate(130.000000, 550.000000)">
                <g id="Group-9" transform="translate(65.000000, 50.000000)">
                    <path d="M32.5147973,0 L32.5147973,0.846277186 L32.5147973,10.9045759 L29.4559341,10.9045759 L28,10.9045759 L28.7154187,12.1494881 L34.7845813,22.7304198 L35.5,24 L36.2154187,22.7304198 L42.2845813,12.1494881 L43,10.9045759 L41.5447177,10.9045759 L38.4855287,10.9045759 L38.4855287,0.846277186 L38.4855287,0 L32.5147973,0 Z M30.8867715,12.5727912 L33.3537439,12.5727912 L34.1926905,12.5727912 L34.1926905,11.7261851 L34.1926905,1.69288328 L36.8076355,1.69288328 L36.8076355,11.7261851 L36.8076355,12.5727912 L37.6465821,12.5727912 L40.1135544,12.5727912 L35.5,20.6392304 L30.8867715,12.5727912 Z" id="Fill-1" transform="translate(35.500000, 12.000000) scale(1, -1) translate(-35.500000, -12.000000) "></path>
                    <path d="M15.7040029,22.2438638 L17.4381481,20.5096888 L18.0327776,19.9153763 L17.4381481,19.3204093 L10.3781908,12.2357855 L12.2360398,10.3779045 L19.3208688,17.4376561 L19.915171,18.0326231 L20.5098005,17.4376561 L22.2436185,15.7041356 L24.6466809,24.6466404 L15.7040029,22.2438638 Z M26.6282338,25.6127254 L23.4822936,13.8707994 L23.1108547,12.45898 L22.0950429,13.4990268 L19.915171,15.6789362 L12.8306693,8.59431249 L12.2360398,8 L11.666282,8.59431249 L8.59462951,11.641473 L8,12.2357855 L8.59462951,12.830098 L15.6791312,19.9153763 L13.4992594,22.0952857 L12.4589032,23.1107877 L13.8710255,23.482233 L25.6127493,26.6282274 L27,27 L26.6282338,25.6127254 Z" id="Fill-2" transform="translate(17.500000, 17.500000) scale(-1, -1) translate(-17.500000, -17.500000) "></path>
                    <path d="M53.5620166,19.3205415 L52.9673769,19.915171 L53.5620166,20.5098005 L55.2961917,22.2439457 L46.3533596,24.6463536 L48.7561362,15.7040029 L50.4903112,17.4378208 L51.084951,18.0324503 L51.6792635,17.4378208 L58.7642145,10.3781908 L60.6220955,12.2360398 L53.5620166,19.3205415 Z M63,12.2360398 L62.4056875,11.6414103 L59.358527,8.59462951 L58.7642145,8 L58.1695747,8.59462951 L51.084951,15.6791312 L48.9050416,13.4992594 L47.8892123,12.4589032 L47.517767,13.8710255 L44.3714453,25.6127493 L44,27 L45.3872746,26.6282338 L57.1292006,23.4822936 L58.54102,23.1108547 L57.5009732,22.0953701 L55.3210638,19.915171 L62.4056875,12.8303421 L63,12.2360398 Z" id="Fill-3" transform="translate(53.500000, 17.500000) scale(-1, -1) translate(-53.500000, -17.500000) "></path>
                    <path d="M10.9045759,29.4556082 L10.9045759,32.5147973 L0.846606093,32.5147973 L0,32.5147973 L0,33.3534179 L0,37.646908 L0,38.4855287 L0.846606093,38.4855287 L10.9045759,38.4855287 L10.9045759,41.5443918 L10.9045759,43 L12.1494881,42.2845813 L22.7304198,36.2154187 L24,35.5 L22.7304198,34.7845813 L12.1494881,28.7154187 L10.9045759,28 L10.9045759,29.4556082 Z M1.66788636,34.1923645 L11.7261851,34.1923645 L12.5727912,34.1923645 L12.5727912,33.3534179 L12.5727912,30.8867715 L20.6389015,35.5 L12.5727912,40.1135544 L12.5727912,37.646908 L12.5727912,36.8076355 L11.7261851,36.8076355 L1.66788636,36.8076355 L1.66788636,34.1923645 Z" id="Fill-4" transform="translate(12.000000, 35.500000) scale(-1, 1) translate(-12.000000, -35.500000) "></path>
                    <path d="M58.8506784,28.7154343 L48.2698917,34.7847287 L47,35.500163 L48.2698917,36.2155972 L58.8506784,42.2848917 L60.0955735,43 L60.0955735,41.5446861 L60.0955735,38.4854306 L70.1537344,38.4854306 L71,38.4854306 L71,32.5148954 L70.1537344,32.5148954 L60.0955735,32.5148954 L60.0955735,29.4556398 L60.0955735,28 L58.8506784,28.7154343 Z M50.3610525,35.500163 L58.4273811,30.8868343 L58.4273811,33.3535343 L58.4273811,34.1924991 L59.2739756,34.1924991 L69.3071399,34.1924991 L69.3071399,36.8075009 L59.2739756,36.8075009 L58.4273811,36.8075009 L58.4273811,37.6467917 L58.4273811,40.1134917 L50.3610525,35.500163 Z" id="Fill-5" transform="translate(59.000000, 35.500000) scale(-1, 1) translate(-59.000000, -35.500000) "></path>
                    <path d="M22.2436185,55.3059364 L20.5098005,53.5740285 L19.915171,52.980493 L19.3205415,53.5740285 L12.2357126,60.6248774 L10.3781908,58.7697521 L17.4378208,51.6940636 L18.0324503,51.1005281 L17.4378208,50.5063389 L15.7040029,48.7747579 L24.6463536,46.3751226 L22.2436185,55.3059364 Z M25.6124221,44.3957993 L13.8710255,47.5376808 L12.4834476,47.9086405 L13.4992594,48.9231418 L15.6791312,51.1005281 L8.59430225,58.1758898 L8,58.7697521 L8.59430225,59.3632876 L11.666282,62.4064645 L12.2357126,63 L12.8303421,62.4064645 L19.915171,55.330776 L22.0950429,57.5078355 L23.1105274,58.5468495 L23.4822936,57.1368758 L26.6282338,45.4103005 L27,44 L25.6124221,44.3957993 Z" id="Fill-6" transform="translate(17.500000, 53.500000) scale(-1, -1) translate(-17.500000, -53.500000) "></path>
                    <path d="M58.7642145,60.6248774 L51.6792635,53.5740285 L51.084951,52.9801662 L50.4903112,53.5740285 L48.7561362,55.3059364 L46.3533596,46.3747957 L55.2961917,48.774431 L53.5620166,50.5063389 L52.9673769,51.1002013 L53.5620166,51.6940636 L60.6220955,58.7694253 L58.7642145,60.6248774 Z M62.4056875,58.1758898 L55.3210638,51.1002013 L57.5009732,48.9228149 L58.54102,47.9086405 L57.1292006,47.5376808 L45.3872746,44.3957993 L44,44 L44.3714453,45.4099737 L47.517767,57.1365489 L47.8892123,58.5468495 L48.9050416,57.5078355 L51.084951,55.330776 L58.1695747,62.4061376 L58.7642145,63 L59.358527,62.4061376 L62.4056875,59.3632876 L63,58.7694253 L62.4056875,58.1758898 Z" id="Fill-7" transform="translate(53.500000, 53.500000) scale(-1, -1) translate(-53.500000, -53.500000) "></path>
                    <path d="M34.7845813,48.2695802 L28.7154187,58.8505119 L28,60.0954241 L29.4559341,60.0954241 L32.5147973,60.0954241 L32.5147973,70.1537228 L32.5147973,71 L33.3537439,71 L37.6462561,71 L38.4852027,71 L38.4852027,70.1537228 L38.4852027,60.0954241 L41.5443918,60.0954241 L43,60.0954241 L42.2845813,58.8505119 L36.2154187,48.2695802 L35.5,47 L34.7845813,48.2695802 Z M35.5,50.3610985 L40.1135544,58.4272088 L37.6462561,58.4272088 L36.8076355,58.4272088 L36.8076355,59.2738149 L36.8076355,69.3321136 L34.1926905,69.3321136 L34.1926905,59.2738149 L34.1926905,58.4272088 L33.3537439,58.4272088 L30.8867715,58.4272088 L35.5,50.3610985 Z" id="Fill-8" transform="translate(35.500000, 59.000000) scale(1, -1) translate(-35.500000, -59.000000) "></path>
                </g>
            </g>
        </g>
    </g>
</svg>