<?xml version="1.0" encoding="UTF-8"?>
<svg width="71px" height="71px" viewBox="0 0 71 71" version="1.1" xmlns="http://www.w3.org/2000/svg" xmlns:xlink="http://www.w3.org/1999/xlink">
    <!-- Generator: Sketch 55.1 (78136) - https://sketchapp.com -->
    <title>Group 9</title>
    <desc>Created with Sketch.</desc>
    <g id="SCALEWORK-WEBSITE-WIP" stroke="none" stroke-width="1" fill="none" fill-rule="evenodd">
        <g id="SCALEWORK-Solution-finder-step-04" transform="translate(-799.000000, -409.000000)" fill="#FFFFFF">
            <g id="Solution-02" transform="translate(730.000000, 360.000000)">
                <g id="Group-9" transform="translate(69.000000, 49.000000)">
                    <path d="M32.5315211,0 L32.5315211,0.841536138 L32.5315211,10.8434859 L29.4897944,10.8434859 L28.0420168,10.8434859 L28.7534276,12.0814238 L34.7885892,22.6030785 L35.5,23.8655462 L36.2114108,22.6030785 L42.2465724,12.0814238 L42.9579832,10.8434859 L41.5108538,10.8434859 L38.468803,10.8434859 L38.468803,0.841536138 L38.468803,0 L32.5315211,0 Z M30.912616,12.5023554 L33.3657677,12.5023554 L34.2000143,12.5023554 L34.2000143,11.6604922 L34.2000143,1.68339934 L36.8003098,1.68339934 L36.8003098,11.6604922 L36.8003098,12.5023554 L37.6345564,12.5023554 L40.0877081,12.5023554 L35.5,20.5236044 L30.912616,12.5023554 Z" id="Fill-1"></path>
                    <path d="M16.0944248,22.6661028 L17.8370068,20.9234909 L18.4345292,20.326287 L17.8370068,19.7284254 L10.7427021,12.6093342 L12.6095898,10.7424144 L19.7288872,17.8365125 L20.3260808,18.434374 L20.9236032,17.8365125 L22.6658563,16.0945582 L25.0806099,25.0805692 L16.0944248,22.6661028 Z M27.0718033,26.0513543 L23.9105577,14.2523026 L23.5373117,12.8336145 L22.5165579,13.8787213 L20.3260808,16.0692362 L13.2071122,8.95014505 L12.6095898,8.35294118 L12.03706,8.95014505 L8.95046362,12.0121304 L8.35294118,12.6093342 L8.95046362,13.2065381 L16.0694322,20.326287 L13.878955,22.5168019 L12.8335374,23.5372444 L14.2525299,23.9104968 L26.0513784,27.0717969 L27.4453782,27.4453782 L27.0718033,26.0513543 Z" id="Fill-2"></path>
                    <path d="M53.1631587,19.7285583 L52.565626,20.3260808 L53.1631587,20.9236032 L54.9057707,22.6661852 L45.9194308,25.0802811 L48.3338972,16.0944248 L50.0765091,17.836678 L50.6740419,18.4342004 L51.2712457,17.836678 L58.3906658,10.7427021 L60.2575856,12.6095898 L53.1631587,19.7285583 Z M62.6470588,12.6095898 L62.0498549,12.0120673 L58.9878696,8.95046362 L58.3906658,8.35294118 L57.793133,8.95046362 L50.6740419,16.0694322 L48.483527,13.878955 L47.4627556,12.8335374 L47.0895032,14.2525299 L43.9278743,26.0513784 L43.5546218,27.4453782 L44.9486457,27.0718033 L56.7476974,23.9105577 L58.1663855,23.5373117 L57.1212787,22.5168868 L54.9307638,20.3260808 L62.0498549,13.2067834 L62.6470588,12.6095898 Z" id="Fill-3"></path>
                    <path d="M10.8434859,29.4894703 L10.8434859,32.5315211 L0.841863202,32.5315211 L0,32.5315211 L0,33.3654436 L0,37.6348805 L0,38.468803 L0.841863202,38.468803 L10.8434859,38.468803 L10.8434859,41.5105297 L10.8434859,42.9579832 L12.0814238,42.2465724 L22.6030785,36.2114108 L23.8655462,35.5 L22.6030785,34.7885892 L12.0814238,28.7534276 L10.8434859,28.0420168 L10.8434859,29.4894703 Z M1.65854246,34.1996902 L11.6604922,34.1996902 L12.5023554,34.1996902 L12.5023554,33.3654436 L12.5023554,30.912616 L20.5232774,35.5 L12.5023554,40.0877081 L12.5023554,37.6348805 L12.5023554,36.8003098 L11.6604922,36.8003098 L1.65854246,36.8003098 L1.65854246,34.1996902 Z" id="Fill-4"></path>
                    <path d="M58.9187418,28.753443 L48.3972313,34.7887358 L47.1344538,35.5001621 L48.3972313,36.2115883 L58.9187418,42.2468811 L60.1566627,42.9579832 L60.1566627,41.5108223 L60.1566627,38.4687055 L70.1584754,38.4687055 L71,38.4687055 L71,32.5316186 L70.1584754,32.5316186 L60.1566627,32.5316186 L60.1566627,29.4895018 L60.1566627,28.0420168 L58.9187418,28.753443 Z M50.4766768,35.5001621 L58.497816,30.9126783 L58.497816,33.3655593 L58.497816,34.199824 L59.3396676,34.199824 L69.3166237,34.199824 L69.3166237,36.800176 L59.3396676,36.800176 L58.497816,36.800176 L58.497816,37.6347648 L58.497816,40.0876458 L50.4766768,35.5001621 Z" id="Fill-5"></path>
                    <path d="M22.6658563,54.9155628 L20.9236032,53.175229 L20.3260808,52.5788059 L19.7285583,53.175229 L12.6092609,60.260381 L10.7427021,58.3962303 L17.836678,51.2861179 L18.4342004,50.6896948 L17.836678,50.0926148 L16.0944248,48.3526094 L25.0802811,45.9412996 L22.6658563,54.9155628 Z M26.0510495,43.9523467 L14.2525299,47.1095139 L12.8582012,47.4822783 L13.878955,48.5017152 L16.0694322,50.6896948 L8.95013477,57.7994788 L8.35294118,58.3962303 L8.95013477,58.9926535 L12.03706,62.0506357 L12.6092609,62.6470588 L13.2067834,62.0506357 L20.3260808,54.9405232 L22.5165579,57.1281744 L23.5369829,58.1722432 L23.9105577,56.7554099 L27.0718033,44.9717836 L27.4453782,43.5546218 L26.0510495,43.9523467 Z" id="Fill-6"></path>
                    <path d="M58.3906658,60.260381 L51.2712457,53.175229 L50.6740419,52.5784775 L50.0765091,53.175229 L48.3338972,54.9155628 L45.9194308,45.9409712 L54.9057707,48.352281 L53.1631587,50.0926148 L52.565626,50.6893663 L53.1631587,51.2861179 L60.2575856,58.3959019 L58.3906658,60.260381 Z M62.0498549,57.7994788 L54.9307638,50.6893663 L57.1212787,48.5013868 L58.1663855,47.4822783 L56.7476974,47.1095139 L44.9486457,43.9523467 L43.5546218,43.5546218 L43.9278743,44.9714552 L47.0895032,56.7550815 L47.4627556,58.1722432 L48.483527,57.1281744 L50.6740419,54.9405232 L57.793133,62.0503073 L58.3906658,62.6470588 L58.9878696,62.0503073 L62.0498549,58.9926535 L62.6470588,58.3959019 L62.0498549,57.7994788 Z" id="Fill-7"></path>
                    <path d="M34.7885892,48.3969215 L28.7534276,58.9185762 L28.0420168,60.1565141 L29.4897944,60.1565141 L32.5315211,60.1565141 L32.5315211,70.1584639 L32.5315211,71 L33.3657677,71 L37.6342323,71 L38.4684789,71 L38.4684789,70.1584639 L38.4684789,60.1565141 L41.5105297,60.1565141 L42.9579832,60.1565141 L42.2465724,58.9185762 L36.2114108,48.3969215 L35.5,47.1344538 L34.7885892,48.3969215 Z M35.5,50.4767226 L40.0877081,58.4976446 L37.6342323,58.4976446 L36.8003098,58.4976446 L36.8003098,59.3395078 L36.8003098,69.3414575 L34.2000143,69.3414575 L34.2000143,59.3395078 L34.2000143,58.4976446 L33.3657677,58.4976446 L30.912616,58.4976446 L35.5,50.4767226 Z" id="Fill-8"></path>
                </g>
            </g>
        </g>
    </g>
</svg>