<?xml version="1.0" encoding="UTF-8"?>
<svg width="50px" height="50px" viewBox="0 0 50 50" version="1.1" xmlns="http://www.w3.org/2000/svg" xmlns:xlink="http://www.w3.org/1999/xlink">
    <!-- Generator: Sketch 55.1 (78136) - https://sketchapp.com -->
    <title>Group 5</title>
    <desc>Created with Sketch.</desc>
    <g id="SCALEWORK-WEBSITE-WIP" stroke="none" stroke-width="1" fill="none" fill-rule="evenodd">
        <g id="SCALEWORK-Desktop-Company" transform="translate(-144.000000, -2705.000000)" fill="#DF265E">
            <g id="03-Team" transform="translate(144.000000, 1992.000000)">
                <g id="Group-3">
                    <g id="Group-5" transform="translate(0.000000, 713.000000)">
                        <path d="M25,48.4375 C12.0557617,48.4375 1.5625,37.9439453 1.5625,25 C1.5625,12.05625 12.0557617,1.5625 25,1.5625 C37.9442383,1.5625 48.4375,12.05625 48.4375,25 C48.4375,37.9439453 37.9442383,48.4375 25,48.4375 M25,0 C11.1927734,0 0,11.1932617 0,25 C0,38.8068359 11.1927734,50 25,50 C38.8071289,50 50,38.8068359 50,25 C50,11.1932617 38.8071289,0 25,0" id="Fill-1"></path>
                        <path d="M23.1572398,30.1625532 L23.1570484,30.1625532 C22.2645479,30.1623617 21.4211627,29.809734 20.782281,29.1693936 C19.6205559,28.0057128 19.3304598,26.1755532 19.9867664,24.1485426 C20.5186094,22.5067128 21.4283433,21.382383 22.7677642,20.7109255 C23.6804661,20.2559468 24.774502,20.0257766 26.0212453,20.0257766 C26.7028277,20.0257766 27.8379367,20.1775319 27.8859031,20.1839468 L28.8588262,20.3149255 L28.7034381,21.2843404 C28.6909917,21.3627553 28.3900768,23.2253723 27.8683824,25.3034149 C27.2698077,27.6942553 25.9032921,29.4489681 24.2128835,29.9965319 C23.863332,30.1073085 23.5100466,30.1625532 23.1572398,30.1625532 M25.0100256,10.6382979 C17.0853261,10.6382979 10.6382979,17.0802872 10.6382979,24.9984681 C10.6382979,32.9183723 17.0853261,39.3617021 25.0100256,39.3617021 C27.6839846,39.3617021 30.2982011,38.6192021 32.5696636,37.2144362 C32.7758904,37.0869043 32.9196938,36.8873723 32.9749366,36.6522234 C33.0300836,36.417266 32.9903509,36.1750319 32.8629192,35.9699468 C32.6947017,35.6977447 32.4052758,35.5365106 32.0872231,35.5365106 C31.921112,35.5365106 31.7584475,35.5831383 31.6164631,35.6715106 C29.6346181,36.898766 27.3508049,37.5469574 25.0100256,37.5469574 C18.0859185,37.5469574 12.4528829,31.9175532 12.4528829,24.9984681 C12.4528829,18.0809149 18.0859185,12.4528511 25.0100256,12.4528511 C29.1965058,12.4528511 33.09356,14.5274468 35.4349137,18.002117 C36.594341,19.7259043 37.3112519,21.7264894 37.5086705,23.7881596 C37.5555837,24.2772234 37.6596545,26.0147021 37.0376232,27.8478298 C36.4555161,29.5639574 34.7923938,30.7959043 33.1325268,30.7214149 C32.0961271,30.6844574 31.342643,30.3196702 30.8288951,29.6062766 C29.1790809,27.2910745 30.3223279,21.9113723 30.9017543,20.0336277 C31.045079,19.5679255 30.7968218,19.0746489 30.3361146,18.9116915 C30.1383131,18.8430426 28.2944312,18.2242447 26.0296706,18.2242447 C24.4916822,18.2242447 23.1294749,18.511766 21.9810579,19.0785745 C20.1961527,19.9593298 18.9448138,21.476883 18.2615081,23.5892021 C17.3995491,26.2482234 17.8619796,28.8131277 19.4984858,30.4508404 C20.4801214,31.4334681 21.7803841,31.9745213 23.1596334,31.9745213 C23.7035398,31.9745213 24.2440952,31.8889255 24.7664598,31.7201277 C25.7723179,31.3974681 26.6777435,30.7937979 27.4590883,29.9249149 L28.3724604,28.9092553 L29.0155548,30.1142021 C29.1157002,30.3019574 29.2264729,30.481383 29.3446176,30.6475957 C30.1833115,31.8254468 31.4734256,32.478234 33.0754649,32.5345319 C33.137984,32.5368298 33.198684,32.5379787 33.2592882,32.5379787 C35.6378853,32.5379787 37.9503251,30.8089255 38.7576158,28.4267979 C39.4733779,26.3084468 39.386349,24.3555426 39.3155962,23.6141915 C39.0884021,21.2513085 38.2671331,18.9609043 36.9406373,16.9912447 C34.2596892,13.0132447 29.7996761,10.6382979 25.0100256,10.6382979" id="Fill-3"></path>
                    </g>
                </g>
            </g>
        </g>
    </g>
</svg>