<?xml version="1.0" encoding="UTF-8"?>
<svg width="50px" height="50px" viewBox="0 0 50 50" version="1.1" xmlns="http://www.w3.org/2000/svg" xmlns:xlink="http://www.w3.org/1999/xlink">
    <!-- Generator: Sketch 55.1 (78136) - https://sketchapp.com -->
    <title>283_b</title>
    <desc>Created with Sketch.</desc>
    <g id="SCALEWORK-WEBSITE-WIP" stroke="none" stroke-width="1" fill="none" fill-rule="evenodd">
        <g id="SCALEWORK-Desktop-Company" transform="translate(-212.000000, -2705.000000)" fill="#DF265E" fill-rule="nonzero">
            <g id="03-Team" transform="translate(144.000000, 1992.000000)">
                <g id="Group-3">
                    <g id="283_b" transform="translate(68.000000, 713.000000)">
                        <path d="M25,0 C11.1926758,0 0,11.1932617 0,25 C0,38.8069336 11.1926758,50 25,50 C38.8071289,50 50,38.8069336 50,25 C50,11.1932617 38.8071289,0 25,0 Z M25,48.4375 C12.0557617,48.4375 1.5625,37.9438477 1.5625,25 C1.5625,12.0561523 12.0557617,1.5625 25,1.5625 C37.9442383,1.5625 48.4375,12.0561523 48.4375,25 C48.4375,37.9438477 37.9442383,48.4375 25,48.4375 Z" id="Shape"></path>
                        <g id="Group" transform="translate(11.347518, 9.929078)">
                            <path d="M25.3103417,9.98162234 C24.0855052,8.72569149 22.3481904,8.06169326 20.2855481,8.06169326 C18.28733,8.06169326 16.8561028,8.82164894 15.9111178,9.60656915 L15.9111178,9.36599291 C15.9111178,8.93515957 15.5630524,8.58585106 15.1337523,8.58585106 L10.0586242,8.58585106 C9.6293241,8.58585106 9.28125868,8.93515957 9.28125868,9.36599291 L9.28125868,26.5222872 C9.28125868,26.9531206 9.6293241,27.3024291 10.0586242,27.3024291 L15.1337523,27.3024291 C15.5630524,27.3024291 15.9111178,26.9531206 15.9111178,26.5222872 L15.9111178,17.5158422 C15.9111178,15.4795745 16.7344451,14.4468617 18.3580702,14.4468617 C18.9335151,14.4468617 20.4616214,14.4468617 20.4616214,17.5158422 L20.4616214,26.5222872 C20.4616214,26.9531206 20.8096868,27.3024291 21.2389869,27.3024291 L26.5047639,27.3024291 C26.934064,27.3024291 27.2821294,26.9531206 27.2821294,26.5222872 L27.2821294,15.6576418 C27.2821294,13.2673848 26.6000883,11.3046454 25.3103417,9.98162234 Z M25.7275927,25.7422429 L22.0164496,25.7422429 L22.0164496,17.5159397 C22.0164496,13.4881649 19.7243873,12.8866755 18.3581674,12.8866755 C15.8524267,12.8866755 14.3564839,14.6172252 14.3564839,17.5159397 L14.3564839,25.7422429 L10.8360869,25.7422429 L10.8360869,10.1462323 L14.3564839,10.1462323 L14.3564839,11.676773 C14.3564839,12.0325177 14.5973701,12.3412589 14.9404798,12.4302926 C15.2837839,12.5190337 15.6441899,12.3621277 15.8159877,12.0510461 C15.8705977,11.951773 17.1919247,9.62207447 20.2856452,9.62207447 C23.7439502,9.62207447 25.7275927,11.821977 25.7275927,15.6577394 L25.7275927,25.7422429 L25.7275927,25.7422429 Z" id="Shape"></path>
                            <path d="M6.67514071,8.58594858 L1.38332198,8.58594858 C0.954021857,8.58594858 0.605956437,8.93525709 0.605956437,9.36609043 L0.605956437,26.5223848 C0.605956437,26.9532181 0.954021857,27.3025266 1.38332198,27.3025266 L6.67514071,27.3025266 C7.10444083,27.3025266 7.45250625,26.9532181 7.45250625,26.5223848 L7.45250625,9.36609043 C7.45250625,8.93525709 7.10444083,8.58594858 6.67514071,8.58594858 Z M5.89777517,25.7422429 L2.16068751,25.7422429 L2.16068751,10.1462323 L5.89777517,10.1462323 L5.89777517,25.7422429 Z" id="Shape"></path>
                            <path d="M4.00333535,0.00780141844 C1.84925545,0.00780141844 0.0967820095,1.77833333 0.0967820095,3.95444149 C0.0967820095,6.12937943 1.84925545,7.89874113 4.00333535,7.89874113 C6.15741526,7.89874113 7.90969435,6.12928191 7.90969435,3.95444149 C7.90969435,1.77833333 6.15741526,0.00780141844 4.00333535,0.00780141844 Z M4.00333535,6.33845745 C2.70668963,6.33845745 1.65151309,5.2689805 1.65151309,3.95444149 C1.65151309,2.63853723 2.70668963,1.56808511 4.00333535,1.56808511 C5.29998107,1.56808511 6.35496328,2.63853723 6.35496328,3.95444149 C6.35496328,5.2689805 5.29998107,6.33845745 4.00333535,6.33845745 Z" id="Shape"></path>
                        </g>
                    </g>
                </g>
            </g>
        </g>
    </g>
</svg>