<?xml version="1.0" encoding="UTF-8"?>
<svg width="980px" height="726px" viewBox="0 0 980 726" version="1.1" xmlns="http://www.w3.org/2000/svg" xmlns:xlink="http://www.w3.org/1999/xlink">
    <!-- Generator: Sketch 55.1 (78136) - https://sketchapp.com -->
    <title>Diagram-Light</title>
    <desc>Created with Sketch.</desc>
    <g id="SCALEWORK-WEBSITE-WIP" stroke="none" stroke-width="1" fill="none" fill-rule="evenodd">
        <g id="SCALEWORK-Desktop-How-it-works" transform="translate(-270.000000, -10185.000000)">
            <g id="10-Tech-description" transform="translate(-1.000000, 9636.000000)">
                <g id="Diagram-Light" transform="translate(271.000000, 550.000000)">
                    <rect id="Rectangle" stroke="#DF265E" x="0.5" y="156.5" width="979" height="481"></rect>
                    <rect id="Rectangle" stroke="#0097A7" x="53.5" y="195.5" width="892" height="406"></rect>
                    <rect id="Rectangle" fill-opacity="0.298076923" fill="#E3E3E3" x="93" y="239" width="825" height="335"></rect>
                    <rect id="Rectangle" fill="#01BCD4" x="93" y="239" width="40" height="40"></rect>
                    <rect id="Rectangle-Copy" fill="#0097A7" x="49" y="195" width="40" height="40"></rect>
                    <rect id="Rectangle-Copy-2" fill="#DF265E" x="0" y="156" width="40" height="40"></rect>
                    <text id="AWS-CLOUD-(GDPR-Comp" font-family="WorkSans-Bold, Work Sans" font-size="16.90625" font-weight="bold" letter-spacing="0.5" fill="#FFFFFF">
                        <tspan x="49" y="184">AWS CLOUD</tspan>
                        <tspan x="154.514844" y="184" font-family="WorkSans-Regular, Work Sans" font-weight="normal"> (GDPR Compliant)</tspan>
                    </text>
                    <text id="VIRTUAL-PRIVATE-CLOU" font-family="WorkSans-Bold, Work Sans" font-size="16.90625" font-weight="bold" letter-spacing="0.5" fill="#FFFFFF">
                        <tspan x="93" y="222">VIRTUAL PRIVATE CLOUD</tspan>
                        <tspan x="313.81375" y="222" font-family="WorkSans-Regular, Work Sans" font-weight="normal"> Client 1</tspan>
                    </text>
                    <text id="Client-1-Subnet" font-family="WorkSans-Bold, Work Sans" font-size="16.90625" font-weight="bold" letter-spacing="0.5" fill="#FFFFFF">
                        <tspan x="141" y="268">Client 1</tspan>
                        <tspan x="206.707812" y="268" font-family="WorkSans-Regular, Work Sans" font-weight="normal"> Subnet</tspan>
                    </text>
                    <text id="Machine-Learning-Too" font-family="WorkSans-Regular, Work Sans" font-size="16.90625" font-weight="normal" line-spacing="20" letter-spacing="0.5" fill="#FFFFFF">
                        <tspan x="327.345391" y="532">Machine Learning </tspan>
                        <tspan x="381.253703" y="552">Tools</tspan>
                    </text>
                    <text id="Configurable-Next-Ge" font-family="WorkSans-Regular, Work Sans" font-size="16.90625" font-weight="normal" line-spacing="20" letter-spacing="0.5" fill="#FFFFFF">
                        <tspan x="114.314516" y="532"> Configurable Next </tspan>
                        <tspan x="110.455031" y="552">Generation Firewall</tspan>
                    </text>
                    <text id="Computing-Resources" font-family="WorkSans-Regular, Work Sans" font-size="16.90625" font-weight="normal" line-spacing="20" letter-spacing="0.5" fill="#FFFFFF">
                        <tspan x="524.534234" y="532">Computing </tspan>
                        <tspan x="527.087078" y="552">Resources</tspan>
                    </text>
                    <text id="Encrypted-Read-Only" font-family="WorkSans-Regular, Work Sans" font-size="16.90625" font-weight="normal" line-spacing="20" letter-spacing="0.5" fill="#FFFFFF">
                        <tspan x="688.394141" y="534">Encrypted Read Only </tspan>
                        <tspan x="679.402344" y="554">Project Storage Bucket </tspan>
                    </text>
                    <text id="Virtual-Desktop" font-family="WorkSans-Medium, Work Sans Medium" font-size="14.7929688" font-weight="normal" line-spacing="20" letter-spacing="0.25" fill="#FFFFFF">
                        <tspan x="660.800771" y="386">Virtual Desktop</tspan>
                    </text>
                    <rect id="Rectangle-Copy-4" fill="#212121" x="535" y="187" width="71" height="17"></rect>
                    <rect id="Rectangle-Copy-5" fill="#212121" x="683" y="187" width="71" height="17"></rect>
                    <text id="Secure-Video-Stream" font-family="WorkSans-Medium, Work Sans Medium" font-size="14.7929688" font-weight="normal" line-spacing="20" letter-spacing="0.25" fill="#FFFFFF">
                        <tspan x="693.175918" y="202">Secure </tspan>
                        <tspan x="668.379947" y="222">Video Stream</tspan>
                    </text>
                    <text id="Remote-Data-Scientis" font-family="WorkSans-Medium, Work Sans Medium" font-size="14.7929688" font-weight="normal" line-spacing="20" letter-spacing="0.25" fill="#FFFFFF">
                        <tspan x="690.202531" y="79">Remote</tspan>
                        <tspan x="659.233457" y="99">Data Scientist 2</tspan>
                    </text>
                    <text id="Virtual-Desktop-Copy" font-family="WorkSans-Medium, Work Sans Medium" font-size="14.7929688" font-weight="normal" line-spacing="20" letter-spacing="0.25" fill="#FFFFFF">
                        <tspan x="511.800771" y="386">Virtual Desktop</tspan>
                    </text>
                    <text id="Secure-Video-Stream" font-family="WorkSans-Medium, Work Sans Medium" font-size="14.7929688" font-weight="normal" line-spacing="20" letter-spacing="0.25" fill="#FFFFFF">
                        <tspan x="544.175918" y="202">Secure</tspan>
                        <tspan x="519.379947" y="222">Video Stream</tspan>
                    </text>
                    <text id="Remote-Data-Scientis" font-family="WorkSans-Medium, Work Sans Medium" font-size="14.7929688" font-weight="normal" line-spacing="20" letter-spacing="0.25" fill="#FFFFFF">
                        <tspan x="541.202531" y="79">Remote</tspan>
                        <tspan x="511.601807" y="99">Data Scientist 1</tspan>
                    </text>
                    <g id="virtual-cloud" transform="translate(55.000000, 203.956522)" stroke="#FFFFFF">
                        <path d="M17.6086957,17.0434783 L22.3043478,17.0434783 C24.8975217,17.0434783 27,14.8686925 27,12.1863354 C27,9.50337112 24.8975217,7.32919255 22.3043478,7.32919255 C22.1018478,7.32919255 21.9034565,7.34679969 21.707413,7.37229969 C21.7109348,7.30794255 21.7173913,7.24297826 21.7173913,7.17740683 C21.7173913,5.24912112 20.2065652,3.6863354 18.3423913,3.6863354 C17.8757609,3.6863354 17.4308478,3.7840854 17.0264348,3.96137112 C16.010413,1.65179969 13.7653043,0.0434782609 11.1521739,0.0434782609 C7.58641304,0.0434782609 4.69565217,3.03365683 4.69565217,6.72204969 C4.69565217,6.92787112 4.70797826,7.13004969 4.72558696,7.33040683 C4.71502174,7.33040683 4.70621739,7.32919255 4.69565217,7.32919255 C2.10247826,7.32919255 0,9.50397826 0,12.1863354 C0,14.8686925 2.10247826,17.0434783 4.69565217,17.0434783 L8.80434783,17.0434783" id="Stroke-1"></path>
                        <path d="M16,6.04347826 C16.2184526,5.19542172 16.5709557,4.45965415 17,4.04347826" id="Stroke-3"></path>
                        <path d="M5,7.25247826 C5.70776408,7.25247826 6.38220593,7.45947826 7,7.83447826" id="Stroke-5"></path>
                        <path d="M10.5,11.0434783 L10.5,22.0434783" id="Stroke-7"></path>
                        <path d="M15.5,12.0434783 L15.5,22.0434783" id="Stroke-9"></path>
                        <polyline id="Stroke-11" points="8 13.0434783 10.5 11.0434783 13 13.0434783"></polyline>
                        <polyline id="Stroke-13" points="13 20.0434783 15.5 22.0434783 18 20.0434783"></polyline>
                    </g>
                    <g id="aws-cloud" transform="translate(7.000000, 165.000000)">
                        <path d="M17.6086957,17.0434783 L22.3043478,17.0434783 C24.8975217,17.0434783 27,14.8686925 27,12.1863354 C27,9.50337112 24.8975217,7.32919255 22.3043478,7.32919255 C22.1018478,7.32919255 21.9034565,7.34679969 21.707413,7.37229969 C21.7109348,7.30794255 21.7173913,7.24297826 21.7173913,7.17740683 C21.7173913,5.24912112 20.2065652,3.6863354 18.3423913,3.6863354 C17.8757609,3.6863354 17.4308478,3.7840854 17.0264348,3.96137112 C16.010413,1.65179969 13.7653043,0.0434782609 11.1521739,0.0434782609 C7.58641304,0.0434782609 4.69565217,3.03365683 4.69565217,6.72204969 C4.69565217,6.92787112 4.70797826,7.13004969 4.72558696,7.33040683 C4.71502174,7.33040683 4.70621739,7.32919255 4.69565217,7.32919255 C2.10247826,7.32919255 0,9.50397826 0,12.1863354 C0,14.8686925 2.10247826,17.0434783 4.69565217,17.0434783 L8.80434783,17.0434783" id="Stroke-1" stroke="#FFFFFF"></path>
                        <path d="M16,6.04347826 C16.2184526,5.19542172 16.5709557,4.45965415 17,4.04347826" id="Stroke-3" stroke="#FFFFFF"></path>
                        <path d="M5,7.25247826 C5.70776408,7.25247826 6.38220593,7.45947826 7,7.83447826" id="Stroke-5" stroke="#FFFFFF"></path>
                        <text id="a" font-family="WorkSans-Regular, Work Sans" font-size="12.90625" font-weight="normal" letter-spacing="0.381700555" fill="#FFFFFF">
                            <tspan x="9.15668097" y="19">a</tspan>
                        </text>
                    </g>
                    <g id="Encrypted" transform="translate(766.000000, 458.000000)" stroke="#01BCD4" stroke-width="2">
                        <path d="M38,41 C38,41.553 37.553,42 37,42 L20,42 C19.447,42 19,41.553 19,41 L19,29 C19,28.447 19.447,28 20,28 L37,28 C37.553,28 38,28.447 38,29 L38,41 Z" id="Stroke-1"></path>
                        <path d="M23,22.5 C23,19.463 25.463,17 28.5,17 C31.537,17 34,19.463 34,22.5 L34,28 L23,28 L23,22.5 Z" id="Stroke-3"></path>
                        <path d="M32,14 L32,6 C32,2.687 24.837,0 16,0 C7.163,0 0,2.687 0,6 L0,16 C0,19.313 7.163,22 16,22 C17.381,22 18.722,21.935 20,21.811" id="Stroke-5"></path>
                        <path d="M0,6 C0,9.313 7.163,12 16,12 C24.837,12 32,9.313 32,6" id="Stroke-7"></path>
                        <path d="M0,17 L0,26 C0,29.313 7.163,32 16,32" id="Stroke-9"></path>
                        <path d="M0,27 L0,36 C0,39.313 7.163,42 16,42" id="Stroke-11"></path>
                    </g>
                    <g id="machine-learning" transform="translate(379.000000, 461.000000)" stroke="#01BCD4" stroke-linejoin="round" stroke-width="2">
                        <path d="M21.9795,6 C21.9795,4.009 22.1565,0 16.9795,0 C12.8545,0 9.1045,4.406 8.9795,7 C5.8695,7.414 2.9155,10.453 3.3265,14.334 C0.3695,15.782 -1.7745,23.518 2.0835,27.187 C1.3815,30.342 3.5385,37.569 9.9795,37 C11.5465,45.427 21.9795,45.175 21.9795,39 L21.9795,34" id="Stroke-1"></path>
                        <path d="M15.9795,13 C12.3425,13 8.9795,12.434 8.9795,7" id="Stroke-3"></path>
                        <path d="M9.335,19.877 C11.019,20.98 13.868,20.543 15.398,18.935 C16.528,17.747 17.735,15.863 18.98,16 L21.98,16 L34.98,16" id="Stroke-5"></path>
                        <path d="M16.9795,34.167 C17.7145,32.447 19.4795,32 21.9795,32 L34.9795,32" id="Stroke-7"></path>
                        <path d="M11.4375,31.3418 C9.7615,31.0778 8.2835,29.4988 8.2835,28.1868" id="Stroke-9"></path>
                        <path d="M9.9795,37 C9.9795,33.155 12.1615,28.187 17.7475,28.187" id="Stroke-11"></path>
                        <path d="M6.1797,16.9024 C7.9217,16.9024 9.3347,18.1344 9.3347,19.8774 C9.3347,21.2514 8.4567,22.5984 7.2317,23.0324" id="Stroke-13"></path>
                        <path d="M27.9795,8 L21.9795,8 C19.2605,8 16.5855,7.585 15.6445,5.258" id="Stroke-15"></path>
                        <path d="M21.9795,10 L21.9795,16" id="Stroke-17"></path>
                        <path d="M21.9795,19 L21.9795,30" id="Stroke-19"></path>
                        <path d="M21.9795,24 L27.9795,24" id="Stroke-21"></path>
                        <path d="M23.9795,40 L27.9795,40" id="Stroke-23"></path>
                        <path d="M40.9795,16 C40.9795,17.657 39.6365,19 37.9795,19 C36.3225,19 34.9795,17.657 34.9795,16 C34.9795,14.343 36.3225,13 37.9795,13 C39.6365,13 40.9795,14.343 40.9795,16 Z" id="Stroke-25"></path>
                        <path d="M33.9795,8 C33.9795,9.657 32.6365,11 30.9795,11 C29.3225,11 27.9795,9.657 27.9795,8 C27.9795,6.343 29.3225,5 30.9795,5 C32.6365,5 33.9795,6.343 33.9795,8 Z" id="Stroke-27"></path>
                        <path d="M33.9795,24 C33.9795,25.657 32.6365,27 30.9795,27 C29.3225,27 27.9795,25.657 27.9795,24 C27.9795,22.343 29.3225,21 30.9795,21 C32.6365,21 33.9795,22.343 33.9795,24 Z" id="Stroke-29"></path>
                        <path d="M33.9795,40 C33.9795,41.657 32.6365,43 30.9795,43 C29.3225,43 27.9795,41.657 27.9795,40 C27.9795,38.343 29.3225,37 30.9795,37 C32.6365,37 33.9795,38.343 33.9795,40 Z" id="Stroke-31"></path>
                        <path d="M40.9795,32 C40.9795,33.657 39.6365,35 37.9795,35 C36.3225,35 34.9795,33.657 34.9795,32 C34.9795,30.343 36.3225,29 37.9795,29 C39.6365,29 40.9795,30.343 40.9795,32 Z" id="Stroke-33"></path>
                    </g>
                    <path d="M564,491 L576,491 L576,479 L564,479 L564,491 Z M581,474 L581,479 L583,481 L583,489 L581,491 L581,496 L559,496 L559,491 L557,489 L557,481 L559,479 L559,474 L581,474 Z M591,470 L594,470 L591,470 Z M591,475 L594,475 L591,475 Z M591,480 L594,480 L591,480 Z M591,485 L594,485 L591,485 Z M594,490 L591,490 L594,490 Z M594,495 L591,495 L594,495 Z M594,500 L591,500 L594,500 Z M549,470 L546,470 L549,470 Z M549,475 L546,475 L549,475 Z M549,480 L546,480 L549,480 Z M546,485 L549,485 L546,485 Z M546,490 L549,490 L546,490 Z M546,495 L549,495 L546,495 Z M585,506 L585,509 L585,506 Z M580,506 L580,509 L580,506 Z M575,506 L575,509 L575,506 Z M570,506 L570,509 L570,506 Z M565,506 L565,509 L565,506 Z M560,506 L560,509 L560,506 Z M585,464 L585,461 L585,464 Z M580,464 L580,461 L580,464 Z M575,464 L575,461 L575,464 Z M570,464 L570,461 L570,464 Z M565,464 L565,461 L565,464 Z M560,464 L560,461 L560,464 Z M555,464 L555,461 L555,464 Z M549,499 L549,464 L591,464 L591,506 L556,506 L549,499 Z" id="Computing-resources" stroke="#01BCD4" stroke-width="2" stroke-linejoin="round"></path>
                    <path d="M730,351 L739,351 L739,342 M708,311 L699,311 L699,320 M714,349 L724,349 C725.104,349 726,348.104 726,347 L726,345 M708,349 L714,349 M717,354 L718,354 M726,330 L726,335 M705,354 C706.657,354 708,352.657 708,351 L708,349 M726,345 L696,345 M712,327 L698,327 C696.896,327 696,327.896 696,329 L696,345 M705,354 L704,354 M696,345 L696,347 C696,348.104 696.896,349 698,349 L708,349 M717,354 L705,354 M714,349 L714,351 C714,352.657 715.343,354 717,354 M742,326 L742,310 C742,308.896 741.104,308 740,308 L714,308 C712.896,308 712,308.896 712,310 L712,326 M712,327 L712,326 M726,345 L726,335 M726,330 L726,329 C726,327.896 725.104,327 724,327 L712,327 M730,330 L730,332 C730,333.657 731.343,335 733,335 M730,330 L740,330 C741.104,330 742,329.104 742,328 L742,326 M712,326 L742,326 M733,335 L726,335 M734,335 L733,335 M726,330 L730,330" id="virtual-desktop" stroke="#BA68C8" stroke-width="2" stroke-linejoin="round"></path>
                    <path d="M576,351 L585,351 L585,342 M554,311 L545,311 L545,320 M560,349 L570,349 C571.104,349 572,348.104 572,347 L572,345 M554,349 L560,349 M563,354 L564,354 M572,330 L572,335 M551,354 C552.657,354 554,352.657 554,351 L554,349 M572,345 L542,345 M558,327 L544,327 C542.896,327 542,327.896 542,329 L542,345 M551,354 L550,354 M542,345 L542,347 C542,348.104 542.896,349 544,349 L554,349 M563,354 L551,354 M560,349 L560,351 C560,352.657 561.343,354 563,354 M588,326 L588,310 C588,308.896 587.104,308 586,308 L560,308 C558.896,308 558,308.896 558,310 L558,326 M558,327 L558,326 M572,345 L572,335 M572,330 L572,329 C572,327.896 571.104,327 570,327 L558,327 M576,330 L576,332 C576,333.657 577.343,335 579,335 M576,330 L586,330 C587.104,330 588,329.104 588,328 L588,326 M558,326 L588,326 M579,335 L572,335 M580,335 L579,335 M572,330 L576,330" id="virtual-desktop-2" stroke="#BA68C8" stroke-width="2" stroke-linejoin="round"></path>
                    <rect id="Rectangle" fill="#212121" x="542" y="148" width="57" height="17"></rect>
                    <rect id="Rectangle-Copy-3" fill="#212121" x="690" y="148" width="57" height="17"></rect>
                    <g id="secure" transform="translate(703.000000, 133.000000)" stroke="#DF265E" stroke-linejoin="round" stroke-width="2">
                        <path d="M16,40.7355 C14.525,40.7355 4,30.8495 4,22.7355 L4,13.7355 C8,13.7355 14,9.7355 15.998,6.2655 C18,9.7355 24,13.7355 28,13.7355 L28,22.7355 C28,30.8495 17.475,40.7355 16,40.7355 Z" id="Stroke-1"></path>
                        <polyline id="Stroke-3" points="8 22.7355 14 28.7355 24 18.7355"></polyline>
                        <path d="M32,22.7355 C32,33.7355 18,45.7355 16,45.7355 C14,45.7355 0,33.7355 0,22.7355 L0,10.7355 C4,10.7355 12,5.7355 16,0.0005 C20,5.7355 28,10.7355 32,10.7355 L32,22.7355 Z" id="Stroke-5"></path>
                    </g>
                    <g id="secure-2" transform="translate(554.000000, 133.000000)" stroke="#DF265E" stroke-linejoin="round" stroke-width="2">
                        <path d="M16,40.7355 C14.525,40.7355 4,30.8495 4,22.7355 L4,13.7355 C8,13.7355 14,9.7355 15.998,6.2655 C18,9.7355 24,13.7355 28,13.7355 L28,22.7355 C28,30.8495 17.475,40.7355 16,40.7355 Z" id="Stroke-1"></path>
                        <polyline id="Stroke-3" points="8 22.7355 14 28.7355 24 18.7355"></polyline>
                        <path d="M32,22.7355 C32,33.7355 18,45.7355 16,45.7355 C14,45.7355 0,33.7355 0,22.7355 L0,10.7355 C4,10.7355 12,5.7355 16,0.0005 C20,5.7355 28,10.7355 32,10.7355 L32,22.7355 Z" id="Stroke-5"></path>
                    </g>
                    <g id="lock" transform="translate(104.000000, 247.000000)" stroke="#FFFFFF">
                        <path d="M19,24 C19,24.553 18.553,25 18,25 L1,25 C0.447,25 0,24.553 0,24 L0,12 C0,11.447 0.447,11 1,11 L18,11 C18.553,11 19,11.447 19,12 L19,24 Z" id="Stroke-1"></path>
                        <path d="M4,5.5 C4,2.463 6.463,0 9.5,0 C12.537,0 15,2.463 15,5.5 L15,11 L4,11 L4,5.5 Z" id="Stroke-3"></path>
                    </g>
                    <g id="RDS-2" transform="translate(550.000000, 0.000000)" stroke="#979797" stroke-width="2">
                        <path d="M14,29.9997 L14,34.9997 C14,36.6247 12.6,37.3677 10.98,37.7887 L4.991,39.3577 C2.292,40.0587 0.051,42.0237 0,43.9997 L0,46.9997" id="Stroke-1"></path>
                        <path d="M26,29.9997 L26,34.9997 C26,36.6247 27.4,37.3677 29.02,37.7887 L35.009,39.3577 C37.708,40.0587 39.949,42.0237 40,43.9997 L40,46.9997" id="Stroke-3"></path>
                        <path d="M6,36.9997 L6,13.9997 C6,6.2687 12.268,-0.0003 20,-0.0003 C27.732,-0.0003 34,6.2687 34,13.9997 L34,36.9997" id="Stroke-5"></path>
                        <path d="M15,9.9997 C13.5,11.3747 10,14.6867 10,17.9997 L10,24.9997 C10,28.8747 15.125,30.5617 16,30.9997 C16.875,31.4367 18.375,31.9997 20,31.9997 C21.625,31.9997 23.125,31.4367 24,30.9997 C24.875,30.5617 30,28.8747 30,24.9997 L30,16.9997 C30,16.9997 27.125,12.9997 22,12.9997 C16.875,12.9997 14,10.2497 14,6.9997" id="Stroke-7"></path>
                    </g>
                    <g id="RDS-1" transform="translate(699.000000, 0.000000)" stroke="#979797" stroke-width="2">
                        <path d="M14,30.9997 L14,35.9997 C14,37.6247 12.6,38.3677 10.98,38.7887 L4.991,40.3577 C2.292,41.0587 0.051,44.0237 0,45.9997 L0,46.9997" id="Stroke-1"></path>
                        <path d="M26,30.9997 L26,35.9997 C26,37.6247 27.4,38.3677 29.02,38.7887 L35.009,40.3577 C37.708,41.0587 39.949,43.0237 40,44.9997 L40,46.9997" id="Stroke-3"></path>
                        <path d="M33,13.9997 L33,7.9997 C33,1.2687 31.18,-0.0003 24,-0.0003 L6,-0.0003 L6,4.9997 C6,7.3127 7.813,9.9997 12,9.9997 L26,9.9997 C28.958,9.9997 30,12.6667 30,14.9997 L30,15.9997 L33,15.9997 L33,19.9297 C33,20.5987 32.666,21.2227 32.109,21.5937 L30,22.9997 L30,25.9997 C30,29.8747 24.875,31.5617 24,31.9997 C23.125,32.4367 21.625,32.9997 20,32.9997 C18.375,32.9997 16.875,32.4367 16,31.9997 C15.125,31.5617 10,29.8747 10,25.9997 L10,22.9997 L7.891,21.5937 C7.334,21.2227 7,20.5987 7,19.9297 L7,15.9997 L10,15.9997 L10,13.9997 C10,12.2357 10.75,10.9587 12,9.9997" id="Stroke-5"></path>
                        <path d="M7,7.9997 C6.542,8.4587 6,9.1667 6,10.9997 L6,12.9997 C6,14.6867 7.125,15.6557 8,15.9997" id="Stroke-7"></path>
                        <path d="M30,15.9997 L30,17.9997" id="Stroke-9"></path>
                        <path d="M10,15.9997 L10,17.9997" id="Stroke-11"></path>
                    </g>
                    <g id="Firewall" transform="translate(170.000000, 455.000000)" fill="#01BCD4">
                        <path d="M40.4272268,40.4704178 L48.7985876,40.4704178 L48.7985876,34.5301179 L40.4272268,34.5301179 L40.4272268,40.4704178 Z M33.9207835,48.7570533 L48.7985876,48.7570533 L48.7985876,42.7647911 L33.9207835,42.7647911 L33.9207835,48.7570533 Z M19.2811546,48.7570533 L31.7188454,48.7570533 L31.7188454,42.7647911 L19.2811546,42.7647911 L19.2811546,48.7570533 Z M2.20141237,48.7570533 L17.0792165,48.7570533 L17.0792165,42.7647911 L2.20141237,42.7647911 L2.20141237,48.7570533 Z M2.20141237,40.4698821 L10.5727732,40.4698821 L10.5727732,34.5295822 L2.20141237,34.5295822 L2.20141237,40.4698821 Z M49.8990309,24 L43.275866,24 C42.6685979,24 42.1748969,24.5035514 42.1748969,25.1217412 C42.1748969,25.739931 42.6685979,26.2434824 43.275866,26.2434824 L48.7985876,26.2434824 L48.7985876,32.2866355 L39.6180619,32.2737788 C39.3204742,32.2062815 39.0123711,32.2619936 38.7542165,32.4296655 C38.4960619,32.5978731 38.3178247,32.8582199 38.2515773,33.1630292 C38.2363299,33.2326693 38.2273918,33.3039165 38.2247629,33.3756994 L38.2252887,40.4704178 L12.7747113,40.4704178 L12.7747113,33.3564144 C12.754732,32.7441173 12.2452577,32.2459228 11.6316804,32.2459228 C11.6190619,32.2459228 11.6059175,32.2464585 11.5938247,32.2469942 C11.5223196,32.2491369 11.4523918,32.2582437 11.3829897,32.2737788 L11.2688969,32.2866355 L2.20141237,32.2866355 L2.20141237,26.2434824 L7.72781443,26.2434824 C8.3345567,26.2434824 8.82825773,25.739931 8.82825773,25.1217412 C8.82825773,24.5035514 8.3345567,24 7.72781443,24 L1.10096907,24 C0.493701031,24 0,24.5035514 0,25.1217412 L0,49.8782588 C0,50.4969842 0.493701031,51 1.10096907,51 L49.8990309,51 C50.506299,51 51,50.4969842 51,49.8782588 L51,25.1217412 C51,24.5035514 50.506299,24 49.8990309,24 L49.8990309,24 Z" id="Fill-1"></path>
                        <path d="M12,23.8644927 C12.0093876,31.645786 18.2901952,37.9873663 26,38 C33.7071971,37.9873663 39.9880048,31.648418 40,23.8687039 C40,20.8529395 37.9138727,16.8754364 35.8960662,13.0284812 L35.7719416,12.7900205 C34.1327671,9.64528731 33.0584116,7.49966753 33.0584116,6.37369092 C33.0584116,6.07943148 32.9447176,5.80254336 32.7387126,5.59408766 C32.532186,5.38615836 32.2583818,5.27192885 31.9668455,5.27192885 L31.9663239,5.27192885 C31.6977351,5.27192885 31.4385338,5.37141907 31.2382655,5.5525018 C31.1104902,5.66883693 30.8439875,5.91098243 29.1735211,9.16889234 L28.6253911,10.2390702 L28.2201609,9.10625035 C27.3017434,6.54056076 26.6164506,3.87590735 26.1835792,1.18651299 L26.1773208,1.10228847 C26.1773208,0.49429268 25.6870809,0 25.0852332,0 C24.8161228,0 24.557443,0.09949022 24.3566533,0.281099352 C24.1897631,0.43165069 23.9655044,0.670637779 23.6953509,0.984900537 L24.6461034,4.68340999 C25.2177023,6.90641104 26.1309045,9.8526902 27.3596334,13.4401286 L27.376844,13.4911897 C27.5223514,13.9065219 27.8994189,14.1949909 28.3380271,14.2223638 C28.7719416,14.2586857 29.1922962,14.0160137 29.3795262,13.6227905 C29.9474743,12.4731257 30.5550589,11.2671358 31.098495,10.2080124 L31.5856057,9.25785449 L32.0341231,10.2269629 C32.5613917,11.3650468 33.24512,12.6821078 33.9585755,14.0444395 C35.6765013,17.3049814 37.8158248,21.3640771 37.8158248,23.8644927 C37.8158248,30.4408489 32.5154969,35.7906854 26,35.7906854 C19.4845031,35.7906854 14.1836537,30.4408489 14.1836537,23.8644927 C14.1836537,18.9557821 20.2965281,9.23258713 23.6197288,4.64445614 L23.6197288,1.07333629 C22.2272389,2.7120297 19.7045895,6.21261151 17.4098495,10.0737796 C13.9213232,15.9421233 12,20.8397795 12,23.8644927" id="Fill-3"></path>
                        <path d="M22.1540036,28.0376998 L22.1754925,27.9044055 C22.6815042,26.2339181 23.5001279,24.6987524 24.6088514,23.3409747 L25.0063955,22.8539181 L25.4044513,23.3409747 C26.5131747,24.6982456 27.3307751,26.2339181 27.8357636,27.9049123 L27.8572525,28.037193 C27.8777181,28.7918519 27.599386,29.508499 27.0744436,30.0563743 C26.5500128,30.6037427 25.8413917,30.9159454 25.0800716,30.9352047 C25.0544896,30.9362183 25.0289076,30.9362183 25.0033257,30.9362183 C24.2701458,30.9362183 23.575339,30.6625341 23.041187,30.1597661 C22.4891277,29.6402729 22.1739575,28.9383236 22.1540036,28.1841715 C22.1529803,28.1350097 22.1529803,28.0863548 22.1540036,28.0376998 M25.0033257,33 L25.0058839,33 C27.7574827,32.9964522 29.9974418,30.7755556 30,28.0498635 C30,26.1644834 27.758506,22.7348148 25.8393451,20.371501 C25.624968,20.1267057 25.3169609,20 25.0043489,20 C24.7418777,20 24.4763367,20.0892008 24.2619596,20.2736842 C24.2225633,20.3076413 24.1841903,20.3451462 24.1483755,20.385692 C22.1499105,22.8701365 20,26.2009747 20,28.0503704 C20.0030698,30.780117 22.2476337,33 25.0033257,33" id="Fill-4"></path>
                    </g>
                    <path id="Path-2" d="M195,428.506013 L195,406.5 C195,405.947715 195.447715,405.5 196,405.5 L785,405.5 C785.552285,405.5 786,405.947715 786,406.5 C786,407.052285 785.552285,407.5 785,407.5 L197,407.5 L197,428.506013 L202.164702,428.506013 C202.294349,428.506013 202.422216,428.536198 202.538177,428.594178 C202.950706,428.800443 203.117916,429.302074 202.911652,429.714603 L196.746858,442.044189 C196.66605,442.205807 196.535001,442.336856 196.373383,442.417664 C195.960854,442.623929 195.459223,442.456718 195.252959,442.044189 L189.088165,429.714603 C189.030185,429.598643 189,429.470776 189,429.341128 C189,428.879907 189.373894,428.506013 189.835115,428.506013 L195,428.506013 Z" fill="#FFFFFF" fill-rule="nonzero"></path>
                    <path id="Line" d="M569,428.506013 L569,406.5 C569,405.947715 569.447715,405.5 570,405.5 C570.552285,405.5 571,405.947715 571,406.5 L571,428.506013 L576.164885,428.506013 C576.626106,428.506013 577,428.879907 577,429.341128 C577,429.470776 576.969815,429.598643 576.911835,429.714603 L570.747041,442.044189 C570.540777,442.456718 570.039146,442.623929 569.626617,442.417664 C569.464999,442.336856 569.33395,442.205807 569.253142,442.044189 L563.088348,429.714603 C562.882084,429.302074 563.049294,428.800443 563.461823,428.594178 C563.577784,428.536198 563.705651,428.506013 563.835298,428.506013 L569,428.506013 Z" fill="#FFFFFF" fill-rule="nonzero"></path>
                    <path id="Line-Copy-2" d="M397,428.506013 L397,406.5 C397,405.947715 397.447715,405.5 398,405.5 C398.552285,405.5 399,405.947715 399,406.5 L399,428.506013 L404.164885,428.506013 C404.626106,428.506013 405,428.879907 405,429.341128 C405,429.470776 404.969815,429.598643 404.911835,429.714603 L398.747041,442.044189 C398.540777,442.456718 398.039146,442.623929 397.626617,442.417664 C397.464999,442.336856 397.33395,442.205807 397.253142,442.044189 L391.088348,429.714603 C390.882084,429.302074 391.049294,428.800443 391.461823,428.594178 C391.577784,428.536198 391.705651,428.506013 391.835298,428.506013 L397,428.506013 Z" fill="#FFFFFF" fill-rule="nonzero"></path>
                    <path id="Line-Copy-2" d="M195,652.066968 L195,567.114118 C195,566.561833 195.447715,566.114118 196,566.114118 C196.552285,566.114118 197,566.561833 197,567.114118 L197,652.066968 L202.164885,652.066968 C202.626106,652.066968 203,652.440862 203,652.902084 C203,653.031731 202.969815,653.159598 202.911835,653.275559 L196.747041,665.605145 C196.540777,666.017674 196.039146,666.184884 195.626617,665.97862 C195.464999,665.897811 195.33395,665.766763 195.253142,665.605145 L189.088348,653.275559 C188.882084,652.863029 189.049294,652.361398 189.461823,652.155134 C189.577784,652.097154 189.705651,652.066968 189.835298,652.066968 L195,652.066968 Z" fill="#FFFFFF" fill-rule="nonzero"></path>
                    <path id="Line-Copy" d="M784,428.506013 L784,406.5 C784,405.947715 784.447715,405.5 785,405.5 C785.552285,405.5 786,405.947715 786,406.5 L786,428.506013 L791.164885,428.506013 C791.626106,428.506013 792,428.879907 792,429.341128 C792,429.470776 791.969815,429.598643 791.911835,429.714603 L785.747041,442.044189 C785.540777,442.456718 785.039146,442.623929 784.626617,442.417664 C784.464999,442.336856 784.33395,442.205807 784.253142,442.044189 L778.088348,429.714603 C777.882084,429.302074 778.049294,428.800443 778.461823,428.594178 C778.577784,428.536198 778.705651,428.506013 778.835298,428.506013 L784,428.506013 Z" fill="#FFFFFF" fill-rule="nonzero"></path>
                    <path d="M570,105 L570,124.710342" id="Line-3" stroke="#FFFFFF" stroke-width="2" stroke-linecap="round"></path>
                    <path id="Line-3-Copy-2" d="M569,279.981218 L569,279 C569,278.447715 569.447715,278 570,278 C570.552285,278 571,278.447715 571,279 L571,279.981218 L576.164885,279.981218 C576.626106,279.981218 577,280.355112 577,280.816334 C577,280.945981 576.969815,281.073848 576.911835,281.189809 L570.747041,293.519395 C570.540777,293.931924 570.039146,294.099134 569.626617,293.89287 C569.464999,293.812061 569.33395,293.681013 569.253142,293.519395 L563.088348,281.189809 C562.882084,280.77728 563.049294,280.275648 563.461823,280.069384 C563.577784,280.011404 563.705651,279.981218 563.835298,279.981218 L569,279.981218 Z M569,239 C569,238.447715 569.447715,238 570,238 C570.552285,238 571,238.447715 571,239 L571,240 C571,240.552285 570.552285,241 570,241 C569.447715,241 569,240.552285 569,240 L569,239 Z M569,244 C569,243.447715 569.447715,243 570,243 C570.552285,243 571,243.447715 571,244 L571,245 C571,245.552285 570.552285,246 570,246 C569.447715,246 569,245.552285 569,245 L569,244 Z M569,249 C569,248.447715 569.447715,248 570,248 C570.552285,248 571,248.447715 571,249 L571,250 C571,250.552285 570.552285,251 570,251 C569.447715,251 569,250.552285 569,250 L569,249 Z M569,254 C569,253.447715 569.447715,253 570,253 C570.552285,253 571,253.447715 571,254 L571,255 C571,255.552285 570.552285,256 570,256 C569.447715,256 569,255.552285 569,255 L569,254 Z M569,259 C569,258.447715 569.447715,258 570,258 C570.552285,258 571,258.447715 571,259 L571,260 C571,260.552285 570.552285,261 570,261 C569.447715,261 569,260.552285 569,260 L569,259 Z M569,264 C569,263.447715 569.447715,263 570,263 C570.552285,263 571,263.447715 571,264 L571,265 C571,265.552285 570.552285,266 570,266 C569.447715,266 569,265.552285 569,265 L569,264 Z M569,269 C569,268.447715 569.447715,268 570,268 C570.552285,268 571,268.447715 571,269 L571,270 C571,270.552285 570.552285,271 570,271 C569.447715,271 569,270.552285 569,270 L569,269 Z M569,274 C569,273.447715 569.447715,273 570,273 C570.552285,273 571,273.447715 571,274 L571,275 C571,275.552285 570.552285,276 570,276 C569.447715,276 569,275.552285 569,275 L569,274 Z" fill="#FFFFFF" fill-rule="nonzero"></path>
                    <path d="M570,397 L570,406.855171" id="Line-3-Copy-4" stroke="#FFFFFF" stroke-width="2" stroke-linecap="round"></path>
                    <path d="M719,105 L719,124.710342" id="Line-3-Copy" stroke="#FFFFFF" stroke-width="2" stroke-linecap="round"></path>
                    <path id="Line-3-Copy-3" d="M718,279.981218 L718,279 C718,278.447715 718.447715,278 719,278 C719.552285,278 720,278.447715 720,279 L720,279.981218 L725.164885,279.981218 C725.626106,279.981218 726,280.355112 726,280.816334 C726,280.945981 725.969815,281.073848 725.911835,281.189809 L719.747041,293.519395 C719.540777,293.931924 719.039146,294.099134 718.626617,293.89287 C718.464999,293.812061 718.33395,293.681013 718.253142,293.519395 L712.088348,281.189809 C711.882084,280.77728 712.049294,280.275648 712.461823,280.069384 C712.577784,280.011404 712.705651,279.981218 712.835298,279.981218 L718,279.981218 Z M718,239 C718,238.447715 718.447715,238 719,238 C719.552285,238 720,238.447715 720,239 L720,240 C720,240.552285 719.552285,241 719,241 C718.447715,241 718,240.552285 718,240 L718,239 Z M718,244 C718,243.447715 718.447715,243 719,243 C719.552285,243 720,243.447715 720,244 L720,245 C720,245.552285 719.552285,246 719,246 C718.447715,246 718,245.552285 718,245 L718,244 Z M718,249 C718,248.447715 718.447715,248 719,248 C719.552285,248 720,248.447715 720,249 L720,250 C720,250.552285 719.552285,251 719,251 C718.447715,251 718,250.552285 718,250 L718,249 Z M718,254 C718,253.447715 718.447715,253 719,253 C719.552285,253 720,253.447715 720,254 L720,255 C720,255.552285 719.552285,256 719,256 C718.447715,256 718,255.552285 718,255 L718,254 Z M718,259 C718,258.447715 718.447715,258 719,258 C719.552285,258 720,258.447715 720,259 L720,260 C720,260.552285 719.552285,261 719,261 C718.447715,261 718,260.552285 718,260 L718,259 Z M718,264 C718,263.447715 718.447715,263 719,263 C719.552285,263 720,263.447715 720,264 L720,265 C720,265.552285 719.552285,266 719,266 C718.447715,266 718,265.552285 718,265 L718,264 Z M718,269 C718,268.447715 718.447715,268 719,268 C719.552285,268 720,268.447715 720,269 L720,270 C720,270.552285 719.552285,271 719,271 C718.447715,271 718,270.552285 718,270 L718,269 Z M718,274 C718,273.447715 718.447715,273 719,273 C719.552285,273 720,273.447715 720,274 L720,275 C720,275.552285 719.552285,276 719,276 C718.447715,276 718,275.552285 718,275 L718,274 Z" fill="#FFFFFF" fill-rule="nonzero"></path>
                    <path d="M719,397 L719,406.855171" id="Line-3-Copy-5" stroke="#FFFFFF" stroke-width="2" stroke-linecap="round"></path>
                    <g id="cloud" transform="translate(171.000000, 686.000000)" stroke="#FFFFFF" stroke-width="2">
                        <path d="M39.1304348,38 L49.5652174,38 C55.3278261,38 60,33.1387143 60,27.1428571 C60,21.1456429 55.3278261,16.2857143 49.5652174,16.2857143 C49.1152174,16.2857143 48.6743478,16.3250714 48.2386957,16.3820714 C48.2465217,16.2382143 48.2608696,16.093 48.2608696,15.9464286 C48.2608696,11.6361429 44.9034783,8.14285714 40.7608696,8.14285714 C39.723913,8.14285714 38.7352174,8.36135714 37.8365217,8.75764286 C35.5786957,3.59507143 30.5895652,0 24.7826087,0 C16.8586957,0 10.4347826,6.68392857 10.4347826,14.9285714 C10.4347826,15.3886429 10.4621739,15.8405714 10.5013043,16.2884286 C10.4778261,16.2884286 10.4582609,16.2857143 10.4347826,16.2857143 C4.67217391,16.2857143 0,21.147 0,27.1428571 C0,33.1387143 4.67217391,38 10.4347826,38 L19.5652174,38 L39.1304348,38 Z" id="Stroke-1"></path>
                        <path d="M36,13 C36.4369053,11.3038869 37.1419115,9.83235179 38,9" id="Stroke-3" stroke-linecap="round"></path>
                        <path d="M11,16.418 C12.7694102,16.418 14.4555148,16.832 16,17.582" id="Stroke-5" stroke-linecap="round"></path>
                        <path d="M25.3014618,30.6236834 C29.2243705,27.9570167 33.2243705,27.9570167 37.3014618,30.6236834" id="Path-4" stroke-linecap="round"></path>
                        <path d="M21,23.2473667 C27.7352824,18.9175444 34.6029235,18.9175444 41.6029235,23.2473667" id="Path-4-Copy" stroke-linecap="round"></path>
                    </g>
                </g>
            </g>
        </g>
    </g>
</svg>