<?xml version="1.0" encoding="UTF-8"?>
<svg width="1370px" height="1440px" viewBox="0 0 1370 1440" version="1.1" xmlns="http://www.w3.org/2000/svg" xmlns:xlink="http://www.w3.org/1999/xlink">
    <!-- Generator: Sketch 55.1 (78136) - https://sketchapp.com -->
    <title>Mask</title>
    <desc>Created with Sketch.</desc>
    <defs>
        <path d="M1070,1440 C1338.16383,1440 1591.2673,1332.94626 1777.10678,1147.10678 C1962.94626,961.267303 2070,708.163832 2070,440 C2070,171.836168 1962.94626,-81.2673032 1777.10678,-267.106781 C1591.2673,-452.946259 1338.16383,-560 1070,-560 C801.836168,-560 548.732697,-452.946259 362.893219,-267.106781 C177.053741,-81.2673032 70,171.836168 70,440 C70,708.163832 177.053741,961.267303 362.893219,1147.10678 C548.732697,1332.94626 801.836168,1440 1070,1440 Z M1070,-60 C1203.75,-60 1330.87694,-6.22983927 1423.55339,86.4466094 C1516.22984,179.123058 1570,306.249997 1570,440 C1570,573.750003 1516.22984,700.876942 1423.55339,793.553391 C1330.87694,886.229839 1203.75,940 1070,940 C936.249997,940 809.123058,886.229839 716.446609,793.553391 C623.770161,700.876942 570,573.750003 570,440 C570,306.249997 623.770161,179.123058 716.446609,86.4466094 C809.123058,-6.22983927 936.249997,-60 1070,-60 Z" id="path-1"></path>
    </defs>
    <g id="SCALEWORK-WEBSITE-WIP" stroke="none" stroke-width="1" fill="none" fill-rule="evenodd">
        <g id="SCALEWORK-Desktop-Home" transform="translate(-70.000000, 0.000000)">
            <g id="01-Hero">
                <g id="SCALEWORK-Vid-Header-Static">
                    <mask id="mask-2" fill="white">
                        <use xlink:href="#path-1"></use>
                    </mask>
                    <use id="Mask" fill="#E1E1E1" fill-rule="nonzero" xlink:href="#path-1"></use>
                </g>
            </g>
        </g>
    </g>
</svg>