<?xml version="1.0" encoding="UTF-8"?>
<svg width="76px" height="49px" viewBox="0 0 76 49" version="1.1" xmlns="http://www.w3.org/2000/svg" xmlns:xlink="http://www.w3.org/1999/xlink">
    <!-- Generator: Sketch 55.1 (78136) - https://sketchapp.com -->
    <title>Brand</title>
    <desc>Created with Sketch.</desc>
    <defs>
        <polygon id="path-1" points="0.4056 0.1583 13.84 0.1583 13.84 13.5933 0.4056 13.5933"></polygon>
    </defs>
    <g id="Symbols" stroke="none" stroke-width="1" fill="none" fill-rule="evenodd">
        <g id="NAV-Dark" transform="translate(-134.000000, -21.000000)">
            <g id="Brand-/-Logo-/-white" transform="translate(134.000000, 20.000000)">
                <g id="Brand">
                    <g id="Group-6" transform="translate(62.000000, 0.841700)">
                        <mask id="mask-2" fill="white">
                            <use xlink:href="#path-1"></use>
                        </mask>
                        <g id="Clip-5"></g>
                        <path d="M7.1226,0.1583 C3.4126,0.1583 0.4056,3.1653 0.4056,6.8753 C0.4056,8.4373 0.9426,9.8703 1.8376,11.0113 L4.2526,8.3953 C4.0096,7.9393 3.8586,7.4273 3.8586,6.8753 C3.8586,5.0753 5.3226,3.6123 7.1226,3.6123 C8.9226,3.6123 10.3866,5.0753 10.3866,6.8753 C10.3866,8.6753 8.9226,10.1383 7.1226,10.1383 C6.6626,10.1383 6.2266,10.0413 5.8296,9.8683 L3.4206,12.4783 C4.4826,13.1813 5.7546,13.5933 7.1226,13.5933 C10.8326,13.5933 13.8406,10.5853 13.8406,6.8753 C13.8406,3.1653 10.8326,0.1583 7.1226,0.1583" id="Fill-4" fill="#E13468" mask="url(#mask-2)"></path>
                    </g>
                    <path d="M9.4663,41.3819 C9.7873,41.8879 9.9813,42.4829 9.9813,43.1249 C9.9813,44.9239 8.5173,46.3879 6.7173,46.3879 C4.9173,46.3879 3.4533,44.9239 3.4533,43.1249 C3.4533,41.3249 4.9173,39.8609 6.7173,39.8609 C7.0803,39.8609 7.4243,39.9349 7.7513,40.0449 L10.3293,37.4669 C9.2853,36.7989 8.0483,36.4069 6.7173,36.4069 C3.0073,36.4069 0.0003,39.4149 0.0003,43.1239 C0.0003,46.8339 3.0073,49.8419 6.7173,49.8419 C10.4273,49.8419 13.4353,46.8339 13.4353,43.1239 C13.4353,41.5269 12.8743,40.0599 11.9423,38.9069 L9.4663,41.3819 Z" id="Fill-1" fill="#FFFFFF"></path>
                    <path d="M44.9897,30.5411 C44.8417,30.1681 44.7537,29.7641 44.7537,29.3381 C44.7537,28.8251 44.8837,28.3461 45.0947,27.9131 L42.5837,25.4011 C41.7797,26.5081 41.3007,27.8661 41.3007,29.3381 C41.3007,30.7271 41.7207,32.0171 42.4427,33.0871 L44.9897,30.5411 Z" id="Fill-7" fill="#FFFFFF"></path>
                    <path d="M48.0171,26.0753 C48.4431,26.0753 48.8461,26.1623 49.2191,26.3113 L51.7661,23.7643 C50.6951,23.0433 49.4061,22.6213 48.0171,22.6213 C46.5601,22.6213 45.2141,23.0903 44.1141,23.8793 L46.6311,26.3953 C47.0531,26.1963 47.5201,26.0753 48.0171,26.0753" id="Fill-9" fill="#FFFFFF"></path>
                    <path d="M50.8442,27.7393 C51.1142,28.2143 51.2802,28.7553 51.2802,29.3383 C51.2802,31.1383 49.8162,32.6023 48.0172,32.6023 C47.4332,32.6023 46.8922,32.4353 46.4172,32.1653 L43.9252,34.6573 C45.0592,35.5313 46.4752,36.0553 48.0172,36.0553 C51.7272,36.0553 54.7352,33.0483 54.7352,29.3383 C54.7352,27.7973 54.2092,26.3813 53.3362,25.2473 L50.8442,27.7393 Z" id="Fill-11" fill="#FFFFFF"></path>
                    <path d="M17.2368,30.5591 C17.0208,30.1231 16.8878,29.6391 16.8878,29.1211 C16.8878,27.3211 18.3518,25.8571 20.1518,25.8571 C20.6708,25.8571 21.1538,25.9901 21.5908,26.2061 L24.1008,23.6951 C22.9918,22.8861 21.6298,22.4031 20.1518,22.4031 C16.4418,22.4031 13.4348,25.4111 13.4348,29.1211 C13.4348,30.5991 13.9178,31.9601 14.7258,33.0701 L17.2368,30.5591 Z" id="Fill-13" fill="#FFFFFF"></path>
                    <path d="M23.0151,30.6534 L25.5151,33.1534 C26.3621,32.0294 26.8691,30.6364 26.8691,29.1214 C26.8691,27.6684 26.4041,26.3274 25.6191,25.2294 L23.1021,27.7474 C23.2971,28.1664 23.4151,28.6284 23.4151,29.1204 C23.4151,29.6774 23.2621,30.1944 23.0151,30.6534" id="Fill-15" fill="#FFFFFF"></path>
                    <path d="M21.5767,32.043 C21.1437,32.255 20.6657,32.384 20.1517,32.384 C19.6597,32.384 19.1967,32.267 18.7777,32.071 L16.2607,34.589 C17.3587,35.373 18.6997,35.838 20.1517,35.838 C21.6247,35.838 22.9817,35.359 24.0897,34.555 L21.5767,32.043 Z" id="Fill-17" fill="#FFFFFF"></path>
                    <path d="M31.2329,16.5635 C31.0069,16.1205 30.8689,15.6265 30.8689,15.0975 C30.8689,13.2975 32.3329,11.8345 34.1309,11.8345 C34.6619,11.8345 35.1549,11.9735 35.5979,12.1985 L38.1059,9.6905 C36.9919,8.8705 35.6209,8.3795 34.1319,8.3795 C30.4219,8.3795 27.4149,11.3875 27.4149,15.0975 C27.4149,16.5865 27.9049,17.9575 28.7249,19.0715 L31.2329,16.5635 Z" id="Fill-19" fill="#FFFFFF"></path>
                    <path d="M36.9497,16.7139 L39.4387,19.2039 C40.3197,18.0679 40.8487,16.6459 40.8487,15.0969 C40.8487,13.6559 40.3907,12.3239 39.6187,11.2299 L37.0967,13.7519 C37.2847,14.1629 37.3947,14.6159 37.3947,15.0969 C37.3947,15.6879 37.2247,16.2349 36.9497,16.7139" id="Fill-21" fill="#FFFFFF"></path>
                    <path d="M35.313,18.1309 C34.946,18.2749 34.549,18.3599 34.131,18.3599 C33.651,18.3599 33.198,18.2499 32.787,18.0629 L30.265,20.5839 C31.359,21.3569 32.691,21.8149 34.132,21.8149 C35.513,21.8149 36.796,21.3969 37.864,20.6819 L35.313,18.1309 Z" id="Fill-23" fill="#FFFFFF"></path>
                </g>
            </g>
        </g>
    </g>
</svg>