<?xml version="1.0" encoding="UTF-8"?>
<svg width="43px" height="37px" viewBox="0 0 43 37" version="1.1" xmlns="http://www.w3.org/2000/svg" xmlns:xlink="http://www.w3.org/1999/xlink">
    <!-- Generator: Sketch 55.1 (78136) - https://sketchapp.com -->
    <title>Logistics</title>
    <desc>Created with Sketch.</desc>
    <g id="SCALEWORK-WEBSITE-WIP" stroke="none" stroke-width="1" fill="none" fill-rule="evenodd">
        <g id="SCALEWORK-Desktop-Solutions" transform="translate(-200.000000, -3205.000000)" fill="#6A1B9A">
            <g id="04-Past-solutions" transform="translate(130.000000, 2182.000000)">
                <g id="Industry-Icons" transform="translate(41.000000, 539.000000)">
                    <g id="Logistics" transform="translate(29.000000, 484.000000)">
                        <path d="M42.0996,35 L41.9236,35 C41.7326,35.601 41.1916,36 40.4996,36 L2.4996,36 C1.6306,36 0.9996,35.369 0.9996,34.5 L0.9996,2.5 C0.9996,1.617 1.6166,1 2.4996,1 L12.9996,1 L12.9996,8 C12.9996,8.331 13.2136,8.665 13.5576,8.871 C13.8776,8.992 14.2046,8.973 14.5426,8.771 L17.1046,6.896 C17.3416,6.651 17.8596,6.653 18.1536,6.946 L20.4996,8.7 C20.7136,8.841 21.1206,9 21.4996,9 C21.8596,9 22.2616,8.854 22.6006,8.6 L24.9996,6.8 C25.2426,6.553 25.7596,6.554 26.0526,6.846 L28.5946,8.696 C28.8346,8.875 29.2166,8.967 29.5426,8.771 C29.9386,8.534 30.0996,8.281 30.0996,7.9 L30.0996,1 L40.5996,1 C41.4826,1 42.0996,1.617 42.0996,2.5 L42.0996,35 Z M13.9996,1 L28.9996,1 L28.9996,7.8 L26.6006,6 C25.9736,5.53 25.0266,5.53 24.3996,6 L21.9996,7.8 C21.8846,7.919 21.7056,7.981 21.5186,7.981 C21.3146,7.981 21.0996,7.907 20.9466,7.753 L18.5996,6 C17.9726,5.529 17.0276,5.529 16.4006,6 L13.9996,7.8 L13.9996,1 Z M42.9996,2.5 C42.9996,1.075 41.9246,0 40.4996,0 L2.4996,0 C1.0746,0 -0.0004,1.075 -0.0004,2.5 L-0.0004,34.5 C-0.0004,35.925 1.0746,37 2.4996,37 L40.4996,37 C41.9246,37 42.9996,35.925 42.9996,34.5 L42.9996,2.5 Z" id="Fill-1"></path>
                        <path d="M14.5,23 L28.5,23 C28.822,23 29,22.822 29,22.5 C29,22.178 28.822,22 28.5,22 L14.5,22 C14.178,22 14,22.178 14,22.5 C14,22.822 14.178,23 14.5,23" id="Fill-4"></path>
                        <path d="M19.8472,15.8462 C20.0502,15.6422 20.0502,15.3572 19.8462,15.1532 L17.8472,13.1532 C17.6422,12.9492 17.3572,12.9502 17.1532,13.1542 L15.1532,15.1532 C14.9502,15.3572 14.9502,15.6422 15.1542,15.8462 C15.3562,16.0502 15.6412,16.0512 15.8462,15.8472 L17.0002,14.6912 L17.0002,19.5002 C17.0002,19.8222 17.1782,20.0002 17.5002,20.0002 C17.8222,20.0002 18.0002,19.8222 18.0002,19.5002 L18.0002,14.6912 L19.1542,15.8472 C19.3502,16.0432 19.6492,16.0442 19.8472,15.8462" id="Fill-6"></path>
                        <path d="M27.8467,15.8462 C28.0497,15.6422 28.0497,15.3572 27.8467,15.1532 L25.8467,13.1532 C25.6437,12.9492 25.3567,12.9502 25.1537,13.1542 L23.1537,15.1532 C22.9497,15.3572 22.9497,15.6422 23.1537,15.8462 C23.3587,16.0512 23.6417,16.0502 23.8467,15.8472 L24.9997,14.6912 L24.9997,19.5002 C24.9997,19.8222 25.1777,20.0002 25.4997,20.0002 C25.8227,20.0002 25.9997,19.8222 25.9997,19.5002 L25.9997,14.6912 L27.1537,15.8472 C27.3507,16.0432 27.6497,16.0442 27.8467,15.8462" id="Fill-8"></path>
                        <path d="M5.5,29 L15.5,29 C15.822,29 16,28.822 16,28.5 C16,28.178 15.822,28 15.5,28 L5.5,28 C5.178,28 5,28.178 5,28.5 C5,28.822 5.178,29 5.5,29" id="Fill-10"></path>
                        <path d="M5.5,33 L12.5,33 C12.822,33 13,32.822 13,32.5 C13,32.178 12.822,32 12.5,32 L5.5,32 C5.178,32 5,32.178 5,32.5 C5,32.822 5.178,33 5.5,33" id="Fill-12"></path>
                    </g>
                </g>
            </g>
        </g>
    </g>
</svg>