<?xml version="1.0" encoding="UTF-8"?>
<svg width="25px" height="23px" viewBox="0 0 25 23" version="1.1" xmlns="http://www.w3.org/2000/svg" xmlns:xlink="http://www.w3.org/1999/xlink">
    <!-- Generator: Sketch 55.1 (78136) - https://sketchapp.com -->
    <title>Group 13</title>
    <desc>Created with Sketch.</desc>
    <g id="SCALEWORK-WEBSITE-WIP" stroke="none" stroke-width="1" fill="none" fill-rule="evenodd" stroke-linejoin="round">
        <g id="SCALEWORK-Desktop-Solutions" transform="translate(-950.000000, -119.000000)" stroke="#DF265E" stroke-width="0.7">
            <g id="Secondary-menu" transform="translate(920.000000, 81.000000)">
                <g id="Group-3" transform="translate(30.000000, 27.000000)">
                    <g id="Group-13" transform="translate(1.000000, 12.000000)">
                        <path d="M8.7512,5.9896 L9.7152,3.6616 L11.1322,4.1336 C11.5242,3.5836 12.0002,3.1136 12.5342,2.7316 L12.0632,1.3136 L14.3912,0.3496 L15.0602,1.6866 C15.7072,1.5786 16.3752,1.5736 17.0422,1.6846 L17.7102,0.3496 L20.0382,1.3136 L19.5662,2.7306 C20.1172,3.1236 20.5862,3.5986 20.9682,4.1346 L22.3862,3.6616 L23.3502,5.9896 L22.0142,6.6586 C22.1212,7.3056 22.1262,7.9736 22.0152,8.6406 L23.3502,9.3086 L22.3862,11.6366 L20.9692,11.1656 C20.5762,11.7166 20.1012,12.1856 19.5662,12.5666 L20.0382,13.9846 L17.7102,14.9486 L17.0412,13.6126 C16.3942,13.7206 15.7262,13.7246 15.0592,13.6136 L14.3912,14.9486 L12.0632,13.9846 L12.5342,12.5686 C11.9832,12.1756 11.5152,11.6996 11.1332,11.1656 L9.7152,11.6366 L8.7512,9.3086 L10.0872,8.6406 C9.9792,7.9936 9.9752,7.3246 10.0862,6.6576 L8.7512,5.9896 Z" id="Stroke-1"></path>
                        <path d="M13.8166,8.5756 C14.3286,9.8086 15.7436,10.3936 16.9776,9.8836 C18.2116,9.3716 18.7966,7.9566 18.2866,6.7226 C17.7746,5.4896 16.3596,4.9046 15.1266,5.4156 C13.8916,5.9276 13.3056,7.3416 13.8166,8.5756 Z" id="Stroke-3"></path>
                        <path d="M6.8576,7.0785 C6.5046,6.2285 5.5296,5.8255 4.6786,6.1785 C3.8286,6.5305 3.4246,7.5055 3.7776,8.3545 C3.9226,8.7075 4.1766,8.9825 4.4836,9.1595" id="Stroke-5"></path>
                        <path d="M0.635,15.1234 L1.295,13.5304 L2.527,14.0414 C2.774,13.6934 3.074,13.3974 3.411,13.1564 L2.901,11.9254 L4.493,11.2654 L5.004,12.4974 C5.412,12.4294 5.834,12.4264 6.255,12.4964 L6.765,11.2654 L8.358,11.9254 L7.848,13.1554 C8.195,13.4034 8.491,13.7044 8.732,14.0414 L9.964,13.5304 L10.623,15.1234 L9.392,15.6344 C9.459,16.0424 9.462,16.4644 9.392,16.8854 L10.623,17.3944 L9.964,18.9874 L8.733,18.4774 C8.485,18.8244 8.185,19.1214 7.847,19.3614 L8.358,20.5944 L6.765,21.2534 L6.255,20.0204 C5.846,20.0894 5.424,20.0924 5.004,20.0214 L4.493,21.2534 L2.901,20.5944 L3.411,19.3624 C3.064,19.1144 2.768,18.8144 2.527,18.4774 L1.295,18.9874 L0.635,17.3944 L1.867,16.8854 C1.799,16.4764 1.796,16.0544 1.866,15.6344 L0.635,15.1234 Z" id="Stroke-7"></path>
                        <path d="M2.4045,10.0385 L1.2245,10.6115 L0.4835,9.0875 L1.6635,8.5145 C1.5715,8.1165 1.5445,7.7035 1.5885,7.2865 L0.3495,6.8575 L0.9035,5.2565 L2.1415,5.6845 C2.3655,5.3285 2.6415,5.0195 2.9595,4.7645 L2.3855,3.5845 L3.9105,2.8435 L4.4835,4.0225 C4.8805,3.9325 5.2945,3.9035 5.7115,3.9485 L6.1385,2.7095 L7.7415,3.2635 L7.3125,4.5025" id="Stroke-9"></path>
                        <path d="M4.0822,15.6185 C3.7282,16.4725 4.1342,17.4525 4.9882,17.8065 C5.8432,18.1605 6.8222,17.7545 7.1762,16.8995 C7.5302,16.0455 7.1242,15.0655 6.2702,14.7125 C5.4152,14.3585 4.4362,14.7645 4.0822,15.6185 Z" id="Stroke-11"></path>
                    </g>
                </g>
            </g>
        </g>
    </g>
</svg>