<?xml version="1.0" encoding="UTF-8"?>
<svg width="41px" height="42px" viewBox="0 0 41 42" version="1.1" xmlns="http://www.w3.org/2000/svg" xmlns:xlink="http://www.w3.org/1999/xlink">
    <!-- Generator: Sketch 55.1 (78136) - https://sketchapp.com -->
    <title>farming</title>
    <desc>Created with Sketch.</desc>
    <g id="SCALEWORK-WEBSITE-WIP" stroke="none" stroke-width="1" fill="none" fill-rule="evenodd" stroke-linecap="round" stroke-linejoin="round">
        <g id="SCALEWORK-Desktop-Solutions" transform="translate(-201.000000, -2749.000000)" stroke="#6A1B9A">
            <g id="04-Past-solutions" transform="translate(130.000000, 2182.000000)">
                <g id="Industry-Icons" transform="translate(41.000000, 539.000000)">
                    <g id="farming" transform="translate(30.000000, 29.000000)">
                        <path d="M40.499,40.5 L0.5,40.5 C0.5,40.5 0.845,32.596 3,29.524 C5.845,25.471 15.499,21.5 15.499,21.5 L16.499,28.493 L20.499,23.498 L24.5,28.493 L25.5,21.5 C25.5,21.5 35.628,25.306 38.499,29.51 C40.599,32.584 40.499,40.5 40.499,40.5 Z" id="Stroke-1"></path>
                        <path d="M10.5044,24.5137 L12.5034,30.5017 C12.6524,30.9487 13.0324,31.4997 13.5034,31.4997 L27.4974,31.4997 C27.9674,31.4997 28.3474,30.9487 28.4964,30.5017 L30.4954,24.5137" id="Stroke-3"></path>
                        <path d="M6.5024,26.5142 C6.5024,26.5142 7.2744,31.1582 7.4294,33.5072 C7.5834,35.8272 7.4294,40.4852 7.4294,40.4852" id="Stroke-5"></path>
                        <path d="M34.498,26.5142 C34.498,26.5142 33.725,31.1592 33.57,33.5082 C33.417,35.8282 33.57,40.4852 33.57,40.4852" id="Stroke-7"></path>
                        <polyline id="Stroke-9" points="27 40.4492 27 36.5002 14 36.5372 14 40.4852"></polyline>
                        <path d="M14.166,7.5142 C14.166,7.5142 13.551,12.6322 14.694,14.6622 C15.885,16.7772 18.244,18.5002 20.5,18.5002 C22.756,18.5002 25.115,16.7772 26.306,14.6622 C27.449,12.6322 26.834,7.5142 26.834,7.5142" id="Stroke-11"></path>
                        <path d="M9.5142,7.5 L31.4862,7.5" id="Stroke-13"></path>
                        <path d="M13.002,7.4858 C13.002,7.4858 13.953,0.4998 16.208,0.4998 L24.782,0.4998 C27.037,0.4998 27.998,7.4858 27.998,7.4858" id="Stroke-15"></path>
                        <path d="M15.5132,21.5049 C19.2872,22.8559 21.6182,22.8759 25.4862,21.5049" id="Stroke-17"></path>
                    </g>
                </g>
            </g>
        </g>
    </g>
</svg>