<?xml version="1.0" encoding="UTF-8"?>
<svg width="31px" height="34px" viewBox="0 0 31 34" version="1.1" xmlns="http://www.w3.org/2000/svg" xmlns:xlink="http://www.w3.org/1999/xlink">
    <!-- Generator: Sketch 55.1 (78136) - https://sketchapp.com -->
    <title>proposition</title>
    <desc>Created with Sketch.</desc>
    <g id="SCALEWORK-WEBSITE-WIP" stroke="none" stroke-width="1" fill="none" fill-rule="evenodd" stroke-linejoin="round">
        <g id="SCALEWORK-Desktop-Home" transform="translate(-790.000000, -113.000000)" stroke="#DF265E" stroke-width="0.706">
            <g id="NAV-Secondary-menu" transform="translate(763.000000, 81.000000)">
                <g id="Group-3" transform="translate(27.000000, 27.000000)">
                    <g id="proposition" transform="translate(0.000000, 5.000000)">
                        <path d="M21.4439,16.5028 L21.4439,13.6798 L19.9549,13.6798 C19.8399,12.9738 19.6749,12.8838 19.4649,12.5158 L20.7319,11.2578 L18.8359,9.3658 L17.6279,10.6368 C17.2589,10.4258 17.2089,10.2638 16.5039,10.1488 L16.5039,8.7378 L13.6789,8.7378 L13.6789,10.1488 C12.9739,10.2638 12.8749,10.4278 12.5059,10.6388 L11.2439,9.3708 L9.3489,11.2688 L10.6179,12.5158 C10.4079,12.8838 10.2449,12.9738 10.1309,13.6798 L8.0329,13.6798 L8.0329,16.5028 L10.1309,16.5028 C10.2449,17.2088 10.4089,17.2698 10.6199,17.6378 L9.3519,18.8798 L11.2489,20.7648 L12.5059,19.4898 C12.8749,19.7008 12.9739,19.8588 13.6789,19.9738 L13.6789,22.1498 L16.5039,22.1498 L16.5039,19.9738 C17.2089,19.8588 17.2589,19.6948 17.6279,19.4838 L18.8659,20.7518 L20.7479,18.8548 L19.4719,17.6378 C19.6829,17.2698 19.8399,17.2088 19.9549,16.5028 L21.4439,16.5028 Z" id="Stroke-1"></path>
                        <path d="M17.1763,15.1073 C17.1763,16.2863 16.2213,17.2413 15.0423,17.2413 C13.8633,17.2413 12.9083,16.2863 12.9083,15.1073 C12.9083,13.9283 13.8633,12.9733 15.0423,12.9733 C16.2213,12.9733 17.1763,13.9283 17.1763,15.1073 Z" id="Stroke-3"></path>
                        <path d="M18.6207,28.5028 L18.6207,27.0658 C18.6207,24.5958 20.0367,23.9338 21.9397,22.0878 C23.6517,20.4278 25.0537,17.8738 25.0537,14.6158 C25.0537,9.4538 20.4097,5.2768 15.0917,5.2768 C9.7727,5.2768 5.1297,9.4538 5.1297,14.6158 C5.1297,17.8738 6.5307,20.4278 8.2427,22.0878 C10.1457,23.9338 11.5617,24.5948 11.5617,27.0658 L11.5617,28.5028" id="Stroke-5"></path>
                        <path d="M10.856,29.9149 L19.327,29.9149" id="Stroke-7"></path>
                        <polyline id="Stroke-9" points="18.6207 32.0321 17.2087 32.0321 16.5037 32.7381 15.0917 32.7381 13.6797 32.7381 12.9747 32.0321 11.5617 32.0321"></polyline>
                        <path d="M12.9742,27.7967 L17.2082,27.7967" id="Stroke-11"></path>
                        <path d="M11.8033,2.8182 L11.0723,0.0912" id="Stroke-13"></path>
                        <path d="M6.107,6.1073 L4.111,4.1103" id="Stroke-15"></path>
                        <path d="M2.8189,11.8026 L0.0909,11.0726" id="Stroke-17"></path>
                        <path d="M2.8189,18.3797 L0.0909,19.1097" id="Stroke-19"></path>
                        <path d="M6.107,24.076 L4.111,26.072" id="Stroke-21"></path>
                        <path d="M24.0757,24.076 L26.0717,26.072" id="Stroke-23"></path>
                        <path d="M27.3638,18.3797 L30.0918,19.1097" id="Stroke-25"></path>
                        <path d="M27.3638,11.8026 L30.0918,11.0726" id="Stroke-27"></path>
                        <path d="M24.0757,6.1073 L26.0717,4.1103" id="Stroke-29"></path>
                        <path d="M18.3794,2.8182 L19.1104,0.0912" id="Stroke-31"></path>
                    </g>
                </g>
            </g>
        </g>
    </g>
</svg>