<?xml version="1.0" encoding="UTF-8"?>
<svg width="42px" height="41px" viewBox="0 0 42 41" version="1.1" xmlns="http://www.w3.org/2000/svg" xmlns:xlink="http://www.w3.org/1999/xlink">
    <!-- Generator: Sketch 55.1 (78136) - https://sketchapp.com -->
    <title>IT</title>
    <desc>Created with Sketch.</desc>
    <defs>
        <polygon id="path-1" points="0 41 42 41 42 0 0 0"></polygon>
    </defs>
    <g id="SCALEWORK-WEBSITE-WIP" stroke="none" stroke-width="1" fill="none" fill-rule="evenodd">
        <g id="SCALEWORK-Desktop-Solutions" transform="translate(-800.000000, -2902.000000)">
            <g id="04-Past-solutions" transform="translate(130.000000, 2182.000000)">
                <g id="Industry-Icons" transform="translate(41.000000, 539.000000)">
                    <g id="IT" transform="translate(629.000000, 181.000000)">
                        <path d="M34.5882353,36.4444444 L7.41176471,36.4444444 C5.8035,36.4444444 4.5,35.1061076 4.5,33.4548611 L4.5,7.54513889 C4.5,5.89389236 5.8035,4.55555556 7.41176471,4.55555556 L34.5882353,4.55555556 C36.1965,4.55555556 37.5,5.89389236 37.5,7.54513889 L37.5,33.4548611 C37.5,35.1061076 36.1965,36.4444444 34.5882353,36.4444444 Z" id="Stroke-1" stroke="#6A1B9A"></path>
                        <mask id="mask-2" fill="white">
                            <use xlink:href="#path-1"></use>
                        </mask>
                        <g id="Clip-4"></g>
                        <polygon id="Stroke-3" stroke="#6A1B9A" mask="url(#mask-2)" points="10.5 30.3703704 33 30.3703704 33 9.11111111 10.5 9.11111111"></polygon>
                        <path d="M37.5,11.3888889 L42,11.3888889" id="Stroke-5" stroke="#6A1B9A" mask="url(#mask-2)"></path>
                        <path d="M37.5,17.462963 L42,17.462963" id="Stroke-6" stroke="#6A1B9A" mask="url(#mask-2)"></path>
                        <path d="M37.5,23.537037 L42,23.537037" id="Stroke-7" stroke="#6A1B9A" mask="url(#mask-2)"></path>
                        <path d="M37.5,29.6111111 L42,29.6111111" id="Stroke-8" stroke="#6A1B9A" mask="url(#mask-2)"></path>
                        <path d="M0,11.3888889 L4.5,11.3888889" id="Stroke-9" stroke="#6A1B9A" mask="url(#mask-2)"></path>
                        <path d="M0,17.462963 L4.5,17.462963" id="Stroke-10" stroke="#6A1B9A" mask="url(#mask-2)"></path>
                        <path d="M0,23.537037 L4.5,23.537037" id="Stroke-11" stroke="#6A1B9A" mask="url(#mask-2)"></path>
                        <path d="M0,29.6111111 L4.5,29.6111111" id="Stroke-12" stroke="#6A1B9A" mask="url(#mask-2)"></path>
                        <path d="M12.75,0 L12.75,4.55555556" id="Stroke-13" stroke="#6A1B9A" mask="url(#mask-2)"></path>
                        <path d="M18.75,0 L18.75,4.55555556" id="Stroke-14" stroke="#6A1B9A" mask="url(#mask-2)"></path>
                        <path d="M23.25,0 L23.25,4.55555556" id="Stroke-15" stroke="#6A1B9A" mask="url(#mask-2)"></path>
                        <path d="M29.25,0 L29.25,4.55555556" id="Stroke-16" stroke="#6A1B9A" mask="url(#mask-2)"></path>
                        <path d="M12.75,36.4444444 L12.75,41" id="Stroke-17" stroke="#6A1B9A" mask="url(#mask-2)"></path>
                        <path d="M18.75,36.4444444 L18.75,41" id="Stroke-18" stroke="#6A1B9A" mask="url(#mask-2)"></path>
                        <path d="M23.25,36.4444444 L23.25,41" id="Stroke-19" stroke="#6A1B9A" mask="url(#mask-2)"></path>
                        <path d="M29.25,36.4444444 L29.25,41" id="Stroke-20" stroke="#6A1B9A" mask="url(#mask-2)"></path>
                        <path d="M18,25.0555556 L25.5,25.0555556" id="Stroke-21" stroke="#6A1B9A" mask="url(#mask-2)"></path>
                        <path d="M17.25,15.1851852 L17.25,19.7407407" id="Stroke-22" stroke="#6A1B9A" mask="url(#mask-2)"></path>
                        <path d="M24.75,19.7407407 L24.75,15.1851852" id="Stroke-23" stroke="#6A1B9A" mask="url(#mask-2)"></path>
                    </g>
                </g>
            </g>
        </g>
    </g>
</svg>