<?xml version="1.0" encoding="UTF-8"?>
<svg width="36px" height="42px" viewBox="0 0 36 42" version="1.1" xmlns="http://www.w3.org/2000/svg" xmlns:xlink="http://www.w3.org/1999/xlink">
    <!-- Generator: Sketch 55.1 (78136) - https://sketchapp.com -->
    <title>Mining</title>
    <desc>Created with Sketch.</desc>
    <g id="SCALEWORK-WEBSITE-WIP" stroke="none" stroke-width="1" fill="none" fill-rule="evenodd">
        <g id="SCALEWORK-Desktop-Solutions" transform="translate(-403.000000, -3052.000000)" stroke="#6A1B9A">
            <g id="04-Past-solutions" transform="translate(130.000000, 2182.000000)">
                <g id="Industry-Icons" transform="translate(41.000000, 539.000000)">
                    <g id="Mining" transform="translate(233.000000, 332.000000)">
                        <path d="M11.826087,27.3333333 L11.826087,31.6041667 C11.826087,32.9921875 10.6434783,33.6268333 9.27503106,33.9864375 L4.216,35.326625 C1.93609938,35.9253958 0.0430807453,38.458 0,40.1458333 L0,41" id="Stroke-1"></path>
                        <path d="M22.173913,27.3333333 L22.173913,31.6041667 C22.173913,32.9921875 23.3565217,33.6268333 24.7249689,33.9864375 L29.784,35.326625 C32.0639006,35.9253958 33.9569193,37.6038333 34,39.2916667 L34,41" id="Stroke-3"></path>
                        <path d="M26.6086957,13.6666667 L26.6086957,22.5991285 C26.6086957,26.0604575 22.0630435,27.5682571 21.2869565,27.9586057 C20.5108696,28.3489542 19.1804348,28.8518519 17.7391304,28.8518519 C16.2978261,28.8518519 14.9673913,28.3489542 14.1913043,27.9586057 C13.4152174,27.5682571 8.86956522,26.0604575 8.86956522,22.5991285 L8.86956522,13.6666667" id="Stroke-5"></path>
                        <polyline id="Stroke-7" stroke-linejoin="round" points="16.2608696 7.59259259 16.2608696 0 19.2173913 0 19.2173913 7.59259259"></polyline>
                        <path d="M29.5652174,14.4259259 L5.91304348,14.4259259" id="Stroke-9" stroke-linejoin="round"></path>
                        <path d="M13.3043478,4.78917379 L13.3043478,1.51851852 C9.37771739,2.84722222 7.76086957,4.75483191 7.76086957,8.87749288 L7.76086957,9.6951567 L5.91304348,10.5128205 L5.91304348,12.1481481" id="Stroke-11" stroke-linejoin="round"></path>
                        <path d="M20.6956522,4.78917379 L20.6956522,1.51851852 C24.6222826,2.84722222 26.2391304,4.75483191 26.2391304,8.87749288 L26.2391304,9.6951567 L28.0869565,10.5128205 L28.0869565,12.1481481" id="Stroke-13" stroke-linejoin="round"></path>
                    </g>
                </g>
            </g>
        </g>
    </g>
</svg>