<?xml version="1.0" encoding="UTF-8"?>
<svg width="150px" height="150px" viewBox="0 0 150 150" version="1.1" xmlns="http://www.w3.org/2000/svg" xmlns:xlink="http://www.w3.org/1999/xlink">
    <!-- Generator: Sketch 55.1 (78136) - https://sketchapp.com -->
    <title>Group 4</title>
    <desc>Created with Sketch.</desc>
    <g id="SCALEWORK-WEBSITE-WIP" stroke="none" stroke-width="1" fill="none" fill-rule="evenodd">
        <g id="SCALEWORK-Desktop-How-it-works" transform="translate(-245.000000, -4328.000000)">
            <g id="05-Data-experts" transform="translate(0.000000, 4046.000000)">
                <g id="Group-4" transform="translate(256.000000, 293.000000)">
                    <path d="M98.98318,10.3985225 C88.9284992,3.82291852 76.9106948,0 64,0 C28.653776,0 0,28.653776 0,64 C0,99.346224 28.653776,128 64,128 C99.346224,128 128,99.346224 128,64 C128,56.8687599 126.833658,50.0099335 124.681327,43.6038745" id="Path" stroke="#E3E3E3" stroke-width="21"></path>
                    <g id="Group-21" transform="translate(31.000000, 35.000000)" stroke="#DF265E" stroke-linejoin="round" stroke-width="2">
                        <path d="M25.23795,0 C18.69945,0 13.63995,4.49458974 12.61995,7.95441026 C8.02095,8.57164103 4.95495,12.567 4.95495,17.5305641 C4.95495,17.9148205 4.98045,18.29 5.01945,18.6591282 C2.04795,20.1280769 0.00045,23.9676154 0.00045,28.4848974 C0.00045,31.3577436 1.13445,34.6511538 3.15495,36.5905897 C2.10345,41.3635385 3.92445,50.7838718 13.58595,49.9230769 C16.35195,56.2587692 21.55545,59.3313077 31.58595,57.4871795 L31.58595,0 L25.23795,0 Z" id="Stroke-1"></path>
                        <path d="M22.08405,17.4994 C16.62855,17.4994 12.61905,16.1741692 12.61905,7.95350256" id="Stroke-3"></path>
                        <path d="M12.6198,27.0446923 C15.1458,28.7133333 19.4193,28.0522308 21.7143,25.6196154 C24.7368,22.4154615 28.1283,22.1189487 31.5483,25.7255128" id="Stroke-5"></path>
                        <path d="M31.54845,11.1364769 C27.65295,12.6266051 23.49645,11.4753487 22.08345,7.95350256" id="Stroke-7"></path>
                        <path d="M31.58655,44.1244359 C27.98355,42.7598718 25.18905,44.5480256 24.08655,47.1500769" id="Stroke-9"></path>
                        <path d="M15.77355,41.3632359 C13.25955,40.9638513 11.04255,38.5751077 11.04255,36.5902872" id="Stroke-11"></path>
                        <path d="M13.58655,49.9230769 C13.58655,44.1062821 16.85955,36.5905897 25.23855,36.5905897" id="Stroke-13"></path>
                        <path d="M36.08655,0 L40.58655,0 L40.58655,6.88938462 C43.58655,7.45971795 45.80055,8.49146154 47.96205,9.88930769 L52.90455,5.01197436 L59.65005,11.7606667 L54.84105,16.8104615 C56.22705,18.9904359 57.27705,21.1794872 57.84255,24.2051282 L64.58655,24.2051282 L64.58655,33.2820513 L57.84255,33.2820513 C57.27705,36.3076923 56.25255,38.3893333 54.86805,40.5677949 L59.70255,45.4784103 L53.01105,52.2422308 L47.96205,47.3724615 C45.80055,48.7718205 43.58655,49.812641 40.58655,50.3829744 L40.58655,57.4871795 L36.08655,57.4871795" id="Stroke-15"></path>
                        <path d="M36.08655,40.6304256 C42.71355,40.6304256 48.08655,35.2599128 48.08655,28.6352718 C48.08655,22.0106308 42.71355,16.6416308 36.08655,16.6416308" id="Stroke-17"></path>
                        <path d="M7.88685,22.5446564 C10.49985,22.5446564 12.61935,24.4084513 12.61935,27.0452974 C12.61935,29.1239128 11.30235,31.1616821 9.46485,31.8182462" id="Stroke-19"></path>
                    </g>
                </g>
            </g>
        </g>
    </g>
</svg>