<?xml version="1.0" encoding="UTF-8"?>
<svg width="150px" height="150px" viewBox="0 0 150 150" version="1.1" xmlns="http://www.w3.org/2000/svg" xmlns:xlink="http://www.w3.org/1999/xlink">
    <!-- Generator: Sketch 55.1 (78136) - https://sketchapp.com -->
    <title>Group 8</title>
    <desc>Created with Sketch.</desc>
    <g id="SCALEWORK-WEBSITE-WIP" stroke="none" stroke-width="1" fill="none" fill-rule="evenodd">
        <g id="SCALEWORK-Desktop-How-it-works" transform="translate(-1044.000000, -4328.000000)">
            <g id="05-Data-experts" transform="translate(0.000000, 4046.000000)">
                <g id="Group-8" transform="translate(1055.000000, 293.000000)">
                    <path d="M98.98318,10.3985225 C88.9284992,3.82291852 76.9106948,0 64,0 C28.653776,0 0,28.653776 0,64 C0,99.346224 28.653776,128 64,128 C99.346224,128 128,99.346224 128,64 C128,56.8687599 126.833658,50.0099335 124.681327,43.6038745" id="Path-Copy-2" stroke="#E3E3E3" stroke-width="21" transform="translate(64.000000, 64.000000) rotate(180.000000) translate(-64.000000, -64.000000) "></path>
                    <g id="Group-33" transform="translate(31.000000, 27.000000)" stroke="#DF265E" stroke-linejoin="round" stroke-width="2">
                        <path d="M47,35.7894737 L47,29.6842105 L43.7779474,29.6842105 C43.5322105,28.1578947 43.1750526,27.9625263 42.7186842,27.1673158 L45.4599474,24.4474211 L41.3587368,20.3584211 L38.7487368,23.1027368 C37.9504737,22.6478947 37.8421053,22.2968421 36.3157895,22.0511053 L36.3157895,19 L30.2105263,19 L30.2105263,22.0511053 C28.6842105,22.2968421 28.4674737,22.654 27.6722632,23.1088421 L24.9432105,20.3675789 L20.8465789,24.4703158 L23.5908947,27.1673158 C23.1345263,27.9625263 22.7819474,28.1578947 22.5362105,29.6842105 L18,29.6842105 L18,35.7894737 L22.5362105,35.7894737 C22.7819474,37.3157895 23.1375789,37.4455263 23.5939474,38.2422632 L20.8526842,40.9285789 L24.9554211,45.0023158 L27.6722632,42.2473158 C28.4674737,42.7036842 28.6842105,43.0471053 30.2105263,43.2928421 L30.2105263,48 L36.3157895,48 L36.3157895,43.2928421 C37.8421053,43.0471053 37.9504737,42.6899474 38.7487368,42.2351053 L41.4243684,44.9763684 L45.4935263,40.8751579 L42.7354737,38.2422632 C43.1918421,37.4455263 43.5322105,37.3157895 43.7779474,35.7894737 L47,35.7894737 Z" id="Stroke-1"></path>
                        <path d="M37,32.4992556 C37,34.9856079 34.9844525,37 32.5,37 C30.0155475,37 28,34.9856079 28,32.4992556 C28,30.0143921 30.0155475,28 32.5,28 C34.9844525,28 37,30.0143921 37,32.4992556 Z" id="Stroke-3"></path>
                        <path d="M41.1170906,62 L41.1170906,58.9075768 C41.1170906,53.5873932 44.1730674,52.1635109 48.2802027,48.1897091 C51.976015,44.615567 55,39.1175881 55,32.1045497 C55,20.9915813 44.9774322,12 33.5,12 C22.0225678,12 12,20.9915813 12,32.1045497 C12,39.1175881 15.023985,44.615567 18.7182739,48.1897091 C22.8269326,52.1635109 25.8829094,53.5873932 25.8829094,58.9075768 L25.8829094,62" id="Stroke-5"></path>
                        <path d="M24,65 L42,65" id="Stroke-7"></path>
                        <polyline id="Stroke-9" points="41 69 38 69 36.5 71 33.5 71 30.5 71 29 69 26 69"></polyline>
                        <path d="M29,61 L38,61" id="Stroke-11"></path>
                        <path d="M26,6 L24,0" id="Stroke-13"></path>
                        <path d="M13,13 L9,9" id="Stroke-15"></path>
                        <path d="M6,26 L0,24" id="Stroke-17"></path>
                        <path d="M6,40 L0,42" id="Stroke-19"></path>
                        <path d="M13,53 L9,57" id="Stroke-21"></path>
                        <path d="M53,53 L57,57" id="Stroke-23"></path>
                        <path d="M60,40 L66,42" id="Stroke-25"></path>
                        <path d="M60,26 L66,24" id="Stroke-27"></path>
                        <path d="M53,13 L57,9" id="Stroke-29"></path>
                        <path d="M40,6 L42,0" id="Stroke-31"></path>
                    </g>
                </g>
            </g>
        </g>
    </g>
</svg>