<?xml version="1.0" encoding="UTF-8"?>
<svg width="150px" height="150px" viewBox="0 0 150 150" version="1.1" xmlns="http://www.w3.org/2000/svg" xmlns:xlink="http://www.w3.org/1999/xlink">
    <!-- Generator: Sketch 55.1 (78136) - https://sketchapp.com -->
    <title>Group 6</title>
    <desc>Created with Sketch.</desc>
    <g id="SCALEWORK-WEBSITE-WIP" stroke="none" stroke-width="1" fill="none" fill-rule="evenodd">
        <g id="SCALEWORK-Desktop-How-it-works" transform="translate(-649.000000, -4328.000000)">
            <g id="05-Data-experts" transform="translate(0.000000, 4046.000000)">
                <g id="Group-6" transform="translate(660.000000, 293.000000)">
                    <path d="M98.98318,10.3985225 C88.9284992,3.82291852 76.9106948,0 64,0 C28.653776,0 0,28.653776 0,64 C0,99.346224 28.653776,128 64,128 C99.346224,128 128,99.346224 128,64 C128,56.8687599 126.833658,50.0099335 124.681327,43.6038745" id="Path-Copy" stroke="#E3E3E3" stroke-width="21" transform="translate(64.000000, 64.000000) rotate(90.000000) translate(-64.000000, -64.000000) "></path>
                    <g id="Group-7" transform="translate(32.000000, 43.000000)" stroke="#DF265E" stroke-linejoin="round" stroke-width="2">
                        <path d="M19.8492629,6.56003273 L25.1040773,18.3841402 L37.1488047,19.4877236 C37.9394015,19.5579516 38.2858114,20.546877 37.7228953,21.1187338 L28.8754752,30.120821 L31.0922191,41.8575017 C31.2388846,42.6386094 30.4496846,43.2520298 29.7568649,42.8965899 L19.0013968,37.3528751 L8.24173832,42.85216 C7.54891856,43.2061666 6.76251226,42.5927462 6.91057455,41.8130717 L9.1259216,30.1322868 L0.277104704,21.1187338 C-0.285811351,20.5454437 0.0605985288,19.5579516 0.851195271,19.4877236 L12.8973195,18.3841402 L18.1521339,6.56003273 C18.4831788,5.81332242 19.518218,5.81332242 19.8492629,6.56003273 Z" id="Stroke-1"></path>
                        <path d="M30,14.0415669 L34.3946247,4.4544584 C34.672462,3.84851387 35.5384118,3.84851387 35.8148388,4.4544584 L40.2108739,14.0415669 L50.2877653,14.9350545 C50.9492155,14.9939658 51.2397459,15.7948786 50.7672814,16.2591555 L43.3658082,23.5585429 L45.2204076,33.0741162 C45.3431073,33.7081138 44.681657,34.2046516 44.1034169,33.9157059 L35.1054369,29.4216173" id="Stroke-3"></path>
                        <path d="M43,10.0411464 L47.3947559,0.454439367 C47.6726015,-0.151479789 48.5385771,-0.151479789 48.8150123,0.454439367 L53.2097682,10.0411464 L63.2883707,10.9359992 C63.9498407,10.9935054 64.2389694,11.7943847 63.7679012,12.2586422 L56.3662071,19.5577239 L58.2194514,29.0728988 C58.3435652,29.7068697 57.6820952,30.2047894 57.1038378,29.9158557 L48.1055893,25.4219553" id="Stroke-5"></path>
                    </g>
                </g>
            </g>
        </g>
    </g>
</svg>