<?xml version="1.0" encoding="UTF-8"?>
<svg width="221px" height="225px" viewBox="0 0 221 225" version="1.1" xmlns="http://www.w3.org/2000/svg" xmlns:xlink="http://www.w3.org/1999/xlink">
    <!-- Generator: Sketch 55.1 (78136) - https://sketchapp.com -->
    <title>SW-Ring Copy 3</title>
    <desc>Created with Sketch.</desc>
    <defs>
        <radialGradient cx="49.0613388%" cy="53.245236%" fx="49.0613388%" fy="53.245236%" r="82.6516029%" gradientTransform="translate(0.490613,0.532452),scale(0.990050,1.000000),rotate(74.870584),scale(1.000000,0.496245),translate(-0.490613,-0.532452)" id="radialGradient-1">
            <stop stop-color="#DF265E" stop-opacity="0" offset="0%"></stop>
            <stop stop-color="#FFFFFF" stop-opacity="0.343586101" offset="100%"></stop>
        </radialGradient>
        <filter x="-7.5%" y="-7.5%" width="114.9%" height="115.1%" filterUnits="objectBoundingBox" id="filter-2">
            <feGaussianBlur stdDeviation="5" in="SourceGraphic"></feGaussianBlur>
        </filter>
    </defs>
    <g id="SCALEWORK-WEBSITE-WIP" stroke="none" stroke-width="1" fill="none" fill-rule="evenodd">
        <g id="SCALEWORK-Desktop-Home" transform="translate(-1112.000000, -5268.000000)" fill="url(#radialGradient-1)">
            <g id="06-Our-Clients" transform="translate(128.000000, 4807.000000)">
                <g id="Group-6">
                    <path d="M1135.6201,547.689989 C1140.42255,555.18489 1143.32497,563.998065 1143.32497,573.507406 C1143.32497,600.154298 1121.42218,621.839151 1094.49252,621.839151 C1067.56286,621.839151 1045.66007,600.154298 1045.66007,573.507406 C1045.66007,546.845702 1067.56286,525.160849 1094.49252,525.160849 C1099.92333,525.160849 1105.06989,526.256941 1109.96211,527.886267 L1148.53137,489.700782 C1132.91217,479.806327 1114.40551,474 1094.49252,474 C1038.9875,474 994,518.554671 994,573.492594 C994,628.445329 1038.9875,673 1094.49252,673 C1149.99754,673 1195,628.445329 1195,573.492594 C1195,549.837737 1186.60692,528.108448 1172.66334,511.030145 L1135.6201,547.689989 Z" id="SW-Ring-Copy-3" filter="url(#filter-2)" transform="translate(1094.500000, 573.500000) rotate(2400.000000) translate(-1094.500000, -573.500000) "></path>
                </g>
            </g>
        </g>
    </g>
</svg>