<?xml version="1.0" encoding="UTF-8"?>
<svg width="321px" height="318px" viewBox="0 0 321 318" version="1.1" xmlns="http://www.w3.org/2000/svg" xmlns:xlink="http://www.w3.org/1999/xlink">
    <!-- Generator: Sketch 55.1 (78136) - https://sketchapp.com -->
    <title>SW-Ring</title>
    <desc>Created with Sketch.</desc>
    <defs>
        <radialGradient cx="49.0613388%" cy="53.245236%" fx="49.0613388%" fy="53.245236%" r="82.6481685%" gradientTransform="translate(0.490613,0.532452),scale(0.990654,1.000000),rotate(74.879393),scale(1.000000,0.496245),translate(-0.490613,-0.532452)" id="radialGradient-1">
            <stop stop-color="#DF265E" stop-opacity="0" offset="0%"></stop>
            <stop stop-color="#FFFFFF" stop-opacity="0.343586101" offset="100%"></stop>
        </radialGradient>
    </defs>
    <g id="SCALEWORK-WEBSITE-WIP" stroke="none" stroke-width="1" fill="none" fill-rule="evenodd">
        <g id="SCALEWORK-Desktop-Home" transform="translate(-709.000000, -4807.000000)" fill="url(#radialGradient-1)">
            <g id="06-Our-Clients" transform="translate(128.000000, 4807.000000)">
                <g id="Group-6">
                    <path d="M807.169408,117.755862 C814.839003,129.732639 819.474209,143.816003 819.474209,159.011835 C819.474209,201.593301 784.495125,236.245478 741.488054,236.245478 C698.480983,236.245478 663.501898,201.593301 663.501898,159.011835 C663.501898,116.406699 698.480983,81.7545218 741.488054,81.7545218 C750.161146,81.7545218 758.380275,83.5060662 766.193227,86.1097134 L827.78891,25.0896911 C802.844808,9.2784518 773.289393,0 741.488054,0 C652.845702,0 581,71.1979159 581,158.988165 C581,246.802084 652.845702,318 741.488054,318 C830.130406,318 902,246.802084 902,158.988165 C902,121.187942 888.59613,86.4647562 866.328024,59.1737998 L807.169408,117.755862 Z" id="SW-Ring"></path>
                </g>
            </g>
        </g>
    </g>
</svg>