<?xml version="1.0" encoding="UTF-8"?>
<svg width="239px" height="242px" viewBox="0 0 239 242" version="1.1" xmlns="http://www.w3.org/2000/svg" xmlns:xlink="http://www.w3.org/1999/xlink">
    <!-- Generator: Sketch 55.1 (78136) - https://sketchapp.com -->
    <title>SW-Ring Copy</title>
    <desc>Created with Sketch.</desc>
    <defs>
        <radialGradient cx="49.0613388%" cy="53.245236%" fx="49.0613388%" fy="53.245236%" r="82.6516029%" gradientTransform="translate(0.490613,0.532452),scale(0.990050,1.000000),rotate(74.870584),scale(1.000000,0.496245),translate(-0.490613,-0.532452)" id="radialGradient-1">
            <stop stop-color="#DF265E" stop-opacity="0" offset="0%"></stop>
            <stop stop-color="#FFFFFF" stop-opacity="0.343586101" offset="100%"></stop>
        </radialGradient>
        <filter x="-14.9%" y="-15.1%" width="129.9%" height="130.2%" filterUnits="objectBoundingBox" id="filter-2">
            <feGaussianBlur stdDeviation="10" in="SourceGraphic"></feGaussianBlur>
        </filter>
    </defs>
    <g id="SCALEWORK-WEBSITE-WIP" stroke="none" stroke-width="1" fill="none" fill-rule="evenodd">
        <g id="SCALEWORK-Desktop-Home" transform="translate(-1201.000000, -5716.000000)" fill="url(#radialGradient-1)">
            <g id="06-Our-Clients" transform="translate(128.000000, 4807.000000)">
                <g id="Group-6">
                    <path d="M1236.6201,1003.68999 C1241.42255,1011.18489 1244.32497,1019.99806 1244.32497,1029.50741 C1244.32497,1056.1543 1222.42218,1077.83915 1195.49252,1077.83915 C1168.56286,1077.83915 1146.66007,1056.1543 1146.66007,1029.50741 C1146.66007,1002.8457 1168.56286,981.160849 1195.49252,981.160849 C1200.92333,981.160849 1206.06989,982.256941 1210.96211,983.886267 L1249.53137,945.700782 C1233.91217,935.806327 1215.40551,930 1195.49252,930 C1139.9875,930 1095,974.554671 1095,1029.49259 C1095,1084.44533 1139.9875,1129 1195.49252,1129 C1250.99754,1129 1296,1084.44533 1296,1029.49259 C1296,1005.83774 1287.60692,984.108448 1273.66334,967.030145 L1236.6201,1003.68999 Z" id="SW-Ring-Copy" filter="url(#filter-2)" transform="translate(1195.500000, 1029.500000) rotate(180.000000) translate(-1195.500000, -1029.500000) "></path>
                </g>
            </g>
        </g>
    </g>
</svg>