<?xml version="1.0" encoding="UTF-8"?>
<svg width="320px" height="317px" viewBox="0 0 320 317" version="1.1" xmlns="http://www.w3.org/2000/svg" xmlns:xlink="http://www.w3.org/1999/xlink">
    <!-- Generator: Sketch 55.1 (78136) - https://sketchapp.com -->
    <title>step-4</title>
    <desc>Created with Sketch.</desc>
    <g id="SCALEWORK-WEBSITE-WIP" stroke="none" stroke-width="1" fill="none" fill-rule="evenodd">
        <g id="SCALEWORK-Desktop-Home" transform="translate(-829.000000, -2595.000000)">
            <g id="03-Quick-introduction" transform="translate(80.000000, 1953.000000)">
                <g id="Group-Copy-2" transform="translate(749.000000, 642.000000)">
                    <g id="step-4">
                        <path d="M225.464831,117.357075 C233.110532,129.293292 237.731299,143.328963 237.731299,158.473333 C237.731299,200.910595 202.861183,235.445421 159.988091,235.445421 C117.114998,235.445421 82.2448828,200.910595 82.2448828,158.473333 C82.2448828,116.012482 117.114998,81.477656 159.988091,81.477656 C168.634164,81.477656 176.827689,83.2232687 184.616301,85.8180985 L246.020097,25.0047236 C221.153703,9.24702986 191.690361,1.13686838e-13 159.988091,1.13686838e-13 C71.6218831,1.13686838e-13 0,70.9568005 0,158.449744 C0,245.966276 71.6218831,316.923077 159.988091,316.923077 C248.354298,316.923077 320,245.966276 320,158.449744 C320,120.777533 306.637886,86.171939 284.439151,58.9734047 L225.464831,117.357075 Z" id="SW-Ring" fill-opacity="0.2" fill="#E3E3E3" transform="translate(160.000000, 158.461538) rotate(180.000000) translate(-160.000000, -158.461538) "></path>
                        <g id="secure" transform="translate(121.000000, 106.000000)" stroke="#E3E3E3" stroke-linejoin="round" stroke-width="2">
                            <path d="M38.5,97 C34.996875,97 10,73.4823905 10,54.1801567 L10,32.770235 C19.5,32.770235 33.75,23.2547142 38.49525,15 C43.25,23.2547142 57.5,32.770235 67,32.770235 L67,54.1801567 C67,73.4823905 42.003125,97 38.5,97 Z" id="Stroke-1"></path>
                            <polyline id="Stroke-3" points="19 53.6 33.25 68 57 44"></polyline>
                            <path d="M76,53.6871105 C76,79.6628403 42.75,108 38,108 C33.25,108 0,79.6628403 0,53.6871105 L0,25.3499508 C9.5,25.3499508 28.5,13.5428009 38,0 C47.5,13.5428009 66.5,25.3499508 76,25.3499508 L76,53.6871105 Z" id="Stroke-5"></path>
                        </g>
                    </g>
                </g>
            </g>
        </g>
    </g>
</svg>