<?xml version="1.0" encoding="UTF-8"?>
<svg width="320px" height="318px" viewBox="0 0 320 318" version="1.1" xmlns="http://www.w3.org/2000/svg" xmlns:xlink="http://www.w3.org/1999/xlink">
    <!-- Generator: Sketch 55.1 (78136) - https://sketchapp.com -->
    <title>Group 9</title>
    <desc>Created with Sketch.</desc>
    <g id="SCALEWORK-WEBSITE-WIP" stroke="none" stroke-width="1" fill="none" fill-rule="evenodd">
        <g id="SCALEWORK-Desktop-Home" transform="translate(-146.000000, -2419.000000)">
            <g id="03-Quick-introduction" transform="translate(80.000000, 1953.000000)">
                <g id="Group-Copy" transform="translate(0.000000, 400.000000)">
                    <g id="Group-9">
                        <path d="M291.464831,184.357075 C299.110532,196.293292 303.731299,210.328963 303.731299,225.473333 C303.731299,267.910595 268.861183,302.445421 225.988091,302.445421 C183.114998,302.445421 148.244883,267.910595 148.244883,225.473333 C148.244883,183.012482 183.114998,148.477656 225.988091,148.477656 C234.634164,148.477656 242.827689,150.223269 250.616301,152.818099 L312.020097,92.0047236 C287.153703,76.2470299 257.690361,67 225.988091,67 C137.621883,67 66,137.956801 66,225.449744 C66,312.966276 137.621883,383.923077 225.988091,383.923077 C314.354298,383.923077 386,312.966276 386,225.449744 C386,187.777533 372.637886,153.171939 350.439151,125.973405 L291.464831,184.357075 Z" id="SW-Ring" fill-opacity="0.2" fill="#E3E3E3" transform="translate(226.000000, 225.461538) rotate(135.000000) translate(-226.000000, -225.461538) "></path>
                        <g id="select" transform="translate(172.000000, 173.000000)" stroke="#E3E3E3" stroke-width="2">
                            <path d="M65,76 L65,68.4912398 C65.0023993,65.6379109 58.3999995,61 53.0047997,61 C47.6095998,61 41.0024,65.6379109 41,68.4912398 L41,76" id="Stroke-1"></path>
                            <path d="M80,59 C80,73.9113636 68.1352273,86 53.5,86 C38.8647727,86 27,73.9113636 27,59 C27,44.0886364 38.8647727,32 53.5,32 C68.1352273,32 80,44.0886364 80,59 Z" id="Stroke-3"></path>
                            <path d="M53.5,61 C48.99,61 46,57.3551508 46,52.8581658 L46,50.1418342 C46,45.6448492 48.99,42 53.5,42 C58.01,42 61,45.6448492 61,50.1418342 L61,52.8581658 C61,57.3551508 58.01,61 53.5,61 Z" id="Stroke-5"></path>
                            <path d="M46,26.4912398 C46.0023993,23.6379109 39.3999995,19 34.0047997,19 C28.6095998,19 22.0024,23.6379109 22,26.4912398 L22,34" id="Stroke-7"></path>
                            <path d="M34.5,19 C29.99,19 27,15.3551508 27,10.8581658 L27,8.14183417 C27,3.64484925 29.99,0 34.5,0 C39.01,0 42,3.64484925 42,8.14183417 L42,10.8581658 C42,15.3551508 39.01,19 34.5,19 Z" id="Stroke-9"></path>
                            <path d="M61,26.4912398 C61,23.6379109 67.6024,19 72.9952,19 C78.3904,19 85,23.6379109 85,26.4912398 L85,34" id="Stroke-11"></path>
                            <path d="M72.5,19 C77.01,19 80,15.3551508 80,10.8581658 L80,8.14183417 C80,3.64484925 77.01,0 72.5,0 C67.99,0 65,3.64484925 65,8.14183417 L65,10.8581658 C65,15.3551508 67.99,19 72.5,19 Z" id="Stroke-13"></path>
                            <path d="M107,73 L107,65.4912398 C107.002444,62.6379109 100.277777,58 94.7826664,58 C91.3604443,58 87.4566666,59.8021025 85,61.8469882" id="Stroke-15"></path>
                            <path d="M94.5,58 C89.99,58 87,54.3551508 87,49.8581658 L87,47.1418342 C87,42.6448492 89.99,39 94.5,39 C99.01,39 102,42.6448492 102,47.1418342 L102,49.8581658 C102,54.3551508 99.01,58 94.5,58 Z" id="Stroke-17"></path>
                            <path d="M0,73 L0,65.4912398 C0,62.6379109 6.72222222,58 12.2173333,58 C15.6395556,58 19.5433333,59.8021025 22,61.8469882" id="Stroke-19"></path>
                            <path d="M12.5,58 C17.01,58 20,54.3551508 20,49.8581658 L20,47.1418342 C20,42.6448492 17.01,39 12.5,39 C7.99,39 5,42.6448492 5,47.1418342 L5,49.8581658 C5,54.3551508 7.99,58 12.5,58 Z" id="Stroke-21"></path>
                            <path d="M75.6927379,73 L96.5577678,93.8646162 C98.4807441,95.7875543 98.4807441,98.8981895 96.5577678,100.818669 L94.8192202,102.559641 C92.8987031,104.48012 89.7830881,104.48012 87.8650299,102.559641 L67,81.6925655" id="Stroke-23"></path>
                        </g>
                    </g>
                </g>
            </g>
        </g>
    </g>
</svg>