<?xml version="1.0" encoding="UTF-8"?>
<svg width="320px" height="317px" viewBox="0 0 320 317" version="1.1" xmlns="http://www.w3.org/2000/svg" xmlns:xlink="http://www.w3.org/1999/xlink">
    <!-- Generator: Sketch 55.1 (78136) - https://sketchapp.com -->
    <title>step-1</title>
    <desc>Created with Sketch.</desc>
    <g id="SCALEWORK-WEBSITE-WIP" stroke="none" stroke-width="1" fill="none" fill-rule="evenodd">
        <g id="SCALEWORK-Desktop-Home" transform="translate(-156.000000, -1961.000000)">
            <g id="03-Quick-introduction" transform="translate(80.000000, 1953.000000)">
                <g id="Group" transform="translate(74.000000, 8.000000)">
                    <g id="step-1" transform="translate(2.000000, 0.000000)">
                        <path d="M225.464831,117.357075 C233.110532,129.293292 237.731299,143.328963 237.731299,158.473333 C237.731299,200.910595 202.861183,235.445421 159.988091,235.445421 C117.114998,235.445421 82.2448828,200.910595 82.2448828,158.473333 C82.2448828,116.012482 117.114998,81.477656 159.988091,81.477656 C168.634164,81.477656 176.827689,83.2232687 184.616301,85.8180985 L246.020097,25.0047236 C221.153703,9.24702986 191.690361,1.13686838e-13 159.988091,1.13686838e-13 C71.6218831,1.13686838e-13 0,70.9568005 0,158.449744 C0,245.966276 71.6218831,316.923077 159.988091,316.923077 C248.354298,316.923077 320,245.966276 320,158.449744 C320,120.777533 306.637886,86.171939 284.439151,58.9734047 L225.464831,117.357075 Z" id="SW-Ring" fill-opacity="0.2" fill="#E3E3E3"></path>
                        <g id="search" transform="translate(128.000000, 132.000000)" stroke="#E3E3E3" stroke-linejoin="round" stroke-width="2">
                            <path d="M52,26.5 C52,41.1357941 40.3596471,53 26,53 C11.6403529,53 0,41.1357941 0,26.5 C0,11.8642059 11.6403529,0 26,0 C40.3596471,0 52,11.8642059 52,26.5 Z" id="Stroke-1"></path>
                            <path d="M47.3202037,43 L64.8786813,60.487995 C66.3652088,61.9696675 66.3757408,64.3929779 64.8982408,65.8868202 C63.4372912,67.363929 61.0720876,67.3715352 59.5991013,65.9065961 L42,48.3790493" id="Stroke-3"></path>
                        </g>
                    </g>
                </g>
            </g>
        </g>
    </g>
</svg>