<?xml version="1.0" encoding="UTF-8"?>
<svg width="322px" height="323px" viewBox="0 0 322 323" version="1.1" xmlns="http://www.w3.org/2000/svg" xmlns:xlink="http://www.w3.org/1999/xlink">
    <!-- Generator: Sketch 55.1 (78136) - https://sketchapp.com -->
    <title>step-2</title>
    <desc>Created with Sketch.</desc>
    <g id="SCALEWORK-WEBSITE-WIP" stroke="none" stroke-width="1" fill="none" fill-rule="evenodd">
        <g id="SCALEWORK-Desktop-Home" transform="translate(-856.000000, -2181.000000)">
            <g id="03-Quick-introduction" transform="translate(80.000000, 1953.000000)">
                <g id="Group" transform="translate(717.000000, 169.000000)">
                    <g id="Group-4" transform="translate(0.672105, 0.644882)">
                        <g id="step-2">
                            <path d="M285.578563,178.496464 C293.295943,190.548567 297.96003,204.720506 297.96003,220.011909 C297.96003,262.861183 262.763007,297.731299 219.487979,297.731299 C176.212951,297.731299 141.015929,262.861183 141.015929,220.011909 C141.015929,177.138817 176.212951,142.268701 219.487979,142.268701 C228.21511,142.268701 236.485448,144.031262 244.347079,146.651284 L306.326535,85.2474879 C281.227019,69.3368068 251.487458,60 219.487979,60 C130.293338,60 58,131.645702 58,219.988091 C58,308.354298 130.293338,380 219.487979,380 C308.68262,380 381,308.354298 381,219.988091 C381,181.95013 367.512616,147.00856 345.105769,119.545962 L285.578563,178.496464 Z" id="SW-Ring" fill-opacity="0.202038" fill="#E3E3E3" transform="translate(219.500000, 220.000000) rotate(60.000000) translate(-219.500000, -220.000000) "></path>
                            <g id="data-experts" transform="translate(175.327895, 171.355118)" stroke="#E3E3E3" stroke-width="2">
                                <path d="M75.0200777,67.5584253 L85.1289242,67.5584253 C86.3612479,67.5584253 87.1385598,66.262708 86.5584197,65.1947681 C85.7583572,63.7272843 85.0796312,62.3307475 85.2047595,61.9125332 C85.3867642,61.2628076 86.4750009,61.0798388 89.0192755,59.5899507 C91.56355,58.1075306 91.2829594,56.0650022 90.2478074,54.4854966 C89.2088637,52.9059911 82.3192261,44.0824177 82.1372213,41.3938977 C82.0196766,39.6500937 84.1392734,35.2663124 82.6566932,28.3695117 C81.1703212,21.4764451 72.9194397,-0.614227924 42.8696992,0.0130934178 C12.8123752,0.636680705 0,20.7819107 0,35.0572053 C0,49.3324999 7.35602481,56.2778433 9.74862875,63.2119846 C12.9071693,72.3641549 14.5945049,82.9576707 8.70968504,95" id="Stroke-1"></path>
                                <path d="M55,95 C56.2976914,89.5642309 58.7618469,84.9322656 61,84" id="Stroke-3"></path>
                                <path d="M50,72.048382 C51.9973026,77.5676573 53.4971637,82.4914612 55.4002539,83.0869325 C58.2530049,83.9838613 69.5848705,87.158468 73.8545758,85.554417 C78.124281,83.950366 77.2839066,80.1095757 77.347971,78.9632933 C77.4987108,76.1348043 80.3891468,75.79613 79.9557698,72" id="Stroke-5"></path>
                                <path d="M27,25.0017694 C27,28.3176054 24.3113208,31 21,31 C17.6851415,31 15,28.3176054 15,25.0017694 C15,21.6859334 17.6851415,19 21,19 C24.3113208,19 27,21.6859334 27,25.0017694 Z" id="Stroke-7"></path>
                                <path d="M70,25.0017694 C70,28.3176054 67.3113208,31 64,31 C60.6851415,31 58,28.3176054 58,25.0017694 C58,21.6859334 60.6851415,19 64,19 C67.3113208,19 70,21.6859334 70,25.0017694 Z" id="Stroke-9"></path>
                                <path d="M48,14.0017694 C48,17.3176054 45.3148585,20 42.0035377,20 C38.6886792,20 36,17.3176054 36,14.0017694 C36,10.6859334 38.6886792,8 42.0035377,8 C45.3148585,8 48,10.6859334 48,14.0017694 Z" id="Stroke-11"></path>
                                <path d="M42.5,20 L42.5,81" id="Stroke-13"></path>
                                <polyline id="Stroke-15" points="60 29 52 37.0007077 52 49"></polyline>
                                <polyline id="Stroke-17" points="25 29 33 37.0007077 33 49"></polyline>
                                <path d="M25,44.9982306 C25,48.3140666 22.3113208,51 19,51 C15.6851415,51 13,48.3140666 13,44.9982306 C13,41.6823946 15.6851415,39 19,39 C22.3113208,39 25,41.6823946 25,44.9982306 Z" id="Stroke-19"></path>
                                <polyline id="Stroke-21" points="23 50 31 58.193581 31 93"></polyline>
                                <path d="M72,44.9982306 C72,48.3140666 69.3113208,51 66,51 C62.6851415,51 60,48.3140666 60,44.9982306 C60,41.6823946 62.6851415,39 66,39 C69.3113208,39 72,41.6823946 72,44.9982306 Z" id="Stroke-23"></path>
                                <polyline id="Stroke-25" points="61 50 50 59.9984837 50 64"></polyline>
                            </g>
                        </g>
                    </g>
                </g>
            </g>
        </g>
    </g>
</svg>