<svg height="448pt" viewBox="0 0 448.02519 448" width="448pt" xmlns="http://www.w3.org/2000/svg"><path d="m272 168.011719c29.222656-.011719 57.558594 10.027343 80.257812 28.433593l28.429688-28.433593-100.6875-100.6875-56 56v12.6875c-.054688 3.71875-.632812 7.40625-1.71875 10.960937l23.703125 23.710938c8.558594-1.777344 17.273437-2.671875 26.015625-2.671875zm0 0"/><path d="m24 160.011719h56c1.667969 0 3.292969.523437 4.648438 1.496093l39.535156 28.242188-4-20.167969c-.46875-2.347656.136718-4.777343 1.648437-6.628906 1.515625-1.855469 3.777344-2.933594 6.167969-2.941406h56c13.253906 0 24-10.746094 24-24v-112c0-13.253907-10.746094-24.0000002-24-24.0000002h-160c-13.253906 0-24 10.7460932-24 24.0000002v112c0 13.253906 10.746094 24 24 24zm-8-136h16v56l9.601562-12.800781c1.574219-1.910157 3.921876-3.019532 6.398438-3.019532s4.824219 1.109375 6.398438 3.019532l17.21875 22.960937 25.726562-38.597656c1.398438-2.101563 3.707031-3.417969 6.226562-3.554688 2.519532-.132812 4.957032.925781 6.574219 2.863281l32.527344 39.042969 34.335937-61.792969 13.984376 7.761719-40 72c-1.28125 2.304688-3.613282 3.828125-6.238282 4.078125-.25.027344-.503906.042969-.753906.039063-2.371094.003906-4.625-1.050781-6.144531-2.871094l-33.144531-39.777344-26.054688 39.089844c-1.433594 2.148437-3.816406 3.476563-6.398438 3.558594-2.585937.015625-5.03125-1.164063-6.625-3.199219l-17.632812-23.464844-16 21.328125v21.335938h160v16h-168c-4.417969 0-8-3.582031-8-8zm0 0"/><path d="m375.585938 221.117188 26.566406-26.570313-3.359375-22.582031c-.300781.617187-.683594 1.1875-1.136719 1.703125l-33.601562 33.601562c4.164062 4.339844 8.015624 8.964844 11.53125 13.847657zm0 0"/><path d="m285.65625 50.355469 111.648438 111.648437-12.375-83.199218c-11.074219-3.5-18.023438-14.457032-16.472657-25.964844 1.554688-11.507813 11.160157-20.230469 22.765625-20.667969 11.601563-.4375 21.839844 7.535156 24.257813 18.890625 2.417969 11.359375-3.6875 22.808594-14.464844 27.132812l15.199219 102.25 31.394531-31.394531-14.855469-133.796875-133.816406-14.867187-74.9375 74.9375v25.375l50.34375-50.34375c3.125-3.121094 8.1875-3.121094 11.3125 0zm0 0"/><path d="m177.015625 381.507812-24.160156 24.160157-11.3125-11.3125 25.410156-25.40625c-3.742187-5.417969-7.0625-11.117188-9.929687-17.046875l-28.96875 28.964844-11.3125-11.3125 33.699218-33.6875c-2.328125-7.148438-4.015625-14.492188-5.042968-21.941407l-42.140626 42.144531-11.3125-11.3125 52-52 .207032.207032c1.316406-52.6875 34.777344-99.1875 84.320312-117.167969l-14.082031-14.082031c-7.519531 9.019531-18.644531 14.253906-30.390625 14.296875h-46.238281l6.078125 30.402343c.644531 3.214844-.742188 6.503907-3.496094 8.285157-1.292969.84375-2.800781 1.300781-4.34375 1.3125-1.667969.003906-3.292969-.519531-4.648438-1.496094l-27.152343-19.390625-100.886719 100.886719 148.6875 148.6875 45.105469-45.101563c-7.3125-5.308594-14.046875-11.371094-20.089844-18.089844zm-134.671875-86.351562 52-52 11.3125 11.3125-52 52zm24.800781 24.800781 52-52 11.3125 11.3125-52 52zm0 0"/><path d="m400 56.011719c0 4.417969-3.582031 8-8 8s-8-3.582031-8-8 3.582031-8 8-8 8 3.582031 8 8zm0 0"/><path d="m272 184.011719c-61.855469 0-112 50.144531-112 112s50.144531 112 112 112 112-50.144531 112-112c-.066406-61.828125-50.171875-111.933594-112-112zm0 208c-53.019531 0-96-42.980469-96-96s42.980469-96 96-96 96 42.980469 96 96c-.058594 52.996093-43.003906 95.945312-96 96zm0 0"/><path d="m272 216.011719c-44.183594 0-80 35.816406-80 80 0 44.183593 35.816406 80 80 80s80-35.816407 80-80c-.046875-44.160157-35.835938-79.949219-80-80zm-8 72h16c13.253906 0 24 10.746093 24 24v8c0 13.253906-10.746094 24-24 24v16h-16v-16c-13.253906 0-24-10.746094-24-24h16c0 4.417969 3.582031 8 8 8h16c4.417969 0 8-3.582031 8-8v-8c0-4.417969-3.582031-8-8-8h-16c-13.253906 0-24-10.746094-24-24v-8c0-13.253907 10.746094-24 24-24v-16h16v16c13.253906 0 24 10.746093 24 24h-16c0-4.417969-3.582031-8-8-8h-16c-4.417969 0-8 3.582031-8 8v8c0 4.417969 3.582031 8 8 8zm0 0"/><path d="m447.785156 242.828125-12.539062-58.75-16.046875 16.085937 6.847656 46.007813c.457031 4.015625 3.074219 7.457031 6.820313 8.972656 3.75 1.515625 8.023437.859375 11.140624-1.710937 3.121094-2.566406 4.585938-6.636719 3.816407-10.605469zm0 0"/><path d="m372.160156 375.484375c-3.738281 4.6875-7.804687 9.105469-12.160156 13.222656l56.679688 56.679688c2.566406 2.574219 6.425781 3.347656 9.785156 1.957031 3.355468-1.390625 5.539062-4.667969 5.535156-8.300781-.007812-2.375-.953125-4.652344-2.625-6.34375zm0 0"/></svg>