<?xml version="1.0" encoding="UTF-8"?>
<svg width="258px" height="246px" viewBox="0 0 258 246" version="1.1" xmlns="http://www.w3.org/2000/svg" xmlns:xlink="http://www.w3.org/1999/xlink">
    <!-- Generator: Sketch 55.1 (78136) - https://sketchapp.com -->
    <title>Group 2</title>
    <desc>Created with Sketch.</desc>
    <g id="SCALEWORK-WEBSITE-WIP" stroke="none" stroke-width="1" fill="none" fill-rule="evenodd">
        <g id="SCALEWORK-Desktop-Industry-Solutions" transform="translate(-574.000000, -1776.000000)">
            <g id="Group-2" transform="translate(574.000000, 1776.824468)">
                <g id="Group-11" transform="translate(6.000000, 4.986702)" fill="#8E24AA">
                    <path d="M126.5,228.058511 C113.8155,228.058511 103.5,217.919548 103.5,205.452128 C103.5,192.984707 113.8155,182.845745 126.5,182.845745 C139.1845,182.845745 149.5,192.984707 149.5,205.452128 C149.5,217.919548 139.1845,228.058511 126.5,228.058511 M126.5,171.542553 C107.47325,171.542553 92,186.750997 92,205.452128 C92,224.153258 107.47325,239.361702 126.5,239.361702 C145.52675,239.361702 161,224.153258 161,205.452128 C161,186.750997 145.52675,171.542553 126.5,171.542553" id="Fill-1"></path>
                    <path d="M217.5,228.058511 C204.8155,228.058511 194.5,217.919548 194.5,205.452128 C194.5,192.984707 204.8155,182.845745 217.5,182.845745 C230.1845,182.845745 240.5,192.984707 240.5,205.452128 C240.5,217.919548 230.1845,228.058511 217.5,228.058511 M217.5,171.542553 C198.47325,171.542553 183,186.750997 183,205.452128 C183,224.153258 198.47325,239.361702 217.5,239.361702 C236.52675,239.361702 252,224.153258 252,205.452128 C252,186.750997 236.52675,171.542553 217.5,171.542553" id="Fill-3"></path>
                    <path d="M34.5,228.058511 C21.8155,228.058511 11.5,217.919548 11.5,205.452128 C11.5,192.984707 21.8155,182.845745 34.5,182.845745 C47.1845,182.845745 57.5,192.984707 57.5,205.452128 C57.5,217.919548 47.1845,228.058511 34.5,228.058511 M34.5,171.542553 C15.47325,171.542553 0,186.750997 0,205.452128 C0,224.153258 15.47325,239.361702 34.5,239.361702 C53.52675,239.361702 69,224.153258 69,205.452128 C69,186.750997 53.52675,171.542553 34.5,171.542553" id="Fill-5"></path>
                    <path d="M86.4444444,17.0545213 C86.4444444,13.9164894 89.008,11.3696809 92.1666667,11.3696809 L160.833333,11.3696809 C163.992,11.3696809 166.555556,13.9164894 166.555556,17.0545213 L166.555556,39.793883 C166.555556,42.9319149 163.992,45.4787234 160.833333,45.4787234 L92.1666667,45.4787234 C89.008,45.4787234 86.4444444,42.9319149 86.4444444,39.793883 L86.4444444,17.0545213 Z M92.1666667,56.8484043 L160.833333,56.8484043 C170.297889,56.8484043 178,49.196609 178,39.793883 L178,17.0545213 C178,7.65179521 170.297889,0 160.833333,0 L92.1666667,0 C82.7021111,0 75,7.65179521 75,17.0545213 L75,39.793883 C75,49.196609 82.7021111,56.8484043 92.1666667,56.8484043 L92.1666667,56.8484043 Z" id="Fill-7"></path>
                    <path d="M28.75,159.574468 C31.92975,159.574468 34.5,157.011054 34.5,153.839761 L34.5,125.166223 C34.5,122.000665 37.076,119.431516 40.25,119.431516 L120.75,119.431516 L120.75,153.839761 C120.75,157.011054 123.32025,159.574468 126.5,159.574468 C129.67975,159.574468 132.25,157.011054 132.25,153.839761 L132.25,119.431516 L212.75,119.431516 C215.924,119.431516 218.5,122.000665 218.5,125.166223 L218.5,153.839761 C218.5,157.011054 221.07025,159.574468 224.25,159.574468 C227.42975,159.574468 230,157.011054 230,153.839761 L230,125.166223 C230,115.681017 222.2605,107.962101 212.75,107.962101 L132.25,107.962101 L132.25,73.5538564 C132.25,70.3825632 129.67975,67.8191489 126.5,67.8191489 C123.32025,67.8191489 120.75,70.3825632 120.75,73.5538564 L120.75,107.962101 L40.25,107.962101 C30.7395,107.962101 23,115.681017 23,125.166223 L23,153.839761 C23,157.011054 25.57025,159.574468 28.75,159.574468" id="Fill-9"></path>
                </g>
                <g id="Group-11" transform="translate(0.000000, -0.000000)" fill="#6A1B9A">
                    <path d="M126.5,228.058511 C113.8155,228.058511 103.5,217.919548 103.5,205.452128 C103.5,192.984707 113.8155,182.845745 126.5,182.845745 C139.1845,182.845745 149.5,192.984707 149.5,205.452128 C149.5,217.919548 139.1845,228.058511 126.5,228.058511 M126.5,171.542553 C107.47325,171.542553 92,186.750997 92,205.452128 C92,224.153258 107.47325,239.361702 126.5,239.361702 C145.52675,239.361702 161,224.153258 161,205.452128 C161,186.750997 145.52675,171.542553 126.5,171.542553" id="Fill-1"></path>
                    <path d="M217.5,228.058511 C204.8155,228.058511 194.5,217.919548 194.5,205.452128 C194.5,192.984707 204.8155,182.845745 217.5,182.845745 C230.1845,182.845745 240.5,192.984707 240.5,205.452128 C240.5,217.919548 230.1845,228.058511 217.5,228.058511 M217.5,171.542553 C198.47325,171.542553 183,186.750997 183,205.452128 C183,224.153258 198.47325,239.361702 217.5,239.361702 C236.52675,239.361702 252,224.153258 252,205.452128 C252,186.750997 236.52675,171.542553 217.5,171.542553" id="Fill-3"></path>
                    <path d="M34.5,228.058511 C21.8155,228.058511 11.5,217.919548 11.5,205.452128 C11.5,192.984707 21.8155,182.845745 34.5,182.845745 C47.1845,182.845745 57.5,192.984707 57.5,205.452128 C57.5,217.919548 47.1845,228.058511 34.5,228.058511 M34.5,171.542553 C15.47325,171.542553 0,186.750997 0,205.452128 C0,224.153258 15.47325,239.361702 34.5,239.361702 C53.52675,239.361702 69,224.153258 69,205.452128 C69,186.750997 53.52675,171.542553 34.5,171.542553" id="Fill-5"></path>
                    <path d="M86.4444444,17.0545213 C86.4444444,13.9164894 89.008,11.3696809 92.1666667,11.3696809 L160.833333,11.3696809 C163.992,11.3696809 166.555556,13.9164894 166.555556,17.0545213 L166.555556,39.793883 C166.555556,42.9319149 163.992,45.4787234 160.833333,45.4787234 L92.1666667,45.4787234 C89.008,45.4787234 86.4444444,42.9319149 86.4444444,39.793883 L86.4444444,17.0545213 Z M92.1666667,56.8484043 L160.833333,56.8484043 C170.297889,56.8484043 178,49.196609 178,39.793883 L178,17.0545213 C178,7.65179521 170.297889,0 160.833333,0 L92.1666667,0 C82.7021111,0 75,7.65179521 75,17.0545213 L75,39.793883 C75,49.196609 82.7021111,56.8484043 92.1666667,56.8484043 L92.1666667,56.8484043 Z" id="Fill-7"></path>
                    <path d="M28.75,159.574468 C31.92975,159.574468 34.5,157.011054 34.5,153.839761 L34.5,125.166223 C34.5,122.000665 37.076,119.431516 40.25,119.431516 L120.75,119.431516 L120.75,153.839761 C120.75,157.011054 123.32025,159.574468 126.5,159.574468 C129.67975,159.574468 132.25,157.011054 132.25,153.839761 L132.25,119.431516 L212.75,119.431516 C215.924,119.431516 218.5,122.000665 218.5,125.166223 L218.5,153.839761 C218.5,157.011054 221.07025,159.574468 224.25,159.574468 C227.42975,159.574468 230,157.011054 230,153.839761 L230,125.166223 C230,115.681017 222.2605,107.962101 212.75,107.962101 L132.25,107.962101 L132.25,73.5538564 C132.25,70.3825632 129.67975,67.8191489 126.5,67.8191489 C123.32025,67.8191489 120.75,70.3825632 120.75,73.5538564 L120.75,107.962101 L40.25,107.962101 C30.7395,107.962101 23,115.681017 23,125.166223 L23,153.839761 C23,157.011054 25.57025,159.574468 28.75,159.574468" id="Fill-9"></path>
                </g>
            </g>
        </g>
    </g>
</svg>