<?xml version="1.0" encoding="UTF-8"?>
<svg width="286px" height="286px" viewBox="0 0 286 286" version="1.1" xmlns="http://www.w3.org/2000/svg" xmlns:xlink="http://www.w3.org/1999/xlink">
    <!-- Generator: Sketch 55.1 (78136) - https://sketchapp.com -->
    <title>Group 3</title>
    <desc>Created with Sketch.</desc>
    <g id="SCALEWORK-WEBSITE-WIP" stroke="none" stroke-width="1" fill="none" fill-rule="evenodd" stroke-linecap="round" stroke-linejoin="round">
        <g id="SCALEWORK-Desktop-Industry-Solutions" transform="translate(-550.000000, -2172.000000)" stroke-width="10">
            <g id="Group-3" transform="translate(555.000000, 2177.000000)">
                <g id="Customer-Segmentation" transform="translate(4.000000, 4.000000)" stroke="#8E24AA">
                    <path d="M160.25,159 L184,159 L184,100.428571 C184,87.4901429 173.365938,77 160.25,77 L112.75,77 C99.6340625,77 89,87.4901429 89,100.428571 L89,159 L112.75,159" id="Stroke-1"></path>
                    <path d="M160,42.5 C160,29.522125 149.477875,19 136.5,19 C123.522125,19 113,29.522125 113,42.5 C113,55.477875 123.522125,66 136.5,66 C149.477875,66 160,55.477875 160,42.5 Z" id="Stroke-3"></path>
                    <path d="M113,135 L113,241.2 C113,247.7136 118.264,253 124.75,253 L148.25,253 C154.736,253 160,247.7136 160,241.2 L160,135" id="Stroke-5"></path>
                    <path d="M136.5,174 L136.5,251" id="Stroke-7"></path>
                    <path d="M35,17.5 C35,27.1658333 27.1658333,35 17.5,35 C7.83416667,35 0,27.1658333 0,17.5 C0,7.83416667 7.83416667,0 17.5,0 C27.1658333,0 35,7.83416667 35,17.5 Z" id="Stroke-9"></path>
                    <path d="M35,136.5 C35,146.165833 27.1658333,154 17.5,154 C7.83416667,154 0,146.165833 0,136.5 C0,126.834167 7.83416667,119 17.5,119 C27.1658333,119 35,126.834167 35,136.5 Z" id="Stroke-11"></path>
                    <path d="M35,254.5 C35,264.165833 27.1658333,272 17.5,272 C7.83416667,272 0,264.165833 0,254.5 C0,244.834167 7.83416667,237 17.5,237 C27.1658333,237 35,244.834167 35,254.5 Z" id="Stroke-13"></path>
                    <path d="M272,254.5 C272,264.165833 264.165833,272 254.5,272 C244.834167,272 237,264.165833 237,254.5 C237,244.834167 244.834167,237 254.5,237 C264.165833,237 272,244.834167 272,254.5 Z" id="Stroke-15"></path>
                    <path d="M272,136.5 C272,146.165833 264.165833,154 254.5,154 C244.834167,154 237,146.165833 237,136.5 C237,126.834167 244.834167,119 254.5,119 C264.165833,119 272,126.834167 272,136.5 Z" id="Stroke-17"></path>
                    <path d="M272,17.5 C272,27.1658333 264.165833,35 254.5,35 C244.834167,35 237,27.1658333 237,17.5 C237,7.83416667 244.834167,0 254.5,0 C264.165833,0 272,7.83416667 272,17.5 Z" id="Stroke-19"></path>
                    <path d="M35,136.5 L70,136.5" id="Stroke-21"></path>
                    <path d="M202,136.5 L237,136.5" id="Stroke-23"></path>
                    <polyline id="Stroke-25" points="35 19 65 19 89 42"></polyline>
                    <polyline id="Stroke-27" points="35 253 65 253 89 230"></polyline>
                    <polyline id="Stroke-29" points="237 253 207 253 183 230"></polyline>
                    <polyline id="Stroke-31" points="237 19 207 19 183 42"></polyline>
                </g>
                <g id="Customer-Segmentation" stroke="#6A1B9A">
                    <path d="M160.25,159 L184,159 L184,100.428571 C184,87.4901429 173.365938,77 160.25,77 L112.75,77 C99.6340625,77 89,87.4901429 89,100.428571 L89,159 L112.75,159" id="Stroke-1"></path>
                    <path d="M160,42.5 C160,29.522125 149.477875,19 136.5,19 C123.522125,19 113,29.522125 113,42.5 C113,55.477875 123.522125,66 136.5,66 C149.477875,66 160,55.477875 160,42.5 Z" id="Stroke-3"></path>
                    <path d="M113,135 L113,241.2 C113,247.7136 118.264,253 124.75,253 L148.25,253 C154.736,253 160,247.7136 160,241.2 L160,135" id="Stroke-5"></path>
                    <path d="M136.5,174 L136.5,251" id="Stroke-7"></path>
                    <path d="M35,17.5 C35,27.1658333 27.1658333,35 17.5,35 C7.83416667,35 0,27.1658333 0,17.5 C0,7.83416667 7.83416667,0 17.5,0 C27.1658333,0 35,7.83416667 35,17.5 Z" id="Stroke-9"></path>
                    <path d="M35,136.5 C35,146.165833 27.1658333,154 17.5,154 C7.83416667,154 0,146.165833 0,136.5 C0,126.834167 7.83416667,119 17.5,119 C27.1658333,119 35,126.834167 35,136.5 Z" id="Stroke-11"></path>
                    <path d="M35,254.5 C35,264.165833 27.1658333,272 17.5,272 C7.83416667,272 0,264.165833 0,254.5 C0,244.834167 7.83416667,237 17.5,237 C27.1658333,237 35,244.834167 35,254.5 Z" id="Stroke-13"></path>
                    <path d="M272,254.5 C272,264.165833 264.165833,272 254.5,272 C244.834167,272 237,264.165833 237,254.5 C237,244.834167 244.834167,237 254.5,237 C264.165833,237 272,244.834167 272,254.5 Z" id="Stroke-15"></path>
                    <path d="M272,136.5 C272,146.165833 264.165833,154 254.5,154 C244.834167,154 237,146.165833 237,136.5 C237,126.834167 244.834167,119 254.5,119 C264.165833,119 272,126.834167 272,136.5 Z" id="Stroke-17"></path>
                    <path d="M272,17.5 C272,27.1658333 264.165833,35 254.5,35 C244.834167,35 237,27.1658333 237,17.5 C237,7.83416667 244.834167,0 254.5,0 C264.165833,0 272,7.83416667 272,17.5 Z" id="Stroke-19"></path>
                    <path d="M35,136.5 L70,136.5" id="Stroke-21"></path>
                    <path d="M202,136.5 L237,136.5" id="Stroke-23"></path>
                    <polyline id="Stroke-25" points="35 19 65 19 89 42"></polyline>
                    <polyline id="Stroke-27" points="35 253 65 253 89 230"></polyline>
                    <polyline id="Stroke-29" points="237 253 207 253 183 230"></polyline>
                    <polyline id="Stroke-31" points="237 19 207 19 183 42"></polyline>
                </g>
            </g>
        </g>
    </g>
</svg>