<?xml version="1.0" encoding="UTF-8"?>
<svg width="253px" height="220px" viewBox="0 0 253 220" version="1.1" xmlns="http://www.w3.org/2000/svg" xmlns:xlink="http://www.w3.org/1999/xlink">
    <!-- Generator: Sketch 55.1 (78136) - https://sketchapp.com -->
    <title>Group 10</title>
    <desc>Created with Sketch.</desc>
    <g id="SCALEWORK-WEBSITE-WIP" stroke="none" stroke-width="1" fill="none" fill-rule="evenodd">
        <g id="SCALEWORK-Desktop-Industry-Solutions" transform="translate(-1144.000000, -2619.000000)">
            <g id="Group-10" transform="translate(1144.000000, 2619.000000)">
                <path d="M253,11.5789474 C253,8.38315789 250.424006,5.78947368 247.250014,5.78947368 C244.076022,5.78947368 241.500029,8.38315789 241.500029,11.5789474 C241.500029,27.5405263 228.602811,40.5263158 212.7501,40.5263158 L178.250186,40.5263158 C175.076193,40.5263158 172.5002,43.12 172.5002,46.3157895 C172.5002,49.5115789 175.076193,52.1052632 178.250186,52.1052632 L182.401675,52.1052632 C180.40643,55.55 176.737939,57.8947368 172.5002,57.8947368 C166.157966,57.8947368 161.000228,52.7015789 161.000228,46.3157895 C161.000228,39.93 166.157966,34.7368421 172.5002,34.7368421 C175.674192,34.7368421 178.250186,32.1431579 178.250186,28.9473684 C178.250186,25.7515789 175.674192,23.1578947 172.5002,23.1578947 C159.815731,23.1578947 149.500257,33.5442105 149.500257,46.3157895 C149.500257,59.0873684 159.815731,69.4736842 172.5002,69.4736842 C183.183673,69.4736842 192.113401,62.0689474 194.683645,52.1052632 L207.000114,52.1052632 L207.000114,78.7426316 C207.000114,86.2052632 204.182621,93.2915789 199.070884,98.6989474 L97.520386,206.058947 L14.0133433,127.241053 L120.462829,20.0605263 C125.890816,14.5894737 133.112798,11.5789474 140.789029,11.5789474 L207.000114,11.5789474 L207.000114,23.1578947 C207.000114,26.3536842 209.576108,28.9473684 212.7501,28.9473684 C215.924092,28.9473684 218.500086,26.3536842 218.500086,23.1578947 L218.500086,5.78947368 C218.500086,2.59368421 215.924092,0 212.7501,0 L140.789029,0 C130.042305,0 119.93383,4.21473684 112.332349,11.8742105 L1.68537396,123.275263 C0.587126682,124.381053 -0.022371805,125.892105 0,127.461053 C0.0236280808,129.03 0.684876439,130.517895 1.81762363,131.588947 L93.8173952,218.431053 C94.9271425,219.478947 96.335889,220 97.7503854,220 C99.2683817,220 100.786378,219.397895 101.913375,218.199474 L207.396863,106.682632 C214.555595,99.11 218.500086,89.1868421 218.500086,78.7426316 L218.500086,51.6421053 C237.975287,48.8226316 253,31.9578947 253,11.5789474" id="Fill-7" fill="#6A1B9A"></path>
                <path d="M77.1693462,100.93114 C66.5821945,100.93114 58,109.437615 58,119.92651 C58,141.258131 79.7024384,146.851562 94.5,167.93114 C108.500469,146.987278 131,140.569858 131,119.92651 C131,109.437615 122.412915,100.93114 111.830654,100.93114 C104.162915,100.93114 97.5612272,105.419457 94.5,111.885347 C91.4387728,105.419457 84.8419748,100.93114 77.1693462,100.93114 Z" id="heart" stroke="#6A1B9A" stroke-width="10" fill-rule="nonzero"></path>
            </g>
        </g>
    </g>
</svg>