<?xml version="1.0" encoding="UTF-8"?>
<svg width="148px" height="127px" viewBox="0 0 148 127" version="1.1" xmlns="http://www.w3.org/2000/svg" xmlns:xlink="http://www.w3.org/1999/xlink">
    <!-- Generator: Sketch 55.1 (78136) - https://sketchapp.com -->
    <title>Group</title>
    <desc>Created with Sketch.</desc>
    <g id="SCALEWORK-WEBSITE-WIP" stroke="none" stroke-width="1" fill="none" fill-rule="evenodd">
        <g id="SCALEWORK-Desktop-Industry-Solutions" transform="translate(-1144.000000, -1825.000000)">
            <g id="03-Performance-drivers" transform="translate(1.000000, 1555.000000)">
                <g id="Driver-02-hover" transform="translate(730.000000, 156.000000)">
                    <g id="Image" transform="translate(356.000000, 0.000000)">
                        <g id="Group" transform="translate(57.000000, 114.000000)">
                            <g id="Group-10" transform="translate(3.000000, 0.000000)" fill="#8E24AA">
                                <path d="M47.3333333,53.087766 C47.3333333,51.247766 48.7551667,49.7544326 50.5,49.7544326 C52.2448333,49.7544326 53.6666667,51.247766 53.6666667,53.087766 C53.6666667,54.927766 52.2448333,56.4210993 50.5,56.4210993 C48.7551667,56.4210993 47.3333333,54.927766 47.3333333,53.087766 M60,53.087766 C60,47.5744326 55.7376667,43.087766 50.5,43.087766 C45.2623333,43.087766 41,47.5744326 41,53.087766 C41,58.6010993 45.2623333,63.087766 50.5,63.087766 C55.7376667,63.087766 60,58.6010993 60,53.087766" id="Fill-1"></path>
                                <path d="M62.6666667,89.087766 C62.6666667,90.927766 61.2448333,92.4210993 59.5,92.4210993 C57.7551667,92.4210993 56.3333333,90.927766 56.3333333,89.087766 C56.3333333,87.247766 57.7551667,85.7544326 59.5,85.7544326 C61.2448333,85.7544326 62.6666667,87.247766 62.6666667,89.087766 M50,89.087766 C50,94.6010993 54.2623333,99.087766 59.5,99.087766 C64.7376667,99.087766 69,94.6010993 69,89.087766 C69,83.5744326 64.7376667,79.087766 59.5,79.087766 C54.2623333,79.087766 50,83.5744326 50,89.087766" id="Fill-3"></path>
                                <path d="M72.0403163,55.0474714 C70.7607381,53.7678641 68.6924685,53.7678641 67.4128903,55.0474714 L37.9596837,84.5013475 C36.6801054,85.7809547 36.6801054,87.8492714 37.9596837,89.1288787 C38.5978365,89.767046 39.4356166,90.087766 40.2733967,90.087766 C41.1111768,90.087766 41.9489569,89.767046 42.5871097,89.1288787 L72.0403163,59.6750026 C73.3198946,58.3953953 73.3198946,56.3270787 72.0403163,55.0474714" id="Fill-5"></path>
                                <path d="M145,6.7193449 C145,4.88902912 143.52364,3.40355543 141.704554,3.40355543 C139.885467,3.40355543 138.409107,4.88902912 138.409107,6.7193449 C138.409107,15.8609765 131.017421,23.2982923 121.931875,23.2982923 L102.159197,23.2982923 C100.340111,23.2982923 98.8637509,24.783766 98.8637509,26.6140817 C98.8637509,28.4443975 100.340111,29.9298712 102.159197,29.9298712 L104.53851,29.9298712 C103.39499,31.902766 101.292495,33.2456607 98.8637509,33.2456607 C95.2288736,33.2456607 92.2728582,30.2713975 92.2728582,26.6140817 C92.2728582,22.956766 95.2288736,19.9825028 98.8637509,19.9825028 C100.682837,19.9825028 102.159197,18.4970291 102.159197,16.6667133 C102.159197,14.8363975 100.682837,13.3509239 98.8637509,13.3509239 C91.5939962,13.3509239 85.6819655,19.2994502 85.6819655,26.6140817 C85.6819655,33.9287133 91.5939962,39.8772396 98.8637509,39.8772396 C104.98669,39.8772396 110.104518,35.6363449 111.577583,29.9298712 L118.636429,29.9298712 L118.636429,45.1858186 C118.636429,49.4598712 117.02166,53.5183975 114.092009,56.6153449 L55.8911303,118.103345 L8.03136279,72.962187 L69.0399613,11.5769765 C72.1508627,8.44355543 76.2899433,6.7193449 80.6893642,6.7193449 L118.636429,6.7193449 L118.636429,13.3509239 C118.636429,15.1812396 120.112789,16.6667133 121.931875,16.6667133 C123.750962,16.6667133 125.227322,15.1812396 125.227322,13.3509239 L125.227322,3.40355543 C125.227322,1.57323964 123.750962,0.0877659574 121.931875,0.0877659574 L80.6893642,0.0877659574 C74.530175,0.0877659574 68.7367803,2.50166069 64.3802002,6.88845017 L0.965925785,70.6908712 C0.336495529,71.324187 -0.0128217855,72.1896081 0,73.088187 C0.0135417854,73.986766 0.392518117,74.8389239 1.04172105,75.4523449 L53.7688629,125.189187 C54.404884,125.789345 55.2122684,126.087766 56.0229482,126.087766 C56.892946,126.087766 57.7629439,125.742924 58.4088513,125.056555 L118.863815,61.1878186 C122.966646,56.850766 125.227322,51.1675028 125.227322,45.1858186 L125.227322,29.6646081 C136.388999,28.0498186 145,18.3909239 145,6.7193449" id="Fill-7"></path>
                            </g>
                            <g id="Group-10" fill="#FFFFFF">
                                <path d="M47.3333333,53.087766 C47.3333333,51.247766 48.7551667,49.7544326 50.5,49.7544326 C52.2448333,49.7544326 53.6666667,51.247766 53.6666667,53.087766 C53.6666667,54.927766 52.2448333,56.4210993 50.5,56.4210993 C48.7551667,56.4210993 47.3333333,54.927766 47.3333333,53.087766 M60,53.087766 C60,47.5744326 55.7376667,43.087766 50.5,43.087766 C45.2623333,43.087766 41,47.5744326 41,53.087766 C41,58.6010993 45.2623333,63.087766 50.5,63.087766 C55.7376667,63.087766 60,58.6010993 60,53.087766" id="Fill-1"></path>
                                <path d="M62.6666667,89.087766 C62.6666667,90.927766 61.2448333,92.4210993 59.5,92.4210993 C57.7551667,92.4210993 56.3333333,90.927766 56.3333333,89.087766 C56.3333333,87.247766 57.7551667,85.7544326 59.5,85.7544326 C61.2448333,85.7544326 62.6666667,87.247766 62.6666667,89.087766 M50,89.087766 C50,94.6010993 54.2623333,99.087766 59.5,99.087766 C64.7376667,99.087766 69,94.6010993 69,89.087766 C69,83.5744326 64.7376667,79.087766 59.5,79.087766 C54.2623333,79.087766 50,83.5744326 50,89.087766" id="Fill-3"></path>
                                <path d="M72.0403163,55.0474714 C70.7607381,53.7678641 68.6924685,53.7678641 67.4128903,55.0474714 L37.9596837,84.5013475 C36.6801054,85.7809547 36.6801054,87.8492714 37.9596837,89.1288787 C38.5978365,89.767046 39.4356166,90.087766 40.2733967,90.087766 C41.1111768,90.087766 41.9489569,89.767046 42.5871097,89.1288787 L72.0403163,59.6750026 C73.3198946,58.3953953 73.3198946,56.3270787 72.0403163,55.0474714" id="Fill-5"></path>
                                <path d="M145,6.7193449 C145,4.88902912 143.52364,3.40355543 141.704554,3.40355543 C139.885467,3.40355543 138.409107,4.88902912 138.409107,6.7193449 C138.409107,15.8609765 131.017421,23.2982923 121.931875,23.2982923 L102.159197,23.2982923 C100.340111,23.2982923 98.8637509,24.783766 98.8637509,26.6140817 C98.8637509,28.4443975 100.340111,29.9298712 102.159197,29.9298712 L104.53851,29.9298712 C103.39499,31.902766 101.292495,33.2456607 98.8637509,33.2456607 C95.2288736,33.2456607 92.2728582,30.2713975 92.2728582,26.6140817 C92.2728582,22.956766 95.2288736,19.9825028 98.8637509,19.9825028 C100.682837,19.9825028 102.159197,18.4970291 102.159197,16.6667133 C102.159197,14.8363975 100.682837,13.3509239 98.8637509,13.3509239 C91.5939962,13.3509239 85.6819655,19.2994502 85.6819655,26.6140817 C85.6819655,33.9287133 91.5939962,39.8772396 98.8637509,39.8772396 C104.98669,39.8772396 110.104518,35.6363449 111.577583,29.9298712 L118.636429,29.9298712 L118.636429,45.1858186 C118.636429,49.4598712 117.02166,53.5183975 114.092009,56.6153449 L55.8911303,118.103345 L8.03136279,72.962187 L69.0399613,11.5769765 C72.1508627,8.44355543 76.2899433,6.7193449 80.6893642,6.7193449 L118.636429,6.7193449 L118.636429,13.3509239 C118.636429,15.1812396 120.112789,16.6667133 121.931875,16.6667133 C123.750962,16.6667133 125.227322,15.1812396 125.227322,13.3509239 L125.227322,3.40355543 C125.227322,1.57323964 123.750962,0.0877659574 121.931875,0.0877659574 L80.6893642,0.0877659574 C74.530175,0.0877659574 68.7367803,2.50166069 64.3802002,6.88845017 L0.965925785,70.6908712 C0.336495529,71.324187 -0.0128217855,72.1896081 0,73.088187 C0.0135417854,73.986766 0.392518117,74.8389239 1.04172105,75.4523449 L53.7688629,125.189187 C54.404884,125.789345 55.2122684,126.087766 56.0229482,126.087766 C56.892946,126.087766 57.7629439,125.742924 58.4088513,125.056555 L118.863815,61.1878186 C122.966646,56.850766 125.227322,51.1675028 125.227322,45.1858186 L125.227322,29.6646081 C136.388999,28.0498186 145,18.3909239 145,6.7193449" id="Fill-7"></path>
                            </g>
                        </g>
                    </g>
                </g>
            </g>
        </g>
    </g>
</svg>