<?xml version="1.0" encoding="UTF-8"?>
<svg width="100px" height="100px" viewBox="0 0 100 100" version="1.1" xmlns="http://www.w3.org/2000/svg" xmlns:xlink="http://www.w3.org/1999/xlink">
    <!-- Generator: Sketch 55.1 (78136) - https://sketchapp.com -->
    <title>Group 5</title>
    <desc>Created with Sketch.</desc>
    <g id="SCALEWORK-WEBSITE-WIP" stroke="none" stroke-width="1" fill="none" fill-rule="evenodd">
        <g id="SCALEWORK-Desktop-Home" transform="translate(-669.000000, -5935.000000)" fill="#DF265E">
            <g id="07-Next-steps" transform="translate(-846.000000, 4939.855519)">
                <g id="Group-5" transform="translate(1515.000000, 995.144481)">
                    <path d="M50,96.875 C24.1115234,96.875 3.125,75.8876953 3.125,50 C3.125,24.1123047 24.1115234,3.125 50,3.125 C75.8884766,3.125 96.875,24.1123047 96.875,50 C96.875,75.8876953 75.8884766,96.875 50,96.875 M50,0 C22.3855469,0 0,22.3865234 0,50 C0,77.6138672 22.3855469,100 50,100 C77.6142578,100 100,77.6138672 100,50 C100,22.3865234 77.6142578,0 50,0" id="Fill-1"></path>
                    <path d="M58.5939453,78.818125 C58.5943359,78.818125 59.5158203,79.0882422 60.9001953,79.0882422 C63.8332031,79.0882422 67.9294922,77.9360937 71.1798828,72.6112891 L61.8255859,61.0659766 L55.4878906,64.3946875 C54.8923828,64.7067969 54.1634766,64.6038672 53.6787109,64.1376562 C51.0037109,61.5673437 48.2871094,57.6739844 45.6050781,52.5673437 C42.9050781,47.4255469 41.2384766,42.9554297 40.6513672,39.2810156 C40.5490234,38.6401953 40.8539063,38.0023047 41.4173828,37.6792578 L47.6550781,34.1030859 L43.4472656,19.8025 C43.0904297,19.7825781 42.7394531,19.7728125 42.3964844,19.7728125 C33.6589844,19.7728125 31.3525391,26.1614844 31.1945313,26.63375 C31.1214844,26.9009375 30.2394531,30.2546484 30.4007813,35.5275 C30.5552734,40.5704687 31.7246094,48.4573828 36.4169922,57.3925391 C41.1050781,66.3200781 46.8810547,71.6679297 50.9009766,74.5819922 C55.2625,77.7439063 58.5611328,78.8081641 58.5939453,78.818125 M60.9001953,82.2132422 C59.0396484,82.2132422 57.7972656,81.843125 57.6617187,81.8011328 C57.0779297,81.6192969 43.2580078,77.1411719 33.6501953,58.8454687 C24.05,40.5651953 28.025,26.3390234 28.1990234,25.7419531 C28.2017578,25.7331641 28.2042969,25.724375 28.2072266,25.7151953 C28.2369141,25.6198828 28.9599609,23.3485937 31.0845703,21.1173438 C33.0261719,19.0784766 36.5648438,16.6478125 42.3964844,16.6478125 C43.1746094,16.6478125 43.9853516,16.6915625 44.8060547,16.7775 C45.4357422,16.8437109 45.9634766,17.2831641 46.1421875,17.8905859 L51.0011719,34.4040625 C51.2052734,35.0978125 50.9068359,35.8409766 50.2792969,36.2003516 L43.9347656,39.8380469 C44.4476562,42.2275 45.6427734,45.9179297 48.371875,51.1142187 C51.0646484,56.2415625 53.3966797,59.3048437 55.0613281,61.0890234 L61.5066406,57.7038672 C62.1662109,57.3569922 62.978125,57.5245703 63.4472656,58.1034766 L74.2837891,71.4778906 C74.6822266,71.9698828 74.7447266,72.6536719 74.4416016,73.2097266 C70.1699219,81.0437109 64.1236328,82.2132422 60.9001953,82.2132422" id="Fill-3"></path>
                </g>
            </g>
        </g>
    </g>
</svg>