<?xml version="1.0" encoding="UTF-8"?>
<svg width="100px" height="100px" viewBox="0 0 100 100" version="1.1" xmlns="http://www.w3.org/2000/svg" xmlns:xlink="http://www.w3.org/1999/xlink">
    <!-- Generator: Sketch 55.1 (78136) - https://sketchapp.com -->
    <title>Group 5</title>
    <desc>Created with Sketch.</desc>
    <g id="SCALEWORK-WEBSITE-WIP" stroke="none" stroke-width="1" fill="none" fill-rule="evenodd">
        <g id="SCALEWORK-Desktop-Home" transform="translate(-1070.000000, -5935.000000)" fill="#DF265E">
            <g id="07-Next-steps" transform="translate(-846.000000, 4939.855519)">
                <g id="Group-5" transform="translate(1916.000000, 995.144481)">
                    <path d="M50,96.875 C24.1115234,96.875 3.125,75.8878906 3.125,50 C3.125,24.1125 24.1115234,3.125 50,3.125 C75.8884766,3.125 96.875,24.1125 96.875,50 C96.875,75.8878906 75.8884766,96.875 50,96.875 M50,0 C22.3855469,0 0,22.3865234 0,50 C0,77.6136719 22.3855469,100 50,100 C77.6142578,100 100,77.6136719 100,50 C100,22.3865234 77.6142578,0 50,0" id="Fill-1"></path>
                    <path d="M46.5922708,59.4811479 L46.5918823,59.4811479 C44.7810498,59.4807594 43.0698695,58.765298 41.7736149,57.4660839 C39.4165412,55.1050419 38.8279527,51.3917528 40.1595614,47.279064 C41.2386404,43.9478852 43.0844385,41.6666843 45.802047,40.3043355 C47.653867,39.3812097 49.8736033,38.9142075 52.4031743,38.9142075 C53.7860659,38.9142075 56.0891371,39.2221104 56.1864582,39.2351258 L58.1604637,39.5008742 L57.8451901,41.4677616 C57.8199371,41.6268609 57.2093979,45.4060044 56.1509098,49.622234 C54.936436,54.4731126 52.1638538,58.0333245 48.7341115,59.1443002 C48.0248914,59.3690596 47.3080955,59.4811479 46.5922708,59.4811479 M50.3514673,19.8675497 C34.2727048,19.8675497 21.192053,32.9379779 21.192053,49.0035143 C21.192053,65.0725475 34.2727048,78.1456954 50.3514673,78.1456954 C55.7767773,78.1456954 61.080873,76.6392053 65.6895407,73.7890155 C66.107963,73.5302605 66.399732,73.1254216 66.5118163,72.6483179 C66.6237064,72.1716026 66.5430912,71.6801236 66.2845396,71.2640177 C65.9432359,70.7117351 65.3560072,70.3846004 64.7106966,70.3846004 C64.3736665,70.3846004 64.0436296,70.4792053 63.7555514,70.6585077 C59.734501,73.1485386 55.1007746,74.4636821 50.3514673,74.4636821 C36.3028496,74.4636821 24.8737423,63.0419426 24.8737423,49.0035143 C24.8737423,34.9681943 36.3028496,23.5491744 50.3514673,23.5491744 C58.8455963,23.5491744 66.7524966,27.7584106 71.5029694,34.8083179 C73.855381,38.3057837 75.3099523,42.3648565 75.7105033,46.5478675 C75.8056876,47.5401501 76.0168413,51.0653951 74.7547754,54.7847064 C73.5737133,58.2666313 70.1993332,60.766181 66.8315578,60.6150464 C64.7287621,60.5400618 63.199986,59.7999294 62.1576209,58.3524945 C58.8102422,53.6550817 61.1298249,42.7399735 62.305448,38.9301369 C62.5962457,37.9852539 62.092546,36.9844238 61.1577974,36.6537925 C60.7564694,36.5145077 57.0153385,35.2590022 52.4202686,35.2590022 C49.2997781,35.2590022 46.5359372,35.8423664 44.2058648,36.9923885 C40.5843941,38.7793907 38.045499,41.8584194 36.6591108,46.1441943 C34.9102452,51.5391965 35.8484903,56.7432406 39.1688678,60.0660662 C41.1605504,62.0597616 43.7987092,63.1575276 46.5971271,63.1575276 C47.7006821,63.1575276 48.7974381,62.9838587 49.857286,62.6413775 C51.8981148,61.9867196 53.7351715,60.7619073 55.3204755,58.9989934 L57.1736552,56.9382781 L58.4784569,59.3830464 C58.6816463,59.7639912 58.9063977,60.1280353 59.1461067,60.4652715 C60.8477686,62.855064 63.4653365,64.179532 66.7157827,64.2937572 C66.8426303,64.2984194 66.9657871,64.3007506 67.0887497,64.3007506 C71.9147872,64.3007506 76.6065954,60.7926004 78.2445421,55.9593996 C79.6967823,51.6613863 79.5202058,47.6990552 79.3766523,46.1948962 C78.9156884,41.4007417 77.2493807,36.7536424 74.5579965,32.7573157 C69.118506,24.686181 60.0693943,19.8675497 50.3514673,19.8675497" id="Fill-3"></path>
                </g>
            </g>
        </g>
    </g>
</svg>