<?xml version="1.0" encoding="UTF-8"?>
<svg width="100px" height="100px" viewBox="0 0 100 100" version="1.1" xmlns="http://www.w3.org/2000/svg" xmlns:xlink="http://www.w3.org/1999/xlink">
    <!-- Generator: Sketch 55.1 (78136) - https://sketchapp.com -->
    <title>Group 11</title>
    <desc>Created with Sketch.</desc>
    <g id="SCALEWORK-WEBSITE-WIP" stroke="none" stroke-width="1" fill="none" fill-rule="evenodd">
        <g id="SCALEWORK-Desktop-Home" transform="translate(-265.000000, -5935.000000)" fill="#DF265E">
            <g id="07-Next-steps" transform="translate(-846.000000, 4939.855519)">
                <g id="Group-11" transform="translate(1111.000000, 995.144481)">
                    <path d="M50,96.875 C24.1115234,96.875 3.125,75.8880859 3.125,50 C3.125,24.1123047 24.1115234,3.125 50,3.125 C75.8884766,3.125 96.875,24.1123047 96.875,50 C96.875,75.8880859 75.8884766,96.875 50,96.875 M50,0 C22.3855469,0 0,22.3865234 0,50 C0,77.6138672 22.3855469,100 50,100 C77.6142578,100 100,77.6138672 100,50 C100,22.3865234 77.6142578,0 50,0" id="Fill-1"></path>
                    <path d="M76.3677539,58.4714844 C76.3677539,61.5238281 73.8829883,64.0072266 70.8288867,64.0072266 L50.0462695,64.0072266 C49.7200977,64.0072266 49.4023242,64.1091797 49.1370898,64.2990234 L35.013457,74.4074219 L35.013457,65.5697266 C35.013457,64.7068359 34.314043,64.0072266 33.450957,64.0072266 L28.7816211,64.0072266 C25.7275195,64.0072266 23.2427539,61.5238281 23.2427539,58.4714844 L23.2427539,35.9523438 C23.2427539,32.8982422 25.7275195,30.4134766 28.7816211,30.4134766 L70.8288867,30.4134766 C73.8829883,30.4134766 76.3677539,32.8982422 76.3677539,35.9523438 L76.3677539,58.4714844 Z M70.8288867,27.2884766 C75.6062305,27.2884766 79.4927539,31.175 79.4927539,35.9523438 L79.4927539,58.4714844 C79.4927539,63.246875 75.6062305,67.1322266 70.8288867,67.1322266 L50.547832,67.1322266 L34.3601367,78.7177734 C34.0900195,78.9111328 33.7710742,79.0095703 33.4507617,79.0095703 C33.2066211,79.0095703 32.9616992,78.9523438 32.7365039,78.8369141 C32.2158008,78.5689453 31.888457,78.0326172 31.888457,77.4470703 L31.888457,67.1322266 L28.7816211,67.1322266 C24.0042773,67.1322266 20.1177539,63.246875 20.1177539,58.4714844 L20.1177539,35.9523438 C20.1177539,31.175 24.0042773,27.2884766 28.7816211,27.2884766 L70.8288867,27.2884766 Z M66.1462695,37.5173633 L32.1292773,37.5173633 C31.2663867,37.5173633 30.5667773,38.2167773 30.5667773,39.0798633 C30.5667773,39.9429492 31.2663867,40.6423633 32.1292773,40.6423633 L66.1462695,40.6423633 C67.0093555,40.6423633 67.7087695,39.9429492 67.7087695,39.0798633 C67.7087695,38.2167773 67.0093555,37.5173633 66.1462695,37.5173633 Z M66.1462695,45.2693945 L32.1292773,45.2693945 C31.2663867,45.2693945 30.5667773,45.9690039 30.5667773,46.8318945 C30.5667773,47.6947852 31.2663867,48.3943945 32.1292773,48.3943945 L66.1462695,48.3943945 C67.0093555,48.3943945 67.7087695,47.6947852 67.7087695,46.8318945 C67.7087695,45.9690039 67.0093555,45.2693945 66.1462695,45.2693945 Z M52.995293,53.0214258 L32.1292773,53.0214258 C31.2663867,53.0214258 30.5667773,53.7208398 30.5667773,54.5839258 C30.5667773,55.4470117 31.2663867,56.1464258 32.1292773,56.1464258 L52.995293,56.1464258 C53.8581836,56.1464258 54.557793,55.4470117 54.557793,54.5839258 C54.557793,53.7208398 53.8581836,53.0214258 52.995293,53.0214258 Z" id="Fill-3"></path>
                </g>
            </g>
        </g>
    </g>
</svg>