<?xml version="1.0" encoding="UTF-8"?>
<svg width="34px" height="33px" viewBox="0 0 34 33" version="1.1" xmlns="http://www.w3.org/2000/svg" xmlns:xlink="http://www.w3.org/1999/xlink">
    <!-- Generator: Sketch 55.1 (78136) - https://sketchapp.com -->
    <title>materials</title>
    <desc>Created with Sketch.</desc>
    <g id="SCALEWORK-WEBSITE-WIP" stroke="none" stroke-width="1" fill="none" fill-rule="evenodd">
        <g id="SCALEWORK-Desktop-Solutions" transform="translate(-1204.000000, -2907.000000)" fill="#6A1B9A">
            <g id="04-Past-solutions" transform="translate(130.000000, 2182.000000)">
                <g id="Industry-Icons" transform="translate(41.000000, 539.000000)">
                    <g id="materials" transform="translate(1033.000000, 186.000000)">
                        <path d="M17,21.2286 C15.7774783,21.2286 14.7826087,20.2191 14.7826087,18.9786 C14.7826087,17.7381 15.7774783,16.7286 17,16.7286 C18.2225217,16.7286 19.2173913,17.7381 19.2173913,18.9786 C19.2173913,20.2191 18.2225217,21.2286 17,21.2286 M17,15.2286 C19.0385217,15.2286 20.6956522,16.9116 20.6956522,18.9786 C20.6956522,21.0471 19.0385217,22.7286 17,22.7286 C14.9629565,22.7286 13.3043478,21.0471 13.3043478,18.9786 C13.3043478,16.9116 14.9629565,15.2286 17,15.2286 Z M23.6521739,25.5 C23.6521739,27.981 25.641913,30 28.0854783,30 C30.5305217,30 32.5217391,27.981 32.5217391,25.5 C32.5217391,23.019 30.5305217,21 28.0854783,21 C25.641913,21 23.6521739,23.019 23.6521739,25.5 Z M22.9426087,29.952 L23.6536522,29.5545 L23.1953913,28.8735 C22.5257391,27.8745 22.1724348,26.709 22.1724348,25.5 C22.173913,22.1925 24.825913,19.5 28.0854783,19.4985 C28.1564348,19.4985 28.2229565,19.5105 28.2909565,19.5195 L29.342,19.6095 L29.3301739,18.7875 C29.2666087,14.4495 27.035913,10.515 23.3653913,8.265 L22.6676522,7.8375 L22.3158261,8.5815 C21.318,10.6905 19.2809565,12.0015 17,12.0015 C14.7190435,12.0015 12.682,10.6905 11.6841739,8.5815 L11.3323478,7.8375 L10.636087,8.2635 C6.9626087,10.515 4.7333913,14.448 4.66834783,18.7875 L4.65652174,19.6095 L5.70756522,19.5195 C5.77556522,19.5105 5.84208696,19.4985 5.91304348,19.4985 C9.17556522,19.5 11.8275652,22.1925 11.826087,25.5 C11.826087,26.709 11.4727826,27.8745 10.8031304,28.872 L10.3448696,29.553 L11.055913,29.9505 C12.8682609,30.9645 14.9230435,31.5 17,31.5 C19.0754783,31.5 21.1317391,30.966 22.9426087,29.952 Z M5.91304348,30 C8.35808696,30 10.3478261,27.981 10.3478261,25.5 C10.3478261,23.0205 8.35808696,21 5.91304348,20.9985 C3.46947826,21 1.47973913,23.0205 1.47826087,25.5 C1.47826087,27.9795 3.468,29.9985 5.91304348,30 Z M17,1.5015 C14.5549565,1.5015 12.5652174,3.5205 12.5652174,6.0015 C12.5652174,8.4825 14.5549565,10.5015 17,10.5015 C19.4450435,10.5015 21.4347826,8.4825 21.4347826,6.0015 C21.4347826,3.5205 19.4450435,1.5015 17,1.5015 Z M28.0854783,31.5 C27.1127826,31.5 26.1563478,31.2405 25.2442609,30.7275 L24.8569565,30.5115 L24.4844348,30.7545 C20.0038261,33.693 13.9961739,33.693 9.51408696,30.7545 L9.14156522,30.5115 L8.75426087,30.7275 C7.84217391,31.2405 6.88573913,31.5 5.91304348,31.5 C2.652,31.4985 0,28.8075 0,25.5 C0,23.403 1.07026087,21.4905 2.8633913,20.3865 L3.2373913,20.1555 L3.20191304,19.4085 C3.19156522,19.266 3.18121739,19.1235 3.18121739,18.978 C3.18121739,13.7025 6.06234783,8.925 10.6996522,6.507 L11.089913,6.3045 L11.1017391,5.859 C11.1786087,2.5725 13.77,2.84217094e-14 17,2.84217094e-14 C20.23,2.84217094e-14 22.819913,2.5725 22.8967826,5.859 L22.9071304,6.3045 L23.2988696,6.507 C27.9346957,8.925 30.8173043,13.7025 30.8173043,18.978 C30.8173043,19.137 30.8069565,19.293 30.7951304,19.449 L30.7581739,20.1525 L31.1351304,20.385 C32.9282609,21.489 34,23.4015 34,25.5 C34,28.809 31.3465217,31.5 28.0854783,31.5 Z" id="Fill-1"></path>
                    </g>
                </g>
            </g>
        </g>
    </g>
</svg>