<?xml version="1.0" encoding="UTF-8"?>
<svg width="36px" height="42px" viewBox="0 0 36 42" version="1.1" xmlns="http://www.w3.org/2000/svg" xmlns:xlink="http://www.w3.org/1999/xlink">
    <!-- Generator: Sketch 55.1 (78136) - https://sketchapp.com -->
    <title>Prof</title>
    <desc>Created with Sketch.</desc>
    <g id="SCALEWORK-WEBSITE-WIP" stroke="none" stroke-width="1" fill="none" fill-rule="evenodd">
        <g id="SCALEWORK-Desktop-Solutions" transform="translate(-603.000000, -3052.000000)" stroke="#6A1B9A">
            <g id="04-Past-solutions" transform="translate(130.000000, 2182.000000)">
                <g id="Industry-Icons" transform="translate(41.000000, 539.000000)">
                    <g id="Prof" transform="translate(433.000000, 332.000000)">
                        <path d="M11.826087,22.7777778 L11.826087,26.2486772 L10.9813665,26.2486772 L8.44720497,28.8518519 L4.216,30.8979471 C1.93609938,31.5062222 0.0430807453,33.2113016 0,34.9259259 L0,41" id="Stroke-1"></path>
                        <path d="M26.3623188,7.80952381 L26.3623188,9.54497354 L28.0869565,10.4126984 L28.0869565,13.8228571 C28.0869565,14.4033651 27.798942,14.9448254 27.3186304,15.2667513 L26.3623188,16.4867725 L26.3623188,18.2222222 C26.3623188,21.5846561 21.9429348,23.0485079 21.1884058,23.4285714 C20.4338768,23.8077672 19.1403986,24.2962963 17.7391304,24.2962963 C16.3378623,24.2962963 15.0443841,23.8077672 14.2898551,23.4285714 C13.5353261,23.0485079 9.11594203,21.5846561 9.11594203,18.2222222 L9.11594203,16.4867725 L8.15963043,15.2667513 C7.67931884,14.9448254 7.39130435,14.4033651 7.39130435,13.8228571 L7.39130435,10.4126984 L9.11594203,9.54497354 L9.11594203,7.80952381 C9.11594203,3.49606349 12.5902246,0 16.8768116,0 L18.6014493,0 C22.8880362,0 26.3623188,3.49606349 26.3623188,7.80952381 Z" id="Stroke-3"></path>
                        <path d="M11.826087,25.8148148 L16.2608696,30.3703704" id="Stroke-5"></path>
                        <polyline id="Stroke-7" points="17.7391304 30.3703704 13.3043478 33.4074074 8.86956522 28.8518519"></polyline>
                        <path d="M22.173913,22.7777778 L22.173913,26.2486772 L23.0186335,26.2486772 L25.552795,28.8518519 L29.784,30.8979471 C32.0639006,31.5062222 33.9569193,33.2113016 34,34.9259259 L34,41" id="Stroke-9"></path>
                        <path d="M22.173913,25.8148148 L17.7391304,30.3703704" id="Stroke-11"></path>
                        <polyline id="Stroke-13" points="16.2608696 30.3703704 20.6956522 33.4074074 25.1304348 28.8518519"></polyline>
                        <polyline id="Stroke-15" points="19.2173913 31.8888889 18.4782609 36.4444444 15.5217391 36.4444444 14.7826087 31.8888889"></polyline>
                        <polyline id="Stroke-17" points="19.2173913 39.4814815 18.4782609 36.4444444 15.5217391 36.4444444 14.7826087 39.4814815"></polyline>
                    </g>
                </g>
            </g>
        </g>
    </g>
</svg>