<?xml version="1.0" encoding="UTF-8"?>
<svg width="38px" height="38px" viewBox="0 0 38 38" version="1.1" xmlns="http://www.w3.org/2000/svg" xmlns:xlink="http://www.w3.org/1999/xlink">
    <!-- Generator: Sketch 55.1 (78136) - https://sketchapp.com -->
    <title>retail</title>
    <desc>Created with Sketch.</desc>
    <g id="SCALEWORK-WEBSITE-WIP" stroke="none" stroke-width="1" fill="none" fill-rule="evenodd">
        <g id="SCALEWORK-Desktop-Solutions" transform="translate(-1002.000000, -3055.000000)" fill="#6A1B9A">
            <g id="04-Past-solutions" transform="translate(130.000000, 2182.000000)">
                <g id="Industry-Icons" transform="translate(41.000000, 539.000000)">
                    <g id="retail" transform="translate(831.000000, 334.000000)">
                        <path d="M12.190502,26.772216 C12.190502,27.249496 12.576602,27.635576 13.0505208,27.635576 C13.5274679,27.635576 13.9120538,27.249496 13.9120538,26.772216 C13.9120538,26.296456 13.5274679,25.910376 13.0505208,25.910376 C12.576602,25.910376 12.190502,26.296456 12.190502,26.772216" id="Fill-1"></path>
                        <path d="M37.1393755,32.818016 C36.6654567,32.818016 36.2793567,33.204096 36.2793567,33.681376 L36.2793567,36.271456 L1.86800494,36.271456 L1.86800494,34.546256 L3.58804259,34.546256 L34.5593191,34.546256 C35.0332379,34.546256 35.4193379,34.158656 35.4193379,33.681376 L35.4193379,19.864576 C35.4193379,19.385776 35.0332379,18.999696 34.5593191,18.999696 C34.082372,18.999696 33.6993002,19.385776 33.6993002,19.864576 L33.6993002,32.818016 L7.88965082,32.818016 L7.88965082,20.727936 L14.7728296,20.727936 L14.7728296,30.227936 C14.7728296,30.703696 15.1559014,31.089776 15.6328485,31.089776 C16.1067673,31.089776 16.4928673,30.703696 16.4928673,30.227936 L16.4928673,19.864576 C16.4928673,19.385776 16.1067673,18.999696 15.6328485,18.999696 L7.029632,18.999696 C6.55419906,18.999696 6.16961318,19.385776 6.16961318,19.864576 L6.16961318,32.818016 L3.58804259,32.818016 L1.00798612,32.818016 C0.532553176,32.818016 0.146453176,33.204096 0.146453176,33.681376 L0.146453176,37.136336 C0.146453176,37.613616 0.532553176,37.999696 1.00798612,37.999696 L37.1393755,37.999696 C37.6132944,37.999696 37.9993944,37.613616 37.9993944,37.136336 L37.9993944,33.681376 C37.9993944,33.204096 37.6132944,32.818016 37.1393755,32.818016" id="Fill-3"></path>
                        <path d="M4.44866706,5.18168 L33.6983918,5.18168 L33.6983918,1.72824 L4.44866706,1.72824 L4.44866706,5.18168 Z M31.97684,16.40992 C30.0811647,16.40992 28.5367647,14.85952 28.5367647,12.95344 C28.5367647,12.47768 28.1506647,12.09008 27.6767459,12.09008 L22.5136047,12.09008 C22.0396859,12.09008 21.6535859,12.47768 21.6535859,12.95344 C21.6535859,13.43224 22.0396859,13.81832 22.5136047,13.81832 L26.6940835,13.81832 C26.3094976,15.30336 24.9725318,16.40992 23.3751376,16.40992 C21.4779482,16.40992 19.9335482,14.85952 19.9335482,12.95344 C19.9335482,12.47768 19.5474482,12.09008 19.0735294,12.09008 L13.9119024,12.09008 C13.4364694,12.09008 13.0503694,12.47768 13.0503694,12.95344 C13.0503694,13.43224 13.4364694,13.81832 13.9119024,13.81832 L18.0923812,13.81832 C17.7062812,15.30336 16.3708294,16.40992 14.7719212,16.40992 C12.8747318,16.40992 11.3318459,14.85952 11.3318459,12.95344 C11.3318459,12.47768 10.9457459,12.09008 10.4703129,12.09008 L5.30868588,12.09008 C4.83476706,12.09008 4.44866706,12.47768 4.44866706,12.95344 C4.44866706,13.43224 4.83476706,13.81832 5.30868588,13.81832 L9.48765059,13.81832 C9.10306471,15.30336 7.76761294,16.40992 6.17021882,16.40992 C4.30482588,16.40992 2.78162353,14.91424 2.72862941,13.05528 L4.26091647,6.90992 L9.61029412,6.90992 L9.61029412,9.5 C9.61029412,9.97728 9.99639412,10.36336 10.4703129,10.36336 C10.9457459,10.36336 11.3318459,9.97728 11.3318459,9.5 L11.3318459,6.90992 L18.2135106,6.90992 L18.2135106,9.5 C18.2135106,9.97728 18.5996106,10.36336 19.0735294,10.36336 C19.5474482,10.36336 19.9335482,9.97728 19.9335482,9.5 L19.9335482,6.90992 L26.8152129,6.90992 L26.8152129,9.5 C26.8152129,9.97728 27.2013129,10.36336 27.6767459,10.36336 C28.1506647,10.36336 28.5367647,9.97728 28.5367647,9.5 L28.5367647,6.90992 L34.0587518,6.90992 L35.2064529,12.09008 L31.1168212,12.09008 C30.6429024,12.09008 30.2583165,12.47768 30.2583165,12.95344 C30.2583165,13.43224 30.6429024,13.81832 31.1168212,13.81832 L35.3018424,13.81832 C34.9172565,15.30488 33.5772624,16.40992 31.97684,16.40992 L31.97684,16.40992 Z M2.72711529,16.80664 L2.72711529,30.22824 C2.72711529,30.704 3.11321529,31.09008 3.58713412,31.09008 C4.06408118,31.09008 4.44866706,30.704 4.44866706,30.22824 L4.44866706,17.83416 C4.98769294,18.02568 5.56457176,18.13664 6.17021882,18.13664 C7.96293412,18.13664 9.54518706,17.21096 10.4703129,15.81256 C11.3969529,17.21096 12.9776918,18.13664 14.7719212,18.13664 C16.5661506,18.13664 18.1484035,17.21096 19.0735294,15.81256 C19.9986553,17.21096 21.5809082,18.13664 23.3751376,18.13664 C25.1693671,18.13664 26.7501059,17.21096 27.6767459,15.81256 C28.6018718,17.21096 30.1841247,18.13664 31.97684,18.13664 C34.8233812,18.13664 37.1399812,15.81104 37.1399812,12.95344 C37.1399812,12.89112 37.1339247,12.8288 37.1187835,12.76648 L35.4199435,5.08744 L35.4199435,0.86336 C35.4199435,0.38608 35.0338435,0 34.5599247,0 L3.58713412,0 C3.11321529,0 2.72711529,0.38608 2.72711529,0.86336 L2.72711529,5.93864 L1.03281765,12.7452 C1.01616235,12.8136 1.00707765,12.88504 1.00707765,12.95344 C1.00707765,14.48408 1.67480353,15.85664 2.72711529,16.80664 L2.72711529,16.80664 Z" id="Fill-6"></path>
                        <path d="M19.9350624,29.36336 L30.2583165,29.36336 L30.2583165,20.72672 L19.9350624,20.72672 L19.9350624,29.36336 Z M19.0735294,19 C18.5996106,19 18.2135106,19.38608 18.2135106,19.86336 L18.2135106,30.22824 C18.2135106,30.704 18.5996106,31.09008 19.0735294,31.09008 L31.1168212,31.09008 C31.5937682,31.09008 31.97684,30.704 31.97684,30.22824 L31.97684,19.86336 C31.97684,19.38608 31.5937682,19 31.1168212,19 L19.0735294,19 Z" id="Fill-8"></path>
                    </g>
                </g>
            </g>
        </g>
    </g>
</svg>