<?xml version="1.0" encoding="UTF-8"?>
<svg width="40px" height="35px" viewBox="0 0 40 35" version="1.1" xmlns="http://www.w3.org/2000/svg" xmlns:xlink="http://www.w3.org/1999/xlink">
    <!-- Generator: Sketch 55.1 (78136) - https://sketchapp.com -->
    <title>Travel</title>
    <desc>Created with Sketch.</desc>
    <g id="SCALEWORK-WEBSITE-WIP" stroke="none" stroke-width="1" fill="none" fill-rule="evenodd">
        <g id="SCALEWORK-Desktop-Solutions" transform="translate(-401.000000, -3206.000000)" stroke="#6A1B9A">
            <g id="04-Past-solutions" transform="translate(130.000000, 2182.000000)">
                <g id="Industry-Icons" transform="translate(41.000000, 539.000000)">
                    <g id="Travel" transform="translate(231.000000, 486.000000)">
                        <polyline id="Stroke-1" points="21.28 7.65492102 6.54364141 4.5 4.56 8.58809235 12.5770741 13.1136087 14.3561633 15"></polyline>
                        <path d="M37.5017013,0.495660647 C35.8320579,-1.1627763 31.3521918,1.77834463 30.2133301,2.91072742 L10.2463195,22.7641477 C10.1140535,22.8956612 1.13886167,19.8947614 1.13886167,19.8947614 L0,23.5942201 L5.73381636,29.3996034 C5.41259897,30.434632 5.36793773,31.346687 6.00693703,31.983759 C7.93080591,33.8949752 12.6580266,30.0281356 13.8896462,28.8035226 L21.7105168,21.0271442 L25.7420527,25.0357451 L30.0089191,33 L33.86181,31.0307129 L30.1291609,12.6563929 L35.0710991,7.74256895 C36.2099607,6.61018615 39.1696269,2.15409759 37.5017013,0.495660647 Z" id="Stroke-3"></path>
                    </g>
                </g>
            </g>
        </g>
    </g>
</svg>