<?xml version="1.0" encoding="UTF-8"?>
<svg width="45px" height="41px" viewBox="0 0 45 41" version="1.1" xmlns="http://www.w3.org/2000/svg" xmlns:xlink="http://www.w3.org/1999/xlink">
    <!-- Generator: Sketch 55.1 (78136) - https://sketchapp.com -->
    <title>Bank</title>
    <desc>Created with Sketch.</desc>
    <g id="SCALEWORK-WEBSITE-WIP" stroke="none" stroke-width="1" fill="none" fill-rule="evenodd">
        <g id="SCALEWORK-Desktop-Solutions" transform="translate(-400.000000, -2750.000000)" fill="#6A1B9A">
            <g id="04-Past-solutions" transform="translate(130.000000, 2182.000000)">
                <g id="Industry-Icons" transform="translate(41.000000, 539.000000)">
                    <g id="Bank" transform="translate(229.000000, 29.000000)">
                        <path d="M12.4395,32.8528 C12.0415,32.8528 11.6935,32.5038 11.6935,32.1068 L11.6935,13.1988 C11.6935,12.7998 12.0415,12.4518 12.4395,12.4518 C12.8375,12.4518 13.1865,12.7998 13.1865,13.1988 L13.1865,32.1068 C13.1865,32.5038 12.8375,32.8528 12.4395,32.8528" id="Fill-1"></path>
                        <path d="M7.4639,32.8528 C7.0659,32.8528 6.7169,32.5038 6.7169,32.1068 L6.7169,13.1988 C6.7169,12.7998 7.0659,12.4518 7.4639,12.4518 C7.8619,12.4518 8.2099,12.7998 8.2099,13.1988 L8.2099,32.1068 C8.2099,32.5038 7.8619,32.8528 7.4639,32.8528" id="Fill-3"></path>
                        <path d="M32.3428,32.8528 C31.9448,32.8528 31.5968,32.5038 31.5968,32.1068 L31.5968,13.1988 C31.5968,12.7998 31.9448,12.4518 32.3428,12.4518 C32.7408,12.4518 33.0898,12.7998 33.0898,13.1988 L33.0898,32.1068 C33.0898,32.5038 32.7408,32.8528 32.3428,32.8528" id="Fill-5"></path>
                        <path d="M37.3188,32.8528 C36.9208,32.8528 36.5718,32.5038 36.5718,32.1068 L36.5718,13.1988 C36.5718,12.7998 36.9208,12.4518 37.3188,12.4518 C37.7168,12.4518 38.0648,12.7998 38.0648,13.1988 L38.0648,32.1068 C38.0648,32.5038 37.7168,32.8528 37.3188,32.8528" id="Fill-7"></path>
                        <path d="M8.4092,9.9642 L36.3242,9.9642 L22.3912,1.6052 L8.4092,9.9642 Z M39.0602,11.4572 L39.0602,11.4572 L5.7222,11.4572 C5.3742,11.4572 5.0752,11.2082 5.0252,10.9092 C4.9262,10.5612 5.0752,10.2622 5.3742,10.0642 L22.0432,0.1122 C22.2912,-0.0368 22.5902,-0.0368 22.7892,0.1122 L39.4092,10.0142 C39.6572,10.1132 39.8562,10.4122 39.8562,10.7102 C39.8062,11.1092 39.4582,11.4572 39.0602,11.4572 L39.0602,11.4572 Z" id="Fill-9"></path>
                        <path d="M39.0605,35.3411 L5.7225,35.3411 C5.3245,35.3411 4.9765,34.9921 4.9765,34.5941 C4.9765,34.1961 5.3245,33.8481 5.7225,33.8481 L39.0605,33.8481 C39.4585,33.8481 39.8065,34.1961 39.8065,34.5941 C39.8065,34.9921 39.4585,35.3411 39.0605,35.3411" id="Fill-11"></path>
                        <path d="M41.5483,37.8284 L3.2343,37.8284 C2.8363,37.8284 2.4873,37.4804 2.4873,37.0824 C2.4873,36.6834 2.8363,36.3364 3.2343,36.3364 L41.5483,36.3364 C41.9463,36.3364 42.2943,36.6834 42.2943,37.0824 C42.2943,37.4804 41.9463,37.8284 41.5483,37.8284" id="Fill-13"></path>
                        <path d="M44.0361,40.3167 L0.7461,40.3167 C0.3481,40.3167 0.0001,39.9677 0.0001,39.5707 C0.0001,39.1717 0.3481,38.8237 0.7461,38.8237 L44.0361,38.8237 C44.4341,38.8237 44.7831,39.1717 44.7831,39.5707 C44.7831,39.9677 44.4341,40.3167 44.0361,40.3167" id="Fill-15"></path>
                        <path d="M26.5327,26.4632 C25.6457,27.6852 24.5077,28.5882 22.7677,28.5882 C20.3907,28.5882 18.6167,26.8992 18.0317,24.4222 L16.9607,24.4222 C16.6767,24.4222 16.4417,24.1882 16.4417,23.9032 C16.4417,23.6022 16.6767,23.3672 16.9607,23.3672 L17.8647,23.3672 C17.8477,23.1002 17.8307,22.8322 17.8307,22.5482 C17.8307,22.2132 17.8477,21.8782 17.8817,21.5612 L16.9607,21.5612 C16.6767,21.5612 16.4417,21.3262 16.4417,21.0412 C16.4417,20.7572 16.6767,20.5232 16.9607,20.5232 L18.0817,20.5232 C18.7177,18.1802 20.4247,16.4732 22.6837,16.4732 C24.4907,16.4732 25.5957,17.2932 26.4657,18.4142 C26.5497,18.5152 26.6327,18.6652 26.6327,18.8502 C26.6327,19.1842 26.3487,19.4692 26.0137,19.4692 C25.7797,19.4692 25.6127,19.3522 25.5117,19.2342 C24.7417,18.2132 23.9557,17.6612 22.6337,17.6612 C21.1277,17.6612 19.9397,18.8162 19.4377,20.5232 L23.2857,20.5232 C23.5707,20.5232 23.8217,20.7572 23.8217,21.0412 C23.8217,21.3262 23.5707,21.5612 23.2857,21.5612 L19.2027,21.5612 C19.1697,21.8782 19.1527,22.1962 19.1527,22.5142 C19.1527,22.8162 19.1527,23.1002 19.1867,23.3672 L23.2857,23.3672 C23.5707,23.3672 23.8217,23.6022 23.8217,23.9032 C23.8217,24.1882 23.5707,24.4222 23.2857,24.4222 L19.3867,24.4222 C19.8887,26.2292 21.1447,27.4002 22.8177,27.4002 C24.0387,27.4002 24.8757,26.7312 25.5957,25.7432 C25.6957,25.6092 25.8467,25.5102 26.0637,25.5102 C26.3987,25.5102 26.6667,25.7612 26.6667,26.0952 C26.6667,26.2292 26.5987,26.3622 26.5327,26.4632" id="Fill-18"></path>
                    </g>
                </g>
            </g>
        </g>
    </g>
</svg>