<?xml version="1.0" encoding="UTF-8"?>
<svg width="35px" height="40px" viewBox="0 0 35 40" version="1.1" xmlns="http://www.w3.org/2000/svg" xmlns:xlink="http://www.w3.org/1999/xlink">
    <!-- Generator: Sketch 55.1 (78136) - https://sketchapp.com -->
    <title>consumer-durable</title>
    <desc>Created with Sketch.</desc>
    <g id="SCALEWORK-WEBSITE-WIP" stroke="none" stroke-width="1" fill="none" fill-rule="evenodd">
        <g id="SCALEWORK-Desktop-Solutions" transform="translate(-605.000000, -2751.000000)" fill="#6A1B9A">
            <g id="04-Past-solutions" transform="translate(130.000000, 2182.000000)">
                <g id="Industry-Icons" transform="translate(41.000000, 539.000000)">
                    <path d="M439.323863,36.8857897 L446.540187,36.8857897 L446.540187,33.7527328 L439.323863,33.7527328 L439.323863,36.8857897 Z M463.608442,34.3693931 C462.928479,34.3693931 462.376386,34.9317753 462.376386,35.6268375 C462.376386,36.3218997 462.928479,36.8857897 463.608442,36.8857897 C464.286899,36.8857897 464.837488,36.3218997 464.837488,35.6268375 C464.837488,34.9317753 464.286899,34.3693931 463.608442,34.3693931 L463.608442,34.3693931 Z M459.981475,34.3693931 C459.303017,34.3693931 458.750924,34.9317753 458.750924,35.6268375 C458.750924,36.3218997 459.303017,36.8857897 459.981475,36.8857897 C460.661437,36.8857897 461.212026,36.3218997 461.212026,35.6268375 C461.210522,34.9317753 460.661437,34.3693931 459.981475,34.3693931 L459.981475,34.3693931 Z M457.58506,35.6268375 C457.58506,36.3218997 457.034471,36.8857897 456.354509,36.8857897 C455.674547,36.8857897 455.123958,36.3218997 455.123958,35.6268375 C455.123958,34.9317753 455.674547,34.3693931 456.354509,34.3693931 C457.034471,34.3693931 457.58506,34.9317753 457.58506,35.6268375 L457.58506,35.6268375 Z M457.589573,53.7105164 L456.975802,53.7105164 C456.975802,50.6166604 454.519213,48.1002639 451.498496,48.1002639 L451.498496,47.4851112 C454.856185,47.4851112 457.589573,50.2789295 457.589573,53.7105164 L457.589573,53.7105164 Z M451.498496,46.315115 C447.518009,46.315115 444.279163,49.6336223 444.279163,53.7120241 C444.279163,57.7904259 447.518009,61.1074256 451.498496,61.1074256 C455.478982,61.1074256 458.71482,57.7904259 458.71482,53.7120241 C458.71482,49.6336223 455.478982,46.315115 451.498496,46.315115 L451.498496,46.315115 Z M451.498496,62.3362231 C446.841056,62.3362231 443.05162,58.4673954 443.05162,53.7105164 C443.05162,48.9536374 446.839551,45.0833019 451.498496,45.0833019 C456.155936,45.0833019 459.942362,48.9536374 459.942362,53.7105164 C459.942362,58.4673954 456.155936,62.3362231 451.498496,62.3362231 L451.498496,62.3362231 Z M451.498496,43.5062194 C446.006146,43.5062194 441.538253,48.0836789 441.538253,53.7105164 C441.538253,59.3373539 446.006146,63.9148134 451.498496,63.9148134 C456.987836,63.9148134 461.455729,59.3373539 461.455729,53.7105164 C461.455729,48.0836789 456.987836,43.5062194 451.498496,43.5062194 L451.498496,43.5062194 Z M451.498496,65.7632868 C444.990716,65.7632868 439.69694,60.3565775 439.69694,53.7120241 C439.69694,47.0659631 444.990716,41.6592537 451.498496,41.6592537 C458.003267,41.6592537 463.298547,47.0659631 463.298547,53.7120241 C463.298547,60.3565775 458.003267,65.7632868 451.498496,65.7632868 L451.498496,65.7632868 Z M467.157182,65.9321523 C467.157182,67.1579344 466.156795,68.154542 464.93527,68.154542 L438.058712,68.154542 C436.837187,68.154542 435.842818,67.1579344 435.842818,65.9321523 L435.842818,39.8891821 L467.157182,39.8891821 L467.157182,65.9321523 Z M435.842818,34.0723709 C435.842818,32.8420656 436.837187,31.845458 438.058712,31.845458 L464.93527,31.845458 C466.156795,31.845458 467.157182,32.8420656 467.157182,34.0723709 L467.157182,38.657369 L435.842818,38.657369 L435.842818,34.0723709 Z M464.93527,30 L438.058712,30 C435.818748,30 434,31.8258575 434,34.0723709 L434,65.9321523 C434,68.1786657 435.818748,70 438.058712,70 L464.93527,70 C467.176739,70 469,68.1786657 469,65.9321523 L469,34.0723709 C469,31.8258575 467.175234,30 464.93527,30 L464.93527,30 Z" id="consumer-durable"></path>
                </g>
            </g>
        </g>
    </g>
</svg>