<?xml version="1.0" encoding="UTF-8"?>
<svg width="39px" height="39px" viewBox="0 0 39 39" version="1.1" xmlns="http://www.w3.org/2000/svg" xmlns:xlink="http://www.w3.org/1999/xlink">
    <!-- Generator: Sketch 55.1 (78136) - https://sketchapp.com -->
    <title>consumer</title>
    <desc>Created with Sketch.</desc>
    <g id="SCALEWORK-WEBSITE-WIP" stroke="none" stroke-width="1" fill="none" fill-rule="evenodd">
        <g id="SCALEWORK-Desktop-Solutions" transform="translate(-803.000000, -2752.000000)" fill="#6A1B9A">
            <g id="04-Past-solutions" transform="translate(130.000000, 2182.000000)">
                <g id="Industry-Icons" transform="translate(41.000000, 539.000000)">
                    <path d="M662.3345,59.1655 L668.834,59.1655 L668.834,54.832 L662.3345,54.832 L662.3345,59.1655 Z M636.3335,67.834 C635.1395,67.834 634.166,66.8605 634.166,65.6665 L634.166,45.5635 C634.8065,45.937 635.54,46.1665 636.3335,46.1665 L668.834,46.1665 L668.834,52.666 L661.25,52.666 C660.6515,52.666 660.1655,53.152 660.1655,53.7505 L660.1655,60.25 C660.1655,60.8485 660.6515,61.3345 661.25,61.3345 L668.834,61.3345 L668.834,67.834 L636.3335,67.834 Z M636.3335,39.667 L640.6655,39.667 L640.6655,44.0005 L636.3335,44.0005 C635.1395,44.0005 634.166,43.0285 634.166,41.833 C634.166,40.639 635.1395,39.667 636.3335,39.667 L636.3335,39.667 Z M642.8345,43.999 L657.9995,43.999 L657.9995,33.166 L642.8345,33.166 L642.8345,43.999 Z M660.1655,44.0005 L664.5005,44.0005 L664.5005,39.667 L660.1655,39.667 L660.1655,44.0005 Z M669.9155,44.0005 L666.6665,44.0005 L666.6665,38.584 C666.6665,37.984 666.182,37.4995 665.5835,37.4995 L660.1655,37.4995 L660.1655,32.083 C660.1655,31.4845 659.6825,31 659.084,31 L641.75,31 C641.1515,31 640.6655,31.4845 640.6655,32.083 L640.6655,37.4995 L636.3335,37.4995 C633.944,37.4995 632,39.4435 632,41.833 L632,65.6665 C632,68.056 633.944,70 636.3335,70 L669.9155,70 C670.5155,70 671,69.5155 671,68.9155 L671,45.0835 C671,44.485 670.5155,44.0005 669.9155,44.0005 L669.9155,44.0005 Z" id="consumer"></path>
                </g>
            </g>
        </g>
    </g>
</svg>