<?xml version="1.0" encoding="UTF-8"?>
<svg width="25px" height="26px" viewBox="0 0 25 26" version="1.1" xmlns="http://www.w3.org/2000/svg" xmlns:xlink="http://www.w3.org/1999/xlink">
    <!-- Generator: Sketch 55.1 (78136) - https://sketchapp.com -->
    <title>data-experts</title>
    <desc>Created with Sketch.</desc>
    <g id="SCALEWORK-WEBSITE-WIP" stroke="none" stroke-width="1" fill="none" fill-rule="evenodd">
        <g id="SCALEWORK-Desktop-Home" transform="translate(-793.000000, -253.000000)" stroke="#DF265E" stroke-width="0.7">
            <g id="NAV-Secondary-menu" transform="translate(763.000000, 81.000000)">
                <g id="Group-3" transform="translate(27.000000, 27.000000)">
                    <g id="data-experts" transform="translate(3.000000, 145.000000)">
                        <path d="M20.1355,18.4427 L22.8015,18.4427 C23.1265,18.4427 23.3315,18.0957 23.1785,17.8097 C22.9675,17.4167 22.7885,17.0427 22.8215,16.9307 C22.8695,16.7567 23.1565,16.7077 23.8275,16.3087 C24.4985,15.9117 24.4245,15.3647 24.1515,14.9417 C23.8775,14.5187 22.0605,12.1557 22.0125,11.4357 C21.9815,10.9687 22.5405,9.7947 22.1495,7.9477 C21.7575,6.1017 19.5815,0.1857 11.6565,0.3537 C3.7295,0.5207 0.3505,5.9157 0.3505,9.7387 C0.3505,13.5617 2.2905,15.4217 2.9215,17.2787 C3.7545,19.7297 4.1995,22.5667 2.6475,25.7917" id="Stroke-1"></path>
                        <path d="M15.0476,25.9115 C15.4036,24.4305 16.0796,23.1685 16.6936,22.9145" id="Stroke-3"></path>
                        <path d="M13.9168,19.5736 C14.4468,21.0566 14.8448,22.3796 15.3498,22.5396 C16.1068,22.7806 19.1138,23.6336 20.2468,23.2026 C21.3798,22.7716 21.1568,21.7396 21.1738,21.4316 C21.2138,20.6716 21.9808,20.5806 21.8658,19.5606" id="Stroke-5"></path>
                        <path d="M7.699,7.1371 C7.699,8.0741 6.939,8.8321 6.003,8.8321 C5.066,8.8321 4.307,8.0741 4.307,7.1371 C4.307,6.2001 5.066,5.4411 6.003,5.4411 C6.939,5.4411 7.699,6.2001 7.699,7.1371 Z" id="Stroke-7"></path>
                        <path d="M19.0047,7.1371 C19.0047,8.0741 18.2447,8.8321 17.3087,8.8321 C16.3717,8.8321 15.6127,8.0741 15.6127,7.1371 C15.6127,6.2001 16.3717,5.4411 17.3087,5.4411 C18.2447,5.4411 19.0047,6.2001 19.0047,7.1371 Z" id="Stroke-9"></path>
                        <path d="M13.3513,4.3109 C13.3513,5.2479 12.5923,6.0059 11.6563,6.0059 C10.7193,6.0059 9.9593,5.2479 9.9593,4.3109 C9.9593,3.3739 10.7193,2.6149 11.6563,2.6149 C12.5923,2.6149 13.3513,3.3739 13.3513,4.3109 Z" id="Stroke-11"></path>
                        <path d="M11.656,6.0062 L11.656,22.4002" id="Stroke-13"></path>
                        <polyline id="Stroke-15" points="16.1785 8.2679 13.9165 10.5289 13.9165 13.9199"></polyline>
                        <polyline id="Stroke-17" points="7.1336 8.2679 9.3946 10.5289 9.3946 13.9199"></polyline>
                        <path d="M7.1336,12.7894 C7.1336,13.7264 6.3736,14.4854 5.4376,14.4854 C4.5006,14.4854 3.7416,13.7264 3.7416,12.7894 C3.7416,11.8524 4.5006,11.0944 5.4376,11.0944 C6.3736,11.0944 7.1336,11.8524 7.1336,12.7894 Z" id="Stroke-19"></path>
                        <polyline id="Stroke-21" points="6.5681 13.9203 8.8291 16.1823 8.8291 25.7913"></polyline>
                        <path d="M19.5701,12.7894 C19.5701,13.7264 18.8101,14.4854 17.8741,14.4854 C16.9371,14.4854 16.1781,13.7264 16.1781,12.7894 C16.1781,11.8524 16.9371,11.0944 17.8741,11.0944 C18.8101,11.0944 19.5701,11.8524 19.5701,12.7894 Z" id="Stroke-23"></path>
                        <polyline id="Stroke-25" points="16.7429 13.9203 13.9169 16.7463 13.9169 17.8773"></polyline>
                    </g>
                </g>
            </g>
        </g>
    </g>
</svg>