<?xml version="1.0" encoding="UTF-8"?>
<svg width="38px" height="38px" viewBox="0 0 38 38" version="1.1" xmlns="http://www.w3.org/2000/svg" xmlns:xlink="http://www.w3.org/1999/xlink">
    <!-- Generator: Sketch 55.1 (78136) - https://sketchapp.com -->
    <title>government</title>
    <desc>Created with Sketch.</desc>
    <g id="SCALEWORK-WEBSITE-WIP" stroke="none" stroke-width="1" fill="none" fill-rule="evenodd">
        <g id="SCALEWORK-Desktop-Solutions" transform="translate(-1203.000000, -2753.000000)" fill="#6A1B9A">
            <g id="04-Past-solutions" transform="translate(130.000000, 2182.000000)">
                <g id="Industry-Icons" transform="translate(41.000000, 539.000000)">
                    <g id="government" transform="translate(1032.000000, 32.000000)">
                        <path d="M5.18168,29.36336 L6.9084,29.36336 L6.9084,16.4084 L5.18168,16.4084 L5.18168,29.36336 Z M13.81832,29.36336 L15.54504,29.36336 L15.54504,16.4084 L13.81832,16.4084 L13.81832,29.36336 Z M22.45496,29.36336 L24.18168,29.36336 L24.18168,16.4084 L22.45496,16.4084 L22.45496,29.36336 Z M31.0916,29.36336 L32.81832,29.36336 L32.81832,16.4084 L31.0916,16.4084 L31.0916,29.36336 Z M25.9084,29.36336 L29.36336,29.36336 L29.36336,16.4084 L25.9084,16.4084 L25.9084,29.36336 Z M17.27328,29.36336 L20.72672,29.36336 L20.72672,16.4084 L17.27328,16.4084 L17.27328,29.36336 Z M8.63664,29.36336 L12.0916,29.36336 L12.0916,16.4084 L8.63664,16.4084 L8.63664,29.36336 Z M18.70208,3.50816 L10.81784,6.41288 C12.4716,3.61152 15.51768,1.72672 19,1.72672 C22.48232,1.72672 25.5284,3.61152 27.18216,6.41288 L19.29792,3.50816 C19.1064,3.43672 18.8936,3.43672 18.70208,3.50816 L18.70208,3.50816 Z M37.13664,32.81832 L6.04504,32.81832 C5.56928,32.81832 5.18168,33.2044 5.18168,33.68168 C5.18168,34.15896 5.56928,34.54504 6.04504,34.54504 L36.27328,34.54504 L36.27328,36.27328 L1.72672,36.27328 L1.72672,34.54504 L2.5916,34.54504 C3.06888,34.54504 3.45496,34.15896 3.45496,33.68168 L3.45496,31.0916 L4.31832,31.0916 L7.77328,31.0916 L12.95496,31.0916 L16.4084,31.0916 L21.5916,31.0916 L25.04504,31.0916 L30.22672,31.0916 L33.68168,31.0916 L35.4084,31.0916 C35.88568,31.0916 36.27328,30.704 36.27328,30.22672 C36.27328,29.75096 35.88568,29.36336 35.4084,29.36336 L34.54504,29.36336 L34.54504,16.4084 L35.4084,16.4084 C35.88568,16.4084 36.27328,16.02232 36.27328,15.54504 L36.27328,12.0916 L36.27328,10.36336 C36.27328,10.0016 36.0468,9.67784 35.70784,9.5532 L29.48344,7.25952 C27.8768,3.0248 23.79256,0 19,0 C14.20744,0 10.1232,3.0248 8.51656,7.25952 L2.29216,9.5532 C1.9532,9.67784 1.72672,10.0016 1.72672,10.36336 L1.72672,12.0916 C1.72672,12.56736 2.11432,12.95496 2.5916,12.95496 L31.95496,12.95496 C32.43072,12.95496 32.81832,12.56736 32.81832,12.0916 C32.81832,11.61432 32.43072,11.22672 31.95496,11.22672 L3.45496,11.22672 L3.45496,10.96528 L19,5.23944 L34.54504,10.96528 L34.54504,12.0916 L34.54504,14.68168 L33.68168,14.68168 L30.22672,14.68168 L25.04504,14.68168 L21.5916,14.68168 L16.4084,14.68168 L12.95496,14.68168 L7.77328,14.68168 L4.31832,14.68168 L2.5916,14.68168 C2.11432,14.68168 1.72672,15.06928 1.72672,15.54504 C1.72672,16.02232 2.11432,16.4084 2.5916,16.4084 L3.45496,16.4084 L3.45496,29.36336 L2.5916,29.36336 C2.11432,29.36336 1.72672,29.75096 1.72672,30.22672 L1.72672,32.81832 L0.86336,32.81832 C0.38608,32.81832 0,33.2044 0,33.68168 L0,37.13664 C0,37.61392 0.38608,38 0.86336,38 L37.13664,38 C37.61392,38 38,37.61392 38,37.13664 L38,33.68168 C38,33.2044 37.61392,32.81832 37.13664,32.81832 L37.13664,32.81832 Z" id="Fill-1"></path>
                        <path d="M17.272976,8.636032 C17.272976,9.589072 18.046656,10.364272 18.999696,10.364272 C19.954256,10.364272 20.726416,9.589072 20.726416,8.636032 C20.726416,7.682992 19.954256,6.909312 18.999696,6.909312 C18.046656,6.909312 17.272976,7.682992 17.272976,8.636032" id="Fill-3"></path>
                    </g>
                </g>
            </g>
        </g>
    </g>
</svg>