<?xml version="1.0" encoding="UTF-8"?>
<svg width="25px" height="36px" viewBox="0 0 25 36" version="1.1" xmlns="http://www.w3.org/2000/svg" xmlns:xlink="http://www.w3.org/1999/xlink">
    <!-- Generator: Sketch 55.1 (78136) - https://sketchapp.com -->
    <title>media</title>
    <desc>Created with Sketch.</desc>
    <g id="SCALEWORK-WEBSITE-WIP" stroke="none" stroke-width="1" fill="none" fill-rule="evenodd">
        <g id="SCALEWORK-Desktop-Solutions" transform="translate(-209.000000, -3057.000000)" fill="#6A1B9A">
            <g id="04-Past-solutions" transform="translate(130.000000, 2182.000000)">
                <g id="Industry-Icons" transform="translate(41.000000, 539.000000)">
                    <g id="media" transform="translate(38.000000, 336.000000)">
                        <path d="M18.4087612,6 C18.0066442,6 17.6799242,6.31663554 17.6799242,6.70731509 C17.6799242,7.09604612 18.0066442,7.41268166 18.4087612,7.41268166 L18.545481,7.41268166 C18.7063278,7.41268166 18.8520952,7.47698303 18.9586562,7.58025493 C19.0652172,7.68352683 19.1315665,7.824795 19.1315665,7.97970285 L19.1315665,16.0202972 C19.1315665,16.175205 19.0652172,16.3174474 18.9586562,16.4207193 C18.8520952,16.5239912 18.7063278,16.5873183 18.545481,16.5873183 L3.51434784,16.5873183 C3.35350105,16.5873183 3.20773364,16.5239912 3.10117264,16.4207193 C2.99461163,16.3174474 2.92826233,16.175205 2.92826233,16.0202972 L2.92826233,7.97970285 C2.92826233,7.824795 2.99461163,7.68352683 3.10117264,7.58025493 C3.20773364,7.47698303 3.35350105,7.41268166 3.51434784,7.41268166 L3.65106762,7.41268166 C4.05318461,7.41268166 4.37889937,7.09604612 4.37889937,6.70731509 C4.37889937,6.31663554 4.05318461,6 3.65106762,6 L3.51434784,6 C2.95138406,6 2.44069548,6.22310628 2.07074784,6.58163514 C1.70080021,6.940164 1.47058824,7.43508971 1.47058824,7.97970285 L1.47058824,16.0202972 C1.47058824,16.5658845 1.70080021,17.0608103 2.07074784,17.4193391 C2.44069548,17.777868 2.95138406,18 3.51434784,18 L18.545481,18 C19.1084448,18 19.6191333,17.777868 19.989081,17.4193391 C20.3590286,17.0608103 20.5882353,16.5658845 20.5882353,16.0202972 L20.5882353,7.97970285 C20.5882353,7.43508971 20.3590286,6.940164 19.989081,6.58163514 C19.6191333,6.22310628 19.1084448,6 18.545481,6 L18.4087612,6 Z" id="Fill-1"></path>
                        <path d="M9.4864246,2.32384691 C8.94090708,1.76643768 8.18661125,1.42198234 7.35342223,1.42198234 C6.52023322,1.42198234 5.76593739,1.76643768 5.21945775,2.32384691 C4.67394023,2.88027478 4.3352768,3.64965653 4.3352768,4.49950932 C4.3352768,5.34936212 4.67394023,6.11874387 5.21945775,6.67615309 C5.76593739,7.23258096 6.52023322,7.57801766 7.35342223,7.57801766 C8.18661125,7.57801766 8.94090708,7.23258096 9.4864246,6.67615309 C10.0329042,6.11874387 10.3696434,5.34936212 10.3696434,4.49950932 C10.3696434,3.64965653 10.0329042,2.88027478 9.4864246,2.32384691 M7.35342223,0 C8.57145606,0 9.67403644,0.50343474 10.4725894,1.31795878 C11.2711424,2.13248283 11.7647059,3.25711482 11.7647059,4.49950932 C11.7647059,5.74190383 11.2711424,6.86751717 10.4725894,7.68105986 C9.67403644,8.49558391 8.57145606,9 7.35342223,9 C6.1353884,9 5.03184591,8.49558391 4.23425504,7.68105986 C3.43473994,6.86751717 2.94117647,5.74190383 2.94117647,4.49950932 C2.94117647,3.25711482 3.43473994,2.13248283 4.23425504,1.31795878 C5.03184591,0.50343474 6.1353884,0 7.35342223,0" id="Fill-3"></path>
                        <path d="M11.5862341,1.31795878 C12.3847871,0.50343474 13.4873675,0 14.7063634,0 C15.9234351,0 17.0269776,0.50343474 17.8255306,1.31795878 C18.6231215,2.13248283 19.1176471,3.25809617 19.1176471,4.49950932 C19.1176471,5.74288518 18.6231215,6.86751717 17.8255306,7.68105986 C17.0269776,8.49558391 15.9234351,9 14.7063634,9 C13.4873675,9 12.3847871,8.49558391 11.5862341,7.68105986 C10.7876811,6.86751717 10.2941176,5.74288518 10.2941176,4.49950932 C10.2941176,3.25809617 10.7876811,2.13248283 11.5862341,1.31795878 M14.7063634,1.42198234 C13.8722123,1.42198234 13.1179165,1.76643768 12.5723989,2.32384691 C12.0268814,2.88125613 11.688218,3.64965653 11.688218,4.49950932 C11.688218,5.34936212 12.0268814,6.11972522 12.5723989,6.67615309 C13.1179165,7.23258096 13.8722123,7.57801766 14.7063634,7.57801766 C15.5385903,7.57801766 16.2938483,7.23258096 16.8393658,6.67615309 C17.3848833,6.11972522 17.7225846,5.34936212 17.7225846,4.49950932 C17.7225846,3.64965653 17.3848833,2.88125613 16.8393658,2.32384691 C16.2938483,1.76643768 15.5385903,1.42198234 14.7063634,1.42198234" id="Fill-5"></path>
                        <path d="M23.6033309,9.23515973 L20.513435,10.3416148 L20.513435,15.1585356 L23.6033309,16.2649906 L23.6033309,9.23515973 Z M19.6504217,9.12840528 L24.0743281,7.5430517 L24.073365,7.54005858 C24.4374487,7.4093592 24.8352439,7.60890024 24.9614211,7.98703052 C24.9883902,8.06984005 25.0009116,8.15464499 25,8.23845223 L25,17.2776614 C25,17.6767435 24.6869135,18 24.3016397,18 C24.1976158,18 24.0993709,17.9770528 24.010758,17.9351492 L19.5897411,16.3507933 L19.8160895,15.6693606 L19.5878147,16.3527887 C19.2940435,16.2480297 19.1120016,15.9596928 19.1177807,15.6553928 L19.1177807,9.83078974 C19.1177807,9.48957456 19.3450922,9.20423087 19.6504217,9.12840528 L19.6504217,9.12840528 Z" id="Fill-7"></path>
                        <path d="M13.1105477,18 L11.0294118,18 L8.94827586,18 C9.05882353,18.3206897 9.23935091,18.6062069 9.46957404,18.8410345 C9.86815416,19.2486207 10.4198783,19.5 11.0294118,19.5 C11.6389452,19.5 12.1906694,19.2486207 12.5902637,18.8410345 C12.8204868,18.6062069 13,18.3206897 13.1105477,18 L13.1105477,18 Z M11.0294118,16.5 L13.9716024,16.5 C14.3772819,16.5 14.7058824,16.8362069 14.7058824,17.25 C14.7058824,18.2844828 14.2941176,19.2237931 13.6288032,19.9013793 C12.9634888,20.58 12.0446247,21 11.0294118,21 C10.0141988,21 9.09533469,20.58 8.43002028,19.9013793 C7.76470588,19.2237931 7.35294118,18.2844828 7.35294118,17.25 C7.35294118,16.8362069 7.68154158,16.5 8.08823529,16.5 L11.0294118,16.5 Z" id="Fill-10"></path>
                        <path d="M10.1968976,20.5942148 C10.4038196,20.2384328 10.269427,19.7909019 9.89824735,19.5931319 C9.52600112,19.395362 9.05776017,19.5227911 8.8508382,19.8785731 L0.0971855408,34.9050106 C-0.10973643,35.2607926 0.0246561902,35.709343 0.396902416,35.9071129 C0.768082034,36.1048829 1.2373896,35.9764343 1.44431157,35.6206523 L10.1968976,20.5942148 Z" id="Fill-12"></path>
                        <path d="M13.2089863,19.8785731 C13.0020688,19.5227911 12.5327714,19.395362 12.1615998,19.5931319 C11.7893615,19.7909019 11.6549718,20.2394523 11.8618893,20.5942148 L20.6153535,35.6206523 C20.822271,35.9764343 21.2915684,36.1048829 21.6627401,35.9071129 C22.0349783,35.709343 22.1683014,35.2607926 21.9613839,34.9050106 L13.2089863,19.8785731 Z" id="Fill-15"></path>
                        <path d="M11.7647059,20.2150883 C11.7647059,19.8211002 11.4350913,19.5 11.0294118,19.5 C10.6237323,19.5 10.2941176,19.8211002 10.2941176,20.2150883 L10.2941176,32.2868817 C10.2941176,32.6808697 10.6237323,33 11.0294118,33 C11.4350913,33 11.7647059,32.6808697 11.7647059,32.2868817 L11.7647059,20.2150883 Z" id="Fill-18"></path>
                    </g>
                </g>
            </g>
        </g>
    </g>
</svg>