<?xml version="1.0" encoding="UTF-8"?>
<svg width="34px" height="36px" viewBox="0 0 34 36" version="1.1" xmlns="http://www.w3.org/2000/svg" xmlns:xlink="http://www.w3.org/1999/xlink">
    <!-- Generator: Sketch 55.1 (78136) - https://sketchapp.com -->
    <title>Telecom</title>
    <desc>Created with Sketch.</desc>
    <g id="SCALEWORK-WEBSITE-WIP" stroke="none" stroke-width="1" fill="none" fill-rule="evenodd">
        <g id="SCALEWORK-Desktop-Solutions" transform="translate(-1204.000000, -3056.000000)" stroke="#6A1B9A">
            <g id="04-Past-solutions" transform="translate(130.000000, 2182.000000)">
                <g id="Industry-Icons" transform="translate(41.000000, 539.000000)">
                    <path d="M1066,360.886126 C1063.45655,358.679847 1059.09795,357.064381 1055.72233,357.100353 C1054.71143,357.837232 1052.71308,359.921424 1051.99707,360.926458 C1050.08809,360.287684 1048.00932,358.255815 1046.16736,356.071337 C1044.32652,353.88577 1042.6845,351.502902 1042.41083,349.551698 C1043.56024,349.058991 1046.04226,347.54926 1046.97832,346.724086 C1047.6664,343.498603 1046.88449,339.014102 1045.15758,336.152699 C1043.15588,335.825681 1038.32702,335.921606 1034.83634,337.47058 C1033.40432,341.622612 1032.92624,350.987305 1040.90844,360.837073 C1049.27043,370.382715 1058.90136,370.365274 1063.35379,369.797354 C1065.58447,366.755001 1065.9408,362.865672 1066,360.886126 Z" id="Telecom"></path>
                </g>
            </g>
        </g>
    </g>
</svg>