<?xml version="1.0" encoding="UTF-8"?>
<svg width="33px" height="42px" viewBox="0 0 33 42" version="1.1" xmlns="http://www.w3.org/2000/svg" xmlns:xlink="http://www.w3.org/1999/xlink">
    <!-- Generator: Sketch 55.1 (78136) - https://sketchapp.com -->
    <title>utilities</title>
    <desc>Created with Sketch.</desc>
    <defs>
        <polygon id="path-1" points="0.409626087 0.0006 12.1926957 0.0006 12.1926957 42 0.409626087 42"></polygon>
    </defs>
    <g id="SCALEWORK-WEBSITE-WIP" stroke="none" stroke-width="1" fill="none" fill-rule="evenodd">
        <g id="SCALEWORK-Desktop-Solutions" transform="translate(-604.000000, -3202.000000)">
            <g id="04-Past-solutions" transform="translate(130.000000, 2182.000000)">
                <g id="Industry-Icons" transform="translate(41.000000, 539.000000)">
                    <g id="utilities" transform="translate(433.000000, 481.000000)">
                        <g id="Group-3" transform="translate(20.695652, 0.000000)">
                            <mask id="mask-2" fill="white">
                                <use xlink:href="#path-1"></use>
                            </mask>
                            <g id="Clip-2"></g>
                            <path d="M10.229713,15.9411 C10.229713,17.0826 9.74484348,18.1731 8.8978,18.9306 C8.5918,19.2051 8.48388696,19.6416 8.62875652,20.0301 C8.77362609,20.4171 9.14023478,20.6736 9.54675652,20.6736 L9.98432174,20.6736 C10.1173652,20.6736 10.229713,20.7876 10.229713,20.9226 L10.229713,23.4126 C10.229713,23.5476 10.1173652,23.6616 9.98432174,23.6616 L2.62110435,23.6616 C2.48658261,23.6616 2.37571304,23.5476 2.37571304,23.4126 L2.37571304,20.9226 C2.37571304,20.7876 2.48658261,20.6736 2.62110435,20.6736 L3.05571304,20.6736 C3.4651913,20.6736 3.83032174,20.4171 3.9751913,20.0301 C4.11858261,19.6416 4.01214783,19.2051 3.70614783,18.9306 C2.86058261,18.1731 2.37571304,17.0826 2.37571304,15.9411 L2.37571304,5.9781 C2.37571304,3.7806 4.13632174,1.9926 6.30197391,1.9926 C8.46762609,1.9926 10.229713,3.7806 10.229713,5.9781 L10.229713,15.9411 Z M7.62206087,39.6996 L4.9804087,39.6996 L4.9804087,36.6846 L6.30197391,36.2151 L7.62206087,36.6846 L7.62206087,39.6996 Z M12.1928435,5.9781 C12.1928435,2.6811 9.54971304,0.0006 6.30197391,0.0006 C3.05423478,0.0006 0.409626087,2.6811 0.409626087,5.9781 L0.409626087,15.9411 C0.409626087,17.0751 0.728930435,18.1746 1.31284348,19.1166 C0.765886957,19.5261 0.409626087,20.1831 0.409626087,20.9226 L0.409626087,23.4126 C0.409626087,24.6501 1.40153913,25.6566 2.62110435,25.6566 L5.3204087,25.6566 L5.3204087,34.1256 L3.47258261,34.7826 C3.01727826,34.9431 2.71275652,35.3796 2.71275652,35.8671 L2.71275652,40.8486 C2.71275652,41.4846 3.22127826,42.0006 3.84806087,42.0006 L8.75736522,42.0006 C9.38266957,42.0006 9.8911913,41.4846 9.8911913,40.8486 L9.8911913,35.8671 C9.8911913,35.3796 9.5851913,34.9431 9.13136522,34.7826 L7.28353913,34.1256 L7.28353913,25.6566 L9.98432174,25.6566 C11.2024087,25.6566 12.1928435,24.6501 12.1928435,23.4126 L12.1928435,20.9226 C12.1928435,20.1831 11.8380609,19.5261 11.2925826,19.1166 C11.8735391,18.1746 12.1928435,17.0751 12.1928435,15.9411 L12.1928435,5.9781 Z" id="Fill-1" fill="#6A1B9A" mask="url(#mask-2)"></path>
                        </g>
                        <path d="M26.9971826,4.98195 C26.4561391,4.98195 26.0156174,5.42745 26.0156174,5.97795 L26.0156174,15.94095 C26.0156174,16.49145 26.4561391,16.93845 26.9971826,16.93845 C27.5397043,16.93845 27.9787478,16.49145 27.9787478,15.94095 L27.9787478,5.97795 C27.9787478,5.42745 27.5397043,4.98195 26.9971826,4.98195" id="Fill-4" fill="#6A1B9A"></path>
                        <path d="M12.6008435,12.8679 C12.3924087,13.0569 12.2741478,13.3269 12.2741478,13.6104 L12.2741478,35.8674 C12.2741478,38.0664 10.5120609,39.8529 8.3464087,39.8529 C6.18075652,39.8529 4.41866957,38.0664 4.41866957,35.8674 L4.41866957,13.6104 C4.41866957,13.3269 4.29893043,13.0569 4.09197391,12.8679 C2.73936522,11.6394 1.96327826,9.8799 1.96327826,8.0424 C1.96327826,5.8044 3.10449565,3.7569 4.90945217,2.5854 L4.90945217,8.0424 C4.90945217,9.9639 6.45127826,11.5284 8.3464087,11.5284 C10.2415391,11.5284 11.7833652,9.9639 11.7833652,8.0424 L11.7833652,2.5854 C13.5868435,3.7569 14.7280609,5.8044 14.7280609,8.0424 C14.7280609,9.8799 13.9534522,11.6394 12.6008435,12.8679 M11.1284957,0.0564 C10.8269304,-0.0501 10.4943217,-0.0036 10.2341478,0.1824 C9.97397391,0.3699 9.81875652,0.6729 9.81875652,0.9954 L9.81875652,8.0424 C9.81875652,8.8659 9.15797391,9.5364 8.3464087,9.5364 C7.53336522,9.5364 6.87258261,8.8659 6.87258261,8.0424 L6.87258261,0.9954 C6.87258261,0.6729 6.71884348,0.3699 6.45866957,0.1824 C6.19701739,-0.0036 5.8644087,-0.0501 5.56432174,0.0564 C2.23675652,1.2504 0.000147826087,4.4604 0.000147826087,8.0424 C0.000147826087,10.2939 0.89006087,12.4554 2.45553913,14.0394 L2.45553913,35.8674 C2.45553913,39.1644 5.0971913,41.8449 8.3464087,41.8449 C11.5941478,41.8449 14.2372783,39.1644 14.2372783,35.8674 L14.2372783,14.0394 C15.8027565,12.4554 16.6926696,10.2939 16.6926696,8.0424 C16.6926696,4.4604 14.4560609,1.2504 11.1284957,0.0564" id="Fill-6" fill="#6A1B9A"></path>
                        <path d="M8.34566957,33.87525 C7.26210435,33.87525 6.38253913,34.76775 6.38253913,35.86725 C6.38253913,36.96975 7.26210435,37.86075 8.34566957,37.86075 C9.43071304,37.86075 10.3102783,36.96975 10.3102783,35.86725 C10.3102783,34.76775 9.43071304,33.87525 8.34566957,33.87525" id="Fill-8" fill="#6A1B9A"></path>
                        <path d="M8.34566957,30.88695 C8.8881913,30.88695 9.32871304,30.43995 9.32871304,29.88945 L9.32871304,14.86095 C9.32871304,14.31195 8.8881913,13.86495 8.34566957,13.86495 C7.80314783,13.86495 7.36410435,14.31195 7.36410435,14.86095 L7.36410435,29.88945 C7.36410435,30.43995 7.80314783,30.88695 8.34566957,30.88695" id="Fill-10" fill="#6A1B9A"></path>
                    </g>
                </g>
            </g>
        </g>
    </g>
</svg>