<?xml version="1.0" encoding="UTF-8"?>
<svg width="21px" height="23px" viewBox="0 0 21 23" version="1.1" xmlns="http://www.w3.org/2000/svg" xmlns:xlink="http://www.w3.org/1999/xlink">
    <!-- Generator: Sketch 55.1 (78136) - https://sketchapp.com -->
    <title>24-hours</title>
    <desc>Created with Sketch.</desc>
    <g id="SCALEWORK-WEBSITE-WIP" stroke="none" stroke-width="1" fill="none" fill-rule="evenodd">
        <g id="SCALEWORK-Desktop-Solutions" transform="translate(-953.000000, -255.000000)" stroke="#DF265E" stroke-width="0.7">
            <g id="Secondary-menu" transform="translate(920.000000, 81.000000)">
                <g id="Group-3" transform="translate(30.000000, 27.000000)">
                    <g id="24-hours" transform="translate(3.000000, 147.000000)">
                        <path d="M10.35,14.1376 L6.85,14.1376 L6.85,13.6636 L8.391,12.1676 C8.85,11.7506 9.126,11.4306 9.311,11.2096 C9.496,10.9896 9.608,10.7776 9.695,10.5756 C9.782,10.3746 9.814,10.1626 9.814,9.9426 C9.814,9.6206 9.597,8.9946 8.723,8.7736 C7.85,8.5526 6.95,9.0536 6.437,9.8316" id="Stroke-1"></path>
                        <polyline id="Stroke-3" points="14.85 12.6376 11.35 12.6376 11.35 11.9086 13.422 8.6376 13.85 8.6376 13.85 14.6376"></polyline>
                        <path d="M3.4355,4.4237 C1.5375,6.2437 0.3505,8.7997 0.3505,11.6377 C0.3505,17.1597 4.8275,21.6377 10.3505,21.6377 L11.8505,21.6377 L11.8505,22.6377 L15.3855,20.3877 L11.8505,18.1377 L11.8505,19.1377 L10.3505,19.1377 C6.2075,19.1377 2.8505,15.7797 2.8505,11.6377 C2.8505,9.2877 3.9325,7.1927 5.6235,5.8167" id="Stroke-5"></path>
                        <path d="M17.2641,18.8514 C19.1621,17.0314 20.3501,14.4754 20.3501,11.6374 C20.3501,6.1154 15.8721,1.6374 10.3501,1.6374 L8.8501,1.6374 L8.8501,0.6374 L5.3141,2.8874 L8.8501,5.1374 L8.8501,4.1374 L10.3501,4.1374 C14.4931,4.1374 17.8501,7.4954 17.8501,11.6374 C17.8501,13.9874 16.7681,16.0824 15.0761,17.4584" id="Stroke-7"></path>
                    </g>
                </g>
            </g>
        </g>
    </g>
</svg>