<?xml version="1.0" encoding="UTF-8"?>
<svg width="75px" height="86px" viewBox="0 0 75 86" version="1.1" xmlns="http://www.w3.org/2000/svg" xmlns:xlink="http://www.w3.org/1999/xlink">
    <!-- Generator: Sketch 55.1 (78136) - https://sketchapp.com -->
    <title>icon-methodology</title>
    <desc>Created with Sketch.</desc>
    <g id="SCALEWORK-WEBSITE-WIP" stroke="none" stroke-width="1" fill="none" fill-rule="evenodd" stroke-opacity="0.87">
        <g id="SCALEWORK-Desktop-How-it-works" transform="translate(-773.000000, -7977.000000)" stroke="#212121" stroke-width="2">
            <g id="08-Specialization-breakdown" transform="translate(153.000000, 7737.000000)">
                <g id="Pie-Methodologies" transform="translate(532.000000, 162.000000)">
                    <g id="icon-methodology" transform="translate(89.000000, 79.000000)">
                        <polygon id="Stroke-1" points="36 45 21 35.5 36 26 51 35.5"></polygon>
                        <polygon id="Stroke-2" points="60.5 68 49 60.5 60.5 53 72 60.5"></polygon>
                        <polygon id="Stroke-4" points="0 66 23 66 23 55 0 55"></polygon>
                        <polyline id="Stroke-7" points="51 36 60 36 60 53"></polyline>
                        <polyline id="Stroke-8" points="21 36 12 36 12 53"></polyline>
                        <polyline id="Stroke-9" points="11 65.75 11 83 35.7 83 35.7 60 49 60"></polyline>
                        <path d="M61,68 L61,85" id="Stroke-11"></path>
                        <path d="M51,8.5 C51,13.1938889 44.28375,17 36,17 C27.71625,17 21,13.1938889 21,8.5 C21,3.80611111 27.71625,0 36,0 C44.28375,0 51,3.80611111 51,8.5 Z" id="Stroke-13"></path>
                        <path d="M36,17 L36,26" id="Stroke-15"></path>
                    </g>
                </g>
            </g>
        </g>
    </g>
</svg>