<?xml version="1.0" encoding="UTF-8"?>
<svg width="78px" height="82px" viewBox="0 0 78 82" version="1.1" xmlns="http://www.w3.org/2000/svg" xmlns:xlink="http://www.w3.org/1999/xlink">
    <!-- Generator: Sketch 55.1 (78136) - https://sketchapp.com -->
    <title>icon-profiles</title>
    <desc>Created with Sketch.</desc>
    <g id="SCALEWORK-WEBSITE-WIP" stroke="none" stroke-width="1" fill="none" fill-rule="evenodd" stroke-opacity="0.87">
        <g id="SCALEWORK-Desktop-How-it-works" transform="translate(-216.000000, -8293.000000)" stroke="#212121" stroke-width="2">
            <g id="08-Specialization-breakdown" transform="translate(153.000000, 7737.000000)">
                <g id="Pie-Profiles" transform="translate(0.000000, 482.000000)">
                    <g id="icon-profiles" transform="translate(64.000000, 75.000000)">
                        <path d="M62.6528813,56.8908062 L71.0984897,56.8908062 C72.125997,56.8908062 72.7740068,55.8029801 72.2906845,54.9017909 C71.6247739,53.6646553 71.0555277,52.4879546 71.1575624,52.1377884 C71.3150897,51.5903203 72.2208713,51.4339009 74.3456991,50.1825454 C76.4723169,48.93119 76.236026,47.2123537 75.3696261,45.8827885 C74.5032263,44.5532233 68.7499017,37.1215227 68.5977447,34.8569959 C68.5010803,33.3905637 70.2714717,29.6969321 69.0309446,23.8916381 C67.7904176,18.0845666 60.9003907,-0.51690353 35.8016465,0.0110120592 C10.7029022,0.538927648 0,17.4997713 0,29.5209602 C0,41.5421492 6.1471427,47.393658 8.14487457,53.2309469 C10.7798758,60.9363815 12.1922507,69.8593992 7.27310448,80" id="Stroke-1"></path>
                        <path d="M47,80 C48.0834478,75.5543191 50.1370192,71.7621652 52,71" id="Stroke-3"></path>
                        <path d="M43,61.03788 C44.6633684,65.7728836 45.9131137,69.9919974 47.498373,70.5024758 C49.8771495,71.2708993 59.3212474,73.9928499 62.8769858,72.618346 C66.4344993,71.2438421 65.7368432,67.9500834 65.7883242,66.9706141 C65.9161391,64.5408808 68.3250941,64.2522711 67.962952,61" id="Stroke-5"></path>
                        <path d="M23,21.5 C23,24.5378333 20.5378333,27 17.5,27 C14.4621667,27 12,24.5378333 12,21.5 C12,18.4621667 14.4621667,16 17.5,16 C20.5378333,16 23,18.4621667 23,21.5 Z" id="Stroke-7"></path>
                        <path d="M59,21.5 C59,24.5378333 56.5378333,27 53.5,27 C50.4621667,27 48,24.5378333 48,21.5 C48,18.4621667 50.4621667,16 53.5,16 C56.5378333,16 59,18.4621667 59,21.5 Z" id="Stroke-9"></path>
                        <path d="M41,12.5 C41,15.5378333 38.5378333,18 35.5,18 C32.4621667,18 30,15.5378333 30,12.5 C30,9.46216667 32.4621667,7 35.5,7 C38.5378333,7 41,9.46216667 41,12.5 Z" id="Stroke-11"></path>
                        <path d="M36,18 L36,70" id="Stroke-13"></path>
                        <polyline id="Stroke-15" points="50 25 43 32.2 43 43"></polyline>
                        <polyline id="Stroke-17" points="22 25 29 32.2 29 43"></polyline>
                        <path d="M22,39.5 C22,42.5378333 19.5378333,45 16.5,45 C13.4621667,45 11,42.5378333 11,39.5 C11,36.4621667 13.4621667,34 16.5,34 C19.5378333,34 22,36.4621667 22,39.5 Z" id="Stroke-19"></path>
                        <polyline id="Stroke-21" points="20 43 27 50.047619 27 80"></polyline>
                        <path d="M61,39.5 C61,42.5378333 58.5378333,45 55.5,45 C52.4621667,45 50,42.5378333 50,39.5 C50,36.4621667 52.4621667,34 55.5,34 C58.5378333,34 61,36.4621667 61,39.5 Z" id="Stroke-23"></path>
                        <polyline id="Stroke-25" points="52 43 43 51.5714286 43 55"></polyline>
                    </g>
                </g>
            </g>
        </g>
    </g>
</svg>