<?xml version="1.0" encoding="UTF-8"?>
<svg width="58px" height="64px" viewBox="0 0 58 64" version="1.1" xmlns="http://www.w3.org/2000/svg" xmlns:xlink="http://www.w3.org/1999/xlink">
    <!-- Generator: Sketch 55.1 (78136) - https://sketchapp.com -->
    <title>icon-tech</title>
    <desc>Created with Sketch.</desc>
    <g id="SCALEWORK-WEBSITE-WIP" stroke="none" stroke-width="1" fill="none" fill-rule="evenodd">
        <g id="SCALEWORK-Desktop-How-it-works" transform="translate(-225.000000, -7994.000000)">
            <g id="08-Specialization-breakdown" transform="translate(153.000000, 7737.000000)">
                <g id="Pie-Technologies" transform="translate(0.000000, 186.000000)">
                    <g id="icon-tech" transform="translate(73.000000, 72.000000)">
                        <polygon id="Stroke-1" stroke-opacity="0.87" stroke="#212121" stroke-width="2" stroke-linejoin="round" points="0 62 56 62 56 0 0 0"></polygon>
                        <path d="M5,5 L8,5" id="Stroke-3" stroke-opacity="0.87" stroke="#212121" stroke-width="2" stroke-linejoin="round"></path>
                        <path d="M11,5 L14,5" id="Stroke-4" stroke-opacity="0.87" stroke="#212121" stroke-width="2" stroke-linejoin="round"></path>
                        <path d="M0,9 L56,9" id="Stroke-5" stroke-opacity="0.87" stroke="#212121" stroke-width="2" stroke-linejoin="round"></path>
                        <path d="M21.7462188,43 C21.4255359,43 21.1048529,42.872132 20.8598868,42.6194773 L15.3681915,36.9208803 C15.1321332,36.6774691 15,36.3462448 15,35.9996149 C15,35.6545254 15.1321332,35.3248418 15.3681915,35.07989 L20.8598868,29.381293 C21.3483344,28.8729023 22.1441032,28.8729023 22.6325508,29.381293 C23.1224831,29.8896836 23.1224831,30.7123521 22.6325508,31.2207428 L18.0271875,35.9996149 L22.6325508,40.7800275 C23.1224831,41.2884182 23.1224831,42.1110867 22.6325508,42.6194773 C22.3890693,42.872132 22.0669017,43 21.7462188,43" id="Fill-6" fill-opacity="0.87" fill="#000000"></path>
                        <path d="M34.2540942,43 C33.9334261,43 33.6112735,42.872132 33.3663187,42.6194773 C32.8778938,42.1110867 32.8778938,41.2884182 33.3663187,40.7800275 L37.9729529,35.9996149 L33.3663187,31.2207428 C32.8778938,30.7123521 32.8778938,29.8896836 33.3663187,29.381293 C33.8562283,28.8729023 34.6519601,28.8729023 35.1403851,29.381293 L40.6318256,35.07989 C40.8663883,35.3248418 41,35.6545254 41,35.9996149 C41,36.3462448 40.8663883,36.6774691 40.6318256,36.9208803 L35.1403851,42.6194773 C34.8954303,42.872132 34.5747622,43 34.2540942,43" id="Fill-7" fill-opacity="0.87" fill="#000000"></path>
                        <path d="M25.2446503,43 C25.0648374,43 24.8835506,42.9620607 24.711107,42.8803452 C24.089131,42.5870449 23.8253071,41.8516053 24.1215563,41.2372799 L30.6316695,27.7031496 C30.9264448,27.0888241 31.6692787,26.8276264 32.2897807,27.1194674 C32.9102828,27.4113085 33.1741067,28.1467481 32.8793314,28.7610735 L26.3692182,42.2981222 C26.1555061,42.7402614 25.7089215,43 25.2446503,43" id="Fill-8" fill-opacity="0.87" fill="#000000"></path>
                    </g>
                </g>
            </g>
        </g>
    </g>
</svg>