<?xml version="1.0" encoding="UTF-8"?>
<svg width="128px" height="128px" viewBox="0 0 128 128" version="1.1" xmlns="http://www.w3.org/2000/svg" xmlns:xlink="http://www.w3.org/1999/xlink">
    <!-- Generator: Sketch 55.1 (78136) - https://sketchapp.com -->
    <title>Group 10</title>
    <desc>Created with Sketch.</desc>
    <g id="SCALEWORK-WEBSITE-WIP" stroke="none" stroke-width="1" fill="none" fill-rule="evenodd">
        <g id="SCALEWORK-Desktop-How-it-works" transform="translate(-732.000000, -5062.000000)">
            <g id="06-Specializations" transform="translate(0.000000, 4882.000000)">
                <g id="Group-3-Copy" transform="translate(732.000000, 180.000000)">
                    <g id="Group-10">
                        <circle id="Oval" fill="#DF265E" cx="64" cy="64" r="64"></circle>
                        <g id="Group-5" transform="translate(17.000000, 32.000000)" stroke="#FFFFFF" stroke-width="2">
                            <path d="M26.452,11.54 L26.052,11.54 L19.891,32.74 L32.691,32.74 L26.452,11.54 Z M39.651,56.34 L35.651,43.06 L17.012,43.06 L13.012,56.34 L0.691,56.34 L19.092,0.5 L34.132,0.5 L52.292,56.34 L39.651,56.34 Z" id="Stroke-1"></path>
                            <path d="M75.4637,22.0996 C73.0647,22.0996 71.1837,22.8876 69.8237,24.4596 C68.4637,26.0336 67.7837,28.1276 67.7837,30.7396 L67.7837,31.3796 L82.5037,31.3796 L82.5037,30.6596 C82.5037,28.0996 81.9307,26.0336 80.7837,24.4596 C79.6367,22.8876 77.8637,22.0996 75.4637,22.0996 Z M75.7037,57.2996 C72.5037,57.2996 69.6507,56.7796 67.1447,55.7396 C64.6367,54.6996 62.5167,53.2336 60.7837,51.3396 C59.0507,49.4476 57.7437,47.1396 56.8637,44.4196 C55.9847,41.6996 55.5437,38.6596 55.5437,35.2996 C55.5437,31.9936 55.9707,28.9936 56.8237,26.2996 C57.6767,23.6076 58.9437,21.2996 60.6237,19.3796 C62.3037,17.4596 64.3697,15.9796 66.8237,14.9396 C69.2767,13.8996 72.0757,13.3796 75.2237,13.3796 C78.6907,13.3796 81.6637,13.9676 84.1447,15.1396 C86.6237,16.3136 88.6507,17.8876 90.2237,19.8596 C91.7967,21.8336 92.9437,24.1136 93.6637,26.6996 C94.3837,29.2866 94.7437,31.9936 94.7437,34.8196 L94.7437,38.3396 L67.7837,38.3396 L67.7837,38.9746 C67.7837,41.7246 68.5297,43.9076 70.0247,45.5196 C71.5167,47.1336 73.8637,47.9396 77.0647,47.9396 C79.5167,47.9396 81.5167,47.4516 83.0647,46.4726 C84.6097,45.4936 86.0507,44.3156 87.3837,42.9406 L93.3037,50.3216 C91.4367,52.5136 88.9957,54.2246 85.9847,55.4546 C82.9707,56.6846 79.5437,57.2996 75.7037,57.2996 Z" id="Stroke-3"></path>
                        </g>
                    </g>
                </g>
            </g>
        </g>
    </g>
</svg>