<?xml version="1.0" encoding="UTF-8"?>
<svg width="128px" height="128px" viewBox="0 0 128 128" version="1.1" xmlns="http://www.w3.org/2000/svg" xmlns:xlink="http://www.w3.org/1999/xlink">
    <!-- Generator: Sketch 55.1 (78136) - https://sketchapp.com -->
    <title>Group 12</title>
    <desc>Created with Sketch.</desc>
    <g id="SCALEWORK-WEBSITE-WIP" stroke="none" stroke-width="1" fill="none" fill-rule="evenodd">
        <g id="SCALEWORK-Desktop-How-it-works" transform="translate(-732.000000, -5368.000000)">
            <g id="06-Specializations" transform="translate(0.000000, 4882.000000)">
                <g id="Group-3-Copy-3" transform="translate(732.000000, 486.000000)">
                    <g id="Group-12">
                        <circle id="Oval" fill="#DF265E" cx="64" cy="64" r="64"></circle>
                        <g id="Group-5" transform="translate(19.000000, 36.000000)" stroke="#FFFFFF" stroke-width="2">
                            <path d="M21.04,45.04 C24.666,45.04 27.519,44.027 29.6,42 C31.68,39.974 32.72,36.72 32.72,32.24 L32.72,23.6 C32.72,19.12 31.68,15.867 29.6,13.84 C27.519,11.813 24.666,10.8 21.04,10.8 L12.16,10.8 L12.16,45.04 L21.04,45.04 Z M0,0 L21.04,0 C24.72,0 28.08,0.587 31.12,1.76 C34.16,2.934 36.746,4.68 38.88,7 C41.013,9.32 42.666,12.227 43.84,15.72 C45.013,19.213 45.6,23.28 45.6,27.92 C45.6,32.56 45.013,36.627 43.84,40.12 C42.666,43.614 41.013,46.52 38.88,48.84 C36.746,51.16 34.16,52.907 31.12,54.08 C28.08,55.253 24.72,55.84 21.04,55.84 L0,55.84 L0,0 Z" id="Stroke-1"></path>
                            <path d="M67.5723,48.5601 C69.5453,48.5601 71.2383,48.1371 72.6523,47.2901 C74.0643,46.4431 74.7723,45.0671 74.7723,43.1611 L74.7723,38.2401 L69.0113,38.2401 C64.3723,38.2401 62.0513,39.8011 62.0513,42.9241 L62.0513,44.1151 C62.0513,45.6501 62.5323,46.7731 63.4923,47.4891 C64.4523,48.2041 65.8123,48.5601 67.5723,48.5601 Z M83.9713,55.8401 C81.8383,55.8401 80.0643,55.1741 78.6523,53.8401 C77.2383,52.5071 76.3443,50.7201 75.9713,48.4801 L75.4923,48.4801 C74.8523,51.2001 73.4383,53.2681 71.2523,54.6801 C69.0643,56.0921 66.3723,56.8001 63.1723,56.8001 C58.9583,56.8001 55.7323,55.6841 53.4923,53.4511 C51.2523,51.2191 50.1323,48.2681 50.1323,44.5991 C50.1323,40.1861 51.7443,36.9041 54.9713,34.7501 C58.1983,32.5971 62.5853,31.5201 68.1323,31.5201 L74.7723,31.5201 L74.7723,28.8801 C74.7723,26.8531 74.2383,25.2401 73.1723,24.0401 C72.1043,22.8401 70.3183,22.2401 67.8123,22.2401 C65.4653,22.2401 63.5983,22.7481 62.2123,23.7601 C60.8243,24.7731 59.6783,25.9201 58.7723,27.2001 L51.7323,20.9251 C53.4383,18.4051 55.5853,16.4341 58.1723,15.0121 C60.7593,13.5911 64.2643,12.8801 68.6923,12.8801 C74.6653,12.8801 79.1443,14.1871 82.1323,16.8001 C85.1183,19.4141 86.6123,23.2271 86.6123,28.2401 L86.6123,46.6401 L90.5323,46.6401 L90.5323,55.8401 L83.9713,55.8401 Z" id="Stroke-3"></path>
                        </g>
                    </g>
                </g>
            </g>
        </g>
    </g>
</svg>