<?xml version="1.0" encoding="UTF-8"?>
<svg width="128px" height="128px" viewBox="0 0 128 128" version="1.1" xmlns="http://www.w3.org/2000/svg" xmlns:xlink="http://www.w3.org/1999/xlink">
    <!-- Generator: Sketch 55.1 (78136) - https://sketchapp.com -->
    <title>Group 11</title>
    <desc>Created with Sketch.</desc>
    <g id="SCALEWORK-WEBSITE-WIP" stroke="none" stroke-width="1" fill="none" fill-rule="evenodd">
        <g id="SCALEWORK-Desktop-How-it-works" transform="translate(-153.000000, -5368.000000)">
            <g id="06-Specializations" transform="translate(0.000000, 4882.000000)">
                <g id="Group-3-Copy-2" transform="translate(153.000000, 486.000000)">
                    <g id="Group-11">
                        <circle id="Oval" fill="#DF265E" cx="64" cy="64" r="64"></circle>
                        <g id="Group-5" transform="translate(19.000000, 34.000000)" stroke="#FFFFFF" stroke-width="2">
                            <path d="M21.04,45.04 C24.666,45.04 27.519,44.027 29.6,42 C31.68,39.974 32.72,36.72 32.72,32.24 L32.72,23.6 C32.72,19.12 31.68,15.867 29.6,13.84 C27.519,11.813 24.666,10.8 21.04,10.8 L12.16,10.8 L12.16,45.04 L21.04,45.04 Z M0,0 L21.04,0 C24.72,0 28.08,0.587 31.12,1.76 C34.16,2.934 36.746,4.68 38.88,7 C41.013,9.32 42.666,12.227 43.84,15.72 C45.013,19.213 45.6,23.28 45.6,27.92 C45.6,32.56 45.013,36.627 43.84,40.12 C42.666,43.614 41.013,46.52 38.88,48.84 C36.746,51.16 34.16,52.907 31.12,54.08 C28.08,55.253 24.72,55.84 21.04,55.84 L0,55.84 L0,0 Z" id="Stroke-1"></path>
                            <path d="M70.2119,21.5996 C67.8129,21.5996 65.9319,22.3876 64.5719,23.9596 C63.2119,25.5336 62.5319,27.6276 62.5319,30.2396 L62.5319,30.8796 L77.2519,30.8796 L77.2519,30.1596 C77.2519,27.5996 76.6789,25.5336 75.5319,23.9596 C74.3849,22.3876 72.6119,21.5996 70.2119,21.5996 Z M70.4519,56.7996 C67.2519,56.7996 64.3989,56.2796 61.8929,55.2396 C59.3849,54.1996 57.2649,52.7336 55.5319,50.8396 C53.7989,48.9476 52.4919,46.6396 51.6119,43.9196 C50.7329,41.1996 50.2919,38.1596 50.2919,34.7996 C50.2919,31.4936 50.7189,28.4936 51.5719,25.7996 C52.4249,23.1076 53.6919,20.7996 55.3719,18.8796 C57.0519,16.9596 59.1179,15.4796 61.5719,14.4396 C64.0249,13.3996 66.8239,12.8796 69.9719,12.8796 C73.4389,12.8796 76.4119,13.4676 78.8929,14.6396 C81.3719,15.8136 83.3989,17.3876 84.9719,19.3596 C86.5449,21.3336 87.6919,23.6136 88.4119,26.1996 C89.1319,28.7866 89.4919,31.4936 89.4919,34.3196 L89.4919,37.8396 L62.5319,37.8396 L62.5319,38.4746 C62.5319,41.2246 63.2779,43.4076 64.7729,45.0196 C66.2649,46.6336 68.6119,47.4396 71.8129,47.4396 C74.2649,47.4396 76.2649,46.9516 77.8129,45.9726 C79.3579,44.9936 80.7989,43.8156 82.1319,42.4406 L88.0519,49.8216 C86.1849,52.0136 83.7439,53.7246 80.7329,54.9546 C77.7189,56.1846 74.2919,56.7996 70.4519,56.7996 Z" id="Stroke-3"></path>
                        </g>
                    </g>
                </g>
            </g>
        </g>
    </g>
</svg>