<?xml version="1.0" encoding="UTF-8"?>
<svg width="128px" height="128px" viewBox="0 0 128 128" version="1.1" xmlns="http://www.w3.org/2000/svg" xmlns:xlink="http://www.w3.org/1999/xlink">
    <!-- Generator: Sketch 55.1 (78136) - https://sketchapp.com -->
    <title>Group 9</title>
    <desc>Created with Sketch.</desc>
    <g id="SCALEWORK-WEBSITE-WIP" stroke="none" stroke-width="1" fill="none" fill-rule="evenodd">
        <g id="SCALEWORK-Desktop-How-it-works" transform="translate(-153.000000, -5062.000000)">
            <g id="06-Specializations" transform="translate(0.000000, 4882.000000)">
                <g id="Group-3" transform="translate(153.000000, 180.000000)">
                    <g id="Group-9">
                        <circle id="Oval" fill="#DF265E" cx="64" cy="64" r="64"></circle>
                        <g id="Group-5" transform="translate(21.000000, 35.000000)" stroke="#FFFFFF" stroke-width="2">
                            <path d="M21.54,45.54 C25.166,45.54 28.019,44.527 30.1,42.5 C32.18,40.474 33.22,37.22 33.22,32.74 L33.22,24.1 C33.22,19.62 32.18,16.367 30.1,14.34 C28.019,12.313 25.166,11.3 21.54,11.3 L12.66,11.3 L12.66,45.54 L21.54,45.54 Z M0.5,0.5 L21.54,0.5 C25.22,0.5 28.58,1.087 31.62,2.26 C34.66,3.434 37.246,5.18 39.38,7.5 C41.513,9.82 43.166,12.727 44.34,16.22 C45.513,19.713 46.1,23.78 46.1,28.42 C46.1,33.06 45.513,37.127 44.34,40.62 C43.166,44.114 41.513,47.02 39.38,49.34 C37.246,51.66 34.66,53.407 31.62,54.58 C28.58,55.753 25.22,56.34 21.54,56.34 L0.5,56.34 L0.5,0.5 Z" id="Stroke-1"></path>
                            <path d="M67.6719,57.2998 C63.6179,57.2998 60.2049,56.6458 57.4319,55.3398 C54.6579,54.0338 52.1789,52.1798 49.9919,49.7798 L56.9519,42.7398 C58.4439,44.3938 60.0989,45.6998 61.9119,46.6598 C63.7249,47.6198 65.7779,48.0998 68.0719,48.0998 C70.4179,48.0998 72.0449,47.7398 72.9519,47.0198 C73.8589,46.2998 74.3129,45.3268 74.3129,44.0998 C74.3129,42.1278 72.8989,40.9538 70.0719,40.5798 L65.5119,40.0198 C56.0719,38.8468 51.3529,34.5278 51.3529,27.0598 C51.3529,25.0338 51.7379,23.1798 52.5119,21.4998 C53.2839,19.8198 54.3779,18.3798 55.7919,17.1798 C57.2049,15.9798 58.9119,15.0478 60.9119,14.3798 C62.9119,13.7138 65.1649,13.3798 67.6719,13.3798 C69.8589,13.3798 71.7919,13.5278 73.4719,13.8198 C75.1519,14.1138 76.6449,14.5398 77.9519,15.0998 C79.2589,15.6598 80.4579,16.3538 81.5519,17.1798 C82.6449,18.0078 83.7249,18.9268 84.7919,19.9398 L77.9919,26.8998 C76.6579,25.5678 75.1519,24.5138 73.4719,23.7398 C71.7919,22.9668 70.0719,22.5798 68.3129,22.5798 C66.2839,22.5798 64.8449,22.8998 63.9919,23.5398 C63.1389,24.1798 62.7119,25.0338 62.7119,26.0998 C62.7119,27.2198 63.0189,28.0878 63.6319,28.6998 C64.2439,29.3138 65.4039,29.7538 67.1119,30.0198 L71.8319,30.6598 C81.0589,31.8868 85.6719,36.0998 85.6719,43.2998 C85.6719,45.3268 85.2439,47.1938 84.3929,48.8998 C83.5379,50.6078 82.3239,52.0878 80.7519,53.3398 C79.1789,54.5938 77.2839,55.5678 75.0719,56.2598 C72.8589,56.9518 70.3929,57.2998 67.6719,57.2998 Z" id="Stroke-3"></path>
                        </g>
                    </g>
                </g>
            </g>
        </g>
    </g>
</svg>