<?xml version="1.0" encoding="UTF-8"?>
<svg width="128px" height="128px" viewBox="0 0 128 128" version="1.1" xmlns="http://www.w3.org/2000/svg" xmlns:xlink="http://www.w3.org/1999/xlink">
    <!-- Generator: Sketch 55.1 (78136) - https://sketchapp.com -->
    <title>Group 16</title>
    <desc>Created with Sketch.</desc>
    <g id="SCALEWORK-WEBSITE-WIP" stroke="none" stroke-width="1" fill="none" fill-rule="evenodd">
        <g id="SCALEWORK-Desktop-How-it-works" transform="translate(-153.000000, -5980.000000)">
            <g id="06-Specializations" transform="translate(0.000000, 4882.000000)">
                <g id="Group-3-Copy-6" transform="translate(153.000000, 1098.000000)">
                    <g id="Group-16">
                        <circle id="Oval" fill="#DF265E" cx="64" cy="64" r="64"></circle>
                        <g id="Group-5" transform="translate(16.000000, 34.000000)" stroke="#FFFFFF" stroke-width="2">
                            <polygon id="Stroke-1" points="0 55.8398 0 46.1598 7.2 46.1598 7.2 9.6798 0 9.6798 0 -0.0002 26.56 -0.0002 26.56 9.6798 19.36 9.6798 19.36 46.1598 26.56 46.1598 26.56 55.8398"></polygon>
                            <path d="M34.5488,55.8398 L34.5488,13.8398 L46.3898,13.8398 L46.3898,20.9598 L46.8688,20.9598 C47.6148,18.7198 48.8958,16.8138 50.7088,15.2398 C52.5218,13.6678 55.0018,12.8798 58.1498,12.8798 C61.0288,12.8798 63.4818,13.5998 65.5098,15.0398 C67.5348,16.4798 69.0018,18.5878 69.9088,21.3598 L70.1498,21.3598 C70.5218,20.1878 71.0958,19.0798 71.8688,18.0398 C72.6418,16.9998 73.5888,16.1078 74.7088,15.3598 C75.8288,14.6138 77.0818,14.0138 78.4698,13.5598 C79.8558,13.1078 81.3498,12.8798 82.9488,12.8798 C87.0018,12.8798 90.1098,14.3198 92.2698,17.1998 C94.4298,20.0798 95.5098,24.1878 95.5098,29.5198 L95.5098,55.8398 L83.6688,55.8398 L83.6688,30.4798 C83.6688,25.1478 81.7488,22.4798 77.9088,22.4798 C76.1498,22.4798 74.5488,22.9868 73.1098,23.9998 C71.6688,25.0138 70.9488,26.5598 70.9488,28.6398 L70.9488,55.8398 L59.1098,55.8398 L59.1098,30.4798 C59.1098,25.1478 57.1898,22.4798 53.3498,22.4798 C52.4948,22.4798 51.6548,22.5998 50.8288,22.8398 C50.0018,23.0798 49.2558,23.4668 48.5888,23.9998 C47.9218,24.5338 47.3898,25.1878 46.9888,25.9598 C46.5888,26.7338 46.3898,27.6278 46.3898,28.6398 L46.3898,55.8398 L34.5488,55.8398 Z" id="Stroke-3"></path>
                        </g>
                    </g>
                </g>
            </g>
        </g>
    </g>
</svg>