<?xml version="1.0" encoding="UTF-8"?>
<svg width="81px" height="70px" viewBox="0 0 81 70" version="1.1" xmlns="http://www.w3.org/2000/svg" xmlns:xlink="http://www.w3.org/1999/xlink">
    <!-- Generator: Sketch 55.1 (78136) - https://sketchapp.com -->
    <title>Group 3</title>
    <desc>Created with Sketch.</desc>
    <g id="SCALEWORK-WEBSITE-WIP" stroke="none" stroke-width="1" fill="none" fill-rule="evenodd">
        <g id="SCALEWORK-Desktop-Home" transform="translate(-683.000000, -991.000000)">
            <g id="02-Problem" transform="translate(0.000000, 780.000000)">
                <g id="Group-3" transform="translate(683.000000, 211.000000)">
                    <path d="M69.265381,24.7112069 L69.265381,14.7458621 L70.2874698,14.5962069 C76.1095553,13.7453448 80.5,8.58948276 80.5,2.60448276 C80.5,2.21948276 80.1955226,1.90568966 79.8217915,1.90568966 C79.4468664,1.90568966 79.142389,2.21948276 79.142389,2.60448276 C79.142389,8.52310345 74.408064,13.3398276 68.5871725,13.3398276 L57.3513595,13.3398276 C56.9788224,13.3398276 56.6743451,13.6524138 56.6743451,14.0374138 C56.6743451,14.4236207 56.9788224,14.7362069 57.3513595,14.7362069 L60.7758347,14.7362069 L59.7382235,16.5477586 C58.8510599,18.095 57.2200163,19.0556897 55.480316,19.0556897 C52.7567359,19.0556897 50.540618,16.8048276 50.540618,14.0374138 C50.540618,11.2712069 52.7567359,9.02034483 55.480316,9.02034483 C55.8540471,9.02034483 56.1573305,8.70655172 56.1573305,8.32034483 C56.1573305,7.93655172 55.8540471,7.62275862 55.480316,7.62275862 C52.0080797,7.62275862 49.184201,10.5 49.184201,14.0374138 C49.184201,17.5748276 52.0080797,20.4532759 55.480316,20.4532759 C58.3292693,20.4532759 60.8247899,18.4751724 61.5471775,15.6413793 L61.7788191,14.7362069 L67.90777,14.7362069 L67.90777,24.7112069 C67.90777,27.4774138 66.8749349,30.1048276 65.0003094,32.1094828 L31.1113779,68.3236207 L2.15856235,40.7025862 L37.6868957,4.54637931 C39.6797301,2.51517241 42.3316685,1.39758621 45.1543531,1.39758621 L67.90777,1.39758621 L67.90777,6.41586207 C67.90777,6.80086207 68.2122474,7.11344828 68.5871725,7.11344828 C68.9609036,7.11344828 69.265381,6.80086207 69.265381,6.41586207 L69.265381,0.698793103 C69.265381,0.313793103 68.9609036,0 68.5871725,0 L45.1543531,0 C41.9734598,0 38.9824171,1.2612069 36.7340605,3.55189655 L0.701846951,40.2198276 C0.571697789,40.3525862 0.49766799,40.5396552 0.5,40.7303448 C0.502444106,40.9162069 0.58244405,41.0996552 0.718563357,41.2287931 L30.6767513,69.812931 C30.8391393,69.9674138 31.0170496,70 31.1376465,70 C31.2463032,70 31.4516762,69.9722414 31.6236163,69.7875862 L65.9758311,33.0786207 C68.0964266,30.8108621 69.265381,27.8394828 69.265381,24.7112069" id="Fill-1" fill="#979797"></path>
                    <g id="money-euro" transform="translate(34.353553, 36.353553) rotate(-45.000000) translate(-34.353553, -36.353553) translate(16.353553, 30.853553)">
                        <path d="M4.2002,10.8296 C2.8802,10.8296 1.8492,10.3646 1.1102,9.4346 C0.3702,8.5046 0.0002,7.1646 0.0002,5.4146 C0.0002,3.6646 0.3702,2.3246 1.1102,1.3946 C1.8492,0.4646 2.8802,-0.0004 4.2002,-0.0004 C5.0802,-0.0004 5.8122,0.2026 6.3972,0.6076 C6.9822,1.0126 7.4392,1.5746 7.7692,2.2946 L6.7952,2.8946 C6.5852,2.3546 6.2602,1.9226 5.8202,1.5976 C5.3802,1.2726 4.8402,1.1096 4.2002,1.1096 C3.4102,1.1096 2.7692,1.3456 2.2802,1.8146 C1.7902,2.2856 1.4852,2.9096 1.3652,3.6896 L5.2202,3.6896 L5.2202,4.6946 L1.3042,4.6946 L1.3042,6.1346 L5.2202,6.1346 L5.2202,7.1406 L1.3652,7.1406 C1.4952,7.9196 1.8022,8.5446 2.2872,9.0156 C2.7722,9.4846 3.4102,9.7196 4.2002,9.7196 C4.8602,9.7196 5.4152,9.5446 5.8652,9.1946 C6.3142,8.8456 6.6492,8.3846 6.8702,7.8146 L7.8452,8.4596 C7.6842,8.7996 7.4952,9.1146 7.2742,9.4046 C7.0542,9.6946 6.7972,9.9446 6.5022,10.1546 C6.2072,10.3646 5.8702,10.5296 5.4902,10.6496 C5.1092,10.7696 4.6792,10.8296 4.2002,10.8296" id="Fill-1" fill="#979797"></path>
                        <path d="M13.5752,10.8296 C12.2552,10.8296 11.2242,10.3646 10.4852,9.4346 C9.7452,8.5046 9.3752,7.1646 9.3752,5.4146 C9.3752,3.6646 9.7452,2.3246 10.4852,1.3946 C11.2242,0.4646 12.2552,-0.0004 13.5752,-0.0004 C14.4552,-0.0004 15.1872,0.2026 15.7722,0.6076 C16.3572,1.0126 16.8142,1.5746 17.1442,2.2946 L16.1702,2.8946 C15.9602,2.3546 15.6352,1.9226 15.1952,1.5976 C14.7552,1.2726 14.2152,1.1096 13.5752,1.1096 C12.7852,1.1096 12.1442,1.3456 11.6552,1.8146 C11.1652,2.2856 10.8602,2.9096 10.7402,3.6896 L14.5952,3.6896 L14.5952,4.6946 L10.6792,4.6946 L10.6792,6.1346 L14.5952,6.1346 L14.5952,7.1406 L10.7402,7.1406 C10.8702,7.9196 11.1772,8.5446 11.6622,9.0156 C12.1472,9.4846 12.7852,9.7196 13.5752,9.7196 C14.2352,9.7196 14.7902,9.5446 15.2402,9.1946 C15.6892,8.8456 16.0242,8.3846 16.2452,7.8146 L17.2202,8.4596 C17.0592,8.7996 16.8702,9.1146 16.6492,9.4046 C16.4292,9.6946 16.1722,9.9446 15.8772,10.1546 C15.5822,10.3646 15.2452,10.5296 14.8652,10.6496 C14.4842,10.7696 14.0542,10.8296 13.5752,10.8296" id="Fill-3" fill="#DF265E"></path>
                        <path d="M22.9502,10.8296 C21.6302,10.8296 20.5992,10.3646 19.8602,9.4346 C19.1202,8.5046 18.7502,7.1646 18.7502,5.4146 C18.7502,3.6646 19.1202,2.3246 19.8602,1.3946 C20.5992,0.4646 21.6302,-0.0004 22.9502,-0.0004 C23.8302,-0.0004 24.5622,0.2026 25.1472,0.6076 C25.7322,1.0126 26.1892,1.5746 26.5192,2.2946 L25.5452,2.8946 C25.3352,2.3546 25.0102,1.9226 24.5702,1.5976 C24.1302,1.2726 23.5902,1.1096 22.9502,1.1096 C22.1602,1.1096 21.5192,1.3456 21.0302,1.8146 C20.5402,2.2856 20.2352,2.9096 20.1152,3.6896 L23.9702,3.6896 L23.9702,4.6946 L20.0542,4.6946 L20.0542,6.1346 L23.9702,6.1346 L23.9702,7.1406 L20.1152,7.1406 C20.2452,7.9196 20.5522,8.5446 21.0372,9.0156 C21.5222,9.4846 22.1602,9.7196 22.9502,9.7196 C23.6102,9.7196 24.1652,9.5446 24.6152,9.1946 C25.0642,8.8456 25.3992,8.3846 25.6202,7.8146 L26.5952,8.4596 C26.4342,8.7996 26.2452,9.1146 26.0242,9.4046 C25.8042,9.6946 25.5472,9.9446 25.2522,10.1546 C24.9572,10.3646 24.6202,10.5296 24.2402,10.6496 C23.8592,10.7696 23.4292,10.8296 22.9502,10.8296" id="Fill-5" fill="#DF265E"></path>
                        <path d="M32.3252,10.8296 C31.0052,10.8296 29.9742,10.3646 29.2352,9.4346 C28.4952,8.5046 28.1252,7.1646 28.1252,5.4146 C28.1252,3.6646 28.4952,2.3246 29.2352,1.3946 C29.9742,0.4646 31.0052,-0.0004 32.3252,-0.0004 C33.2052,-0.0004 33.9372,0.2026 34.5222,0.6076 C35.1072,1.0126 35.5642,1.5746 35.8942,2.2946 L34.9202,2.8946 C34.7102,2.3546 34.3852,1.9226 33.9452,1.5976 C33.5052,1.2726 32.9652,1.1096 32.3252,1.1096 C31.5352,1.1096 30.8942,1.3456 30.4052,1.8146 C29.9152,2.2856 29.6102,2.9096 29.4902,3.6896 L33.3452,3.6896 L33.3452,4.6946 L29.4292,4.6946 L29.4292,6.1346 L33.3452,6.1346 L33.3452,7.1406 L29.4902,7.1406 C29.6202,7.9196 29.9272,8.5446 30.4122,9.0156 C30.8972,9.4846 31.5352,9.7196 32.3252,9.7196 C32.9852,9.7196 33.5402,9.5446 33.9902,9.1946 C34.4392,8.8456 34.7742,8.3846 34.9952,7.8146 L35.9702,8.4596 C35.8092,8.7996 35.6202,9.1146 35.3992,9.4046 C35.1792,9.6946 34.9222,9.9446 34.6272,10.1546 C34.3322,10.3646 33.9952,10.5296 33.6152,10.6496 C33.2342,10.7696 32.8042,10.8296 32.3252,10.8296" id="Fill-7" fill="#DF265E"></path>
                    </g>
                </g>
            </g>
        </g>
    </g>
</svg>