<?xml version="1.0" encoding="UTF-8"?>
<svg width="104px" height="68px" viewBox="0 0 104 68" version="1.1" xmlns="http://www.w3.org/2000/svg" xmlns:xlink="http://www.w3.org/1999/xlink">
    <!-- Generator: Sketch 55.1 (78136) - https://sketchapp.com -->
    <title>Group 25</title>
    <desc>Created with Sketch.</desc>
    <g id="SCALEWORK-WEBSITE-WIP" stroke="none" stroke-width="1" fill="none" fill-rule="evenodd">
        <g id="SCALEWORK-Desktop-Home" transform="translate(-1067.000000, -989.000000)">
            <g id="02-Problem" transform="translate(0.000000, 780.000000)">
                <g id="Group-25" transform="translate(1068.000000, 210.000000)">
                    <path d="M17,59 L17,53.9941599 C17,52.090272 12.325,49 8.5034,49 C4.6818,49 0,52.090272 0,53.9941599 L0,59" id="Stroke-1" stroke="#979797" stroke-linecap="round" stroke-linejoin="round"></path>
                    <path d="M8,49 C4.99333333,49 3,46.314659 3,43.0015073 L3,41.0002512 C3,37.685341 4.99333333,35 8,35 C11.0066667,35 13,37.685341 13,41.0002512 L13,43.0015073 C13,46.314659 11.0066667,49 8,49 Z" id="Stroke-3" stroke="#979797" stroke-linecap="round" stroke-linejoin="round"></path>
                    <path d="M63,59 L63,53.9941599 C63,52.0919406 58.325,49 54.5034,49 C50.6818,49 46,52.0919406 46,53.9941599 L46,59" id="Stroke-5" stroke="#979797" stroke-linecap="round" stroke-linejoin="round"></path>
                    <path d="M55,49 C51.9933333,49 50,46.3143216 50,43.0007538 L50,40.9992462 C50,37.6856784 51.9933333,35 55,35 C58.0066667,35 60,37.6856784 60,40.9992462 L60,43.0007538 C60,46.3143216 58.0066667,49 55,49 Z" id="Stroke-7" stroke="#979797" stroke-linecap="round" stroke-linejoin="round"></path>
                    <path d="M53,29 L53,23.9941599 C53,22.0919406 48.325,19 44.5034,19 C40.6818,19 36,22.0919406 36,23.9941599 L36,29" id="Stroke-9" stroke="#979797" stroke-linecap="round" stroke-linejoin="round"></path>
                    <path d="M44,19 C40.9933333,19 39,16.3160804 39,13.0007538 L39,10.9992462 C39,7.68567839 40.9933333,5 44,5 C47.0066667,5 49,7.68567839 49,10.9992462 L49,13.0007538 C49,16.3160804 47.0066667,19 44,19 Z" id="Stroke-11" stroke="#979797" stroke-linecap="round" stroke-linejoin="round"></path>
                    <path d="M27,29 L27,23.9941599 C27,22.0919406 22.325,19 18.5034,19 C14.6818,19 10,22.0919406 10,23.9941599 L10,29" id="Stroke-13" stroke="#979797" stroke-linecap="round" stroke-linejoin="round"></path>
                    <path d="M19,19 C15.9933333,19 14,16.3160804 14,13.0007538 L14,10.9992462 C14,7.68567839 15.9933333,5 19,5 C22.0066667,5 24,7.68567839 24,10.9992462 L24,13.0007538 C24,16.3160804 22.0066667,19 19,19 Z" id="Stroke-15" stroke="#979797" stroke-linecap="round" stroke-linejoin="round"></path>
                    <path d="M40,59 L40,53.9941599 C40,52.0919406 35.325,49 31.5034,49 C27.6818,49 23,52.0919406 23,53.9941599 L23,59" id="Stroke-17" stroke="#979797" stroke-linecap="round" stroke-linejoin="round"></path>
                    <path d="M32,48 C28.9933333,48 27,45.3143216 27,42.0007538 L27,39.9992462 C27,36.6856784 28.9933333,34 32,34 C35.0066667,34 37,36.6856784 37,39.9992462 L37,42.0007538 C37,45.3143216 35.0066667,48 32,48 Z" id="Stroke-19" stroke="#979797" stroke-linecap="round" stroke-linejoin="round"></path>
                    <path d="M102,41 L102,35.9933244 C102.0017,34.0907877 97.3249997,31 93.5033998,31 C89.6817999,31 85.0017,34.0907877 85,35.9933244 L85,41" id="Stroke-21" stroke="#DF265E" stroke-linecap="round" stroke-linejoin="round"></path>
                    <path d="M72.5,0 L72.5,66" id="Line-5" stroke="#DF265E" stroke-linecap="square"></path>
                    <path d="M94,31 C90.9933333,31 89,28.314659 89,24.9997488 L89,22.9984927 C89,19.685341 90.9933333,17 94,17 C97.0066667,17 99,19.685341 99,22.9984927 L99,24.9997488 C99,28.314659 97.0066667,31 94,31 Z" id="Stroke-23" stroke="#DF265E" stroke-linecap="round" stroke-linejoin="round"></path>
                </g>
            </g>
        </g>
    </g>
</svg>