<?xml version="1.0" encoding="UTF-8"?>
<svg width="80px" height="80px" viewBox="0 0 80 80" version="1.1" xmlns="http://www.w3.org/2000/svg" xmlns:xlink="http://www.w3.org/1999/xlink">
    <!-- Generator: Sketch 55.1 (78136) - https://sketchapp.com -->
    <title>Group 7</title>
    <desc>Created with Sketch.</desc>
    <g id="SCALEWORK-WEBSITE-WIP" stroke="none" stroke-width="1" fill="none" fill-rule="evenodd">
        <g id="SCALEWORK-Desktop-Home" transform="translate(-280.000000, -984.000000)">
            <g id="02-Problem" transform="translate(0.000000, 780.000000)">
                <g id="Group-7" transform="translate(281.000000, 205.000000)">
                    <g id="data-experts" transform="translate(10.000000, 9.000000)" stroke="#979797">
                        <path d="M47.8149946,43.3796205 L54.2579956,43.3796205 C55.0434328,43.3796205 55.5388623,42.5476336 55.1691027,41.8619037 C54.6591728,40.9196246 54.2265782,40.022901 54.3063302,39.7543635 C54.4223333,39.3371712 55.1159346,39.219686 56.7375602,38.2630209 C58.3591857,37.3111512 58.1803477,35.999633 57.5205806,34.9854242 C56.8583967,33.9712154 52.467199,28.3055524 52.351196,26.5792396 C52.2762774,25.4595339 53.6272292,22.6446848 52.682288,18.2162128 C51.73493,13.7901384 46.4761264,-0.394398983 27.3235446,0.0084073525 C8.16612923,0.408816031 0,13.3441742 0,22.510416 C0,31.6766578 4.68845537,36.1362994 6.21341173,40.588748 C8.22654747,46.4654047 9.30199213,53.267557 5.55122783,61" id="Stroke-1"></path>
                        <path d="M35,61 C35.8651276,57.5408742 37.5078979,54.5932599 39,54" id="Stroke-3"></path>
                        <path d="M32,46.0311027 C33.2649583,49.5792083 34.2148704,52.7445108 35.4201608,53.1273138 C37.2269031,53.7039108 44.4037513,55.7447294 47.107898,54.7135538 C49.8120447,53.6823782 49.2798075,51.2132987 49.3203816,50.4764028 C49.4158502,48.6580885 51.2464596,48.4403693 50.9719875,46" id="Stroke-5"></path>
                        <path d="M17,16.0011796 C17,18.211737 15.2075472,20 13,20 C10.7900943,20 9,18.211737 9,16.0011796 C9,13.7906222 10.7900943,12 13,12 C15.2075472,12 17,13.7906222 17,16.0011796 Z" id="Stroke-7"></path>
                        <path d="M45,16.0011796 C45,18.211737 43.2075472,20 41,20 C38.7900943,20 37,18.211737 37,16.0011796 C37,13.7906222 38.7900943,12 41,12 C43.2075472,12 45,13.7906222 45,16.0011796 Z" id="Stroke-9"></path>
                        <path d="M31,9.00117959 C31,11.211737 29.2099057,13 27.0023585,13 C24.7924528,13 23,11.211737 23,9.00117959 C23,6.79062224 24.7924528,5 27.0023585,5 C29.2099057,5 31,6.79062224 31,9.00117959 Z" id="Stroke-11"></path>
                        <path d="M27,13 L27,52" id="Stroke-13"></path>
                        <polyline id="Stroke-15" points="38 19 33 24.20046 33 32"></polyline>
                        <polyline id="Stroke-17" points="16 19 21 24.20046 21 32"></polyline>
                        <path d="M16,28.9988204 C16,31.2093778 14.2075472,33 12,33 C9.79009434,33 8,31.2093778 8,28.9988204 C8,26.788263 9.79009434,25 12,25 C14.2075472,25 16,26.788263 16,28.9988204 Z" id="Stroke-19"></path>
                        <polyline id="Stroke-21" points="15 32 20 37.3353551 20 60"></polyline>
                        <path d="M46,28.9988204 C46,31.2093778 44.2075472,33 42,33 C39.7900943,33 38,31.2093778 38,28.9988204 C38,26.788263 39.7900943,25 42,25 C44.2075472,25 46,26.788263 46,28.9988204 Z" id="Stroke-23"></path>
                        <polyline id="Stroke-25" points="39 32 32 38.4275967 32 41"></polyline>
                    </g>
                    <path d="M0.5,0.5 L77.7627972,77.7627972" id="Line-3" stroke="#DF265E" stroke-width="2" stroke-linecap="round" stroke-linejoin="round"></path>
                    <path d="M0.5,0.5 L77.7627972,77.7627972" id="Line-3" stroke="#DF265E" stroke-width="2" stroke-linecap="round" stroke-linejoin="round" transform="translate(39.000000, 39.000000) scale(-1, 1) translate(-39.000000, -39.000000) "></path>
                </g>
            </g>
        </g>
    </g>
</svg>