<?xml version="1.0" encoding="UTF-8"?>
<svg width="105px" height="104px" viewBox="0 0 105 104" version="1.1" xmlns="http://www.w3.org/2000/svg" xmlns:xlink="http://www.w3.org/1999/xlink">
    <!-- Generator: Sketch 55.1 (78136) - https://sketchapp.com -->
    <title>delivery</title>
    <desc>Created with Sketch.</desc>
    <g id="SCALEWORK-WEBSITE-WIP" stroke="none" stroke-width="1" fill="none" fill-rule="evenodd">
        <g id="SCALEWORK-Desktop-Home" transform="translate(-253.000000, -2912.000000)" stroke="#E3E3E3" stroke-width="2">
            <g id="03-Quick-introduction" transform="translate(80.000000, 1953.000000)">
                <g id="Group-Copy-3" transform="translate(8.000000, 793.000000)">
                    <g id="delivery" transform="translate(166.000000, 167.000000)">
                        <path d="M4.5,78 L0,78 L0,42.3076923 C0,29.9893846 10.0755,20 22.5,20 L63,20" id="Stroke-1"></path>
                        <path d="M67.3076923,20 L80.6923077,20 C93.0106154,20 103,29.9893846 103,42.3076923 L103,78 L45,78" id="Stroke-3"></path>
                        <path d="M23,20 C35.1484,20 45,29.9893846 45,42.3076923 L45,78" id="Stroke-5"></path>
                        <path d="M72,56 C72,60.97025 67.97025,65 63,65 C58.02975,65 54,60.97025 54,56 C54,51.02975 58.02975,47 63,47 C67.97025,47 72,51.02975 72,56 Z" id="Stroke-7"></path>
                        <polyline id="Stroke-9" points="72 8.90909091 81 8.90909091 81 0 63 0 63 49"></polyline>
                        <path d="M52,103 L52,78" id="Stroke-11"></path>
                        <path d="M65,78 L65,103" id="Stroke-13"></path>
                        <polyline id="Stroke-15" points="45 78 9 78 9 42 40.5 42"></polyline>
                        <polyline id="Stroke-17" points="15 49 30.9090909 62 40 62"></polyline>
                        <path d="M25,63 L15,73" id="Stroke-19"></path>
                    </g>
                </g>
            </g>
        </g>
    </g>
</svg>