<?xml version="1.0" encoding="UTF-8"?>
<svg width="89px" height="84px" viewBox="0 0 89 84" version="1.1" xmlns="http://www.w3.org/2000/svg" xmlns:xlink="http://www.w3.org/1999/xlink">
    <!-- Generator: Sketch 55.1 (78136) - https://sketchapp.com -->
    <title>increase</title>
    <desc>Created with Sketch.</desc>
    <g id="SCALEWORK-WEBSITE-WIP" stroke="none" stroke-width="1" fill="none" fill-rule="evenodd">
        <g id="SCALEWORK-Desktop-Home" transform="translate(-936.000000, -3120.000000)" stroke="#E3E3E3" stroke-width="2">
            <g id="03-Quick-introduction" transform="translate(80.000000, 1953.000000)">
                <g id="Group-Copy-4" transform="translate(684.000000, 979.000000)">
                    <g id="increase" transform="translate(174.000000, 189.000000)">
                        <polygon id="Stroke-1" points="46 0 56 10 38 28 46 36 54 28 66 40 76 30 86 40 86 0"></polygon>
                        <polygon id="Stroke-3" points="32 46 38 40 32 34 26 40"></polygon>
                        <path d="M76,51 L60,67" id="Stroke-4"></path>
                        <path d="M56,70 L52,74" id="Stroke-5"></path>
                        <path d="M47,78 L43,82" id="Stroke-6"></path>
                        <path d="M34,14 L16,32" id="Stroke-8"></path>
                        <polygon id="Stroke-9" points="24 62 30 56 24 50 18 56"></polygon>
                        <polygon id="Stroke-10" points="28 80 34 74 28 68 22 74"></polygon>
                        <polygon id="Stroke-12" points="42 66 48 60 42 54 36 60"></polygon>
                        <polygon id="Stroke-13" points="54 54 60 48 54 42 48 48"></polygon>
                        <polygon id="Stroke-14" points="6 72 12 66 6 60 0 66"></polygon>
                    </g>
                </g>
            </g>
        </g>
    </g>
</svg>