<?xml version="1.0" encoding="UTF-8"?>
<svg width="26px" height="26px" viewBox="0 0 26 26" version="1.1" xmlns="http://www.w3.org/2000/svg" xmlns:xlink="http://www.w3.org/1999/xlink">
    <!-- Generator: Sketch 55.1 (78136) - https://sketchapp.com -->
    <title>client-examples</title>
    <desc>Created with Sketch.</desc>
    <g id="SCALEWORK-WEBSITE-WIP" stroke="none" stroke-width="1" fill="none" fill-rule="evenodd">
        <g id="SCALEWORK-Desktop-Home" transform="translate(-792.000000, -208.000000)" stroke="#979797" stroke-width="0.7">
            <g id="NAV-Secondary-menu" transform="translate(763.000000, 81.000000)">
                <g id="Group-3" transform="translate(27.000000, 27.000000)">
                    <g id="client-examples" transform="translate(3.000000, 100.000000)">
                        <path d="M8.8832,8.8834 L8.8832,1.9494 C8.8832,1.0664 9.6002,0.3504 10.4842,0.3504 L22.7502,0.3504 C23.6332,0.3504 24.3502,1.0664 24.3502,1.9494 L24.3502,15.8174 C24.3502,16.7004 23.6332,17.4164 22.7502,17.4164 L9.4162,17.4164" id="Stroke-1"></path>
                        <polyline id="Stroke-3" points="11.5502 8.8834 11.5502 5.1504 14.7502 5.1504 14.7502 14.7494 11.5502 14.7494 11.5502 13.1504"></polyline>
                        <polygon id="Stroke-5" points="14.75 14.7497 17.949 14.7497 17.949 8.8837 14.75 8.8837"></polygon>
                        <polygon id="Stroke-7" points="17.95 14.7487 21.15 14.7487 21.15 3.0167 17.95 3.0167"></polygon>
                        <path d="M7.8168,25.4166 L7.8168,12.0836 L10.4838,12.0836 C12.0928,12.0836 12.6168,11.1336 12.6168,9.9496 L3.0168,9.9496 C2.0168,9.9496 0.3498,10.7566 0.3498,13.1496 L0.3498,16.8836 C0.3498,18.0266 1.3388,19.0176 2.4838,19.0176" id="Stroke-8"></path>
                        <path d="M5.1498,17.9498 L5.1498,25.4168" id="Stroke-9"></path>
                        <path d="M2.4838,13.15 L2.4838,25.417" id="Stroke-10"></path>
                        <path d="M6.7504,6.7496 C6.7504,7.6336 6.0334,8.3506 5.1494,8.3506 L4.6164,8.3506 C3.7324,8.3506 3.0174,7.6336 3.0174,6.7496 L3.0174,5.1496 C3.0174,4.2666 3.7324,3.5506 4.6164,3.5506 L5.1494,3.5506 C6.0334,3.5506 6.7504,4.2666 6.7504,5.1496 L6.7504,6.7496 Z" id="Stroke-11"></path>
                    </g>
                </g>
            </g>
        </g>
    </g>
</svg>